<?xml version="1.0" encoding="utf-8"?>
<!-- Generator: Adobe Illustrator 25.2.0, SVG Export Plug-In . SVG Version: 6.00 Build 0)  -->
<!DOCTYPE svg PUBLIC "-//W3C//DTD SVG 1.1//EN" "http://www.w3.org/Graphics/SVG/1.1/DTD/svg11.dtd" [
	<!ENTITY ns_extend "http://ns.adobe.com/Extensibility/1.0/">
	<!ENTITY ns_ai "http://ns.adobe.com/AdobeIllustrator/10.0/">
	<!ENTITY ns_graphs "http://ns.adobe.com/Graphs/1.0/">
	<!ENTITY ns_vars "http://ns.adobe.com/Variables/1.0/">
	<!ENTITY ns_imrep "http://ns.adobe.com/ImageReplacement/1.0/">
	<!ENTITY ns_sfw "http://ns.adobe.com/SaveForWeb/1.0/">
	<!ENTITY ns_custom "http://ns.adobe.com/GenericCustomNamespace/1.0/">
	<!ENTITY ns_adobe_xpath "http://ns.adobe.com/XPath/1.0/">
]>
<svg version="1.1" id="Layer_1" xmlns:x="&ns_extend;" xmlns:i="&ns_ai;" xmlns:graph="&ns_graphs;"
	 xmlns="http://www.w3.org/2000/svg" xmlns:xlink="http://www.w3.org/1999/xlink" x="0px" y="0px" viewBox="0 0 32 32.2"
	 style="enable-background:new 0 0 32 32.2;" xml:space="preserve">
<style type="text/css">
	.st0{fill:#2A7AB9;}
</style>
<metadata>
	<sfw  xmlns="&ns_sfw;">
		<slices></slices>
		<sliceSourceBounds  bottomLeftOrigin="true" height="32.2" width="32" x="240" y="239.9"></sliceSourceBounds>
	</sfw>
</metadata>
<g>
	<path class="st0" d="M17.2,14.5L17.2,14.5C17.2,14.5,17.2,14.5,17.2,14.5L17.2,14.5z"/>
	<path class="st0" d="M29.6,0H2.4C1.1,0,0,1,0,2.3v27.6c0,1.3,1.1,2.3,2.4,2.3h27.3c1.3,0,2.4-1,2.4-2.3V2.3C32,1,30.9,0,29.6,0z
		 M9.7,27H4.9V12.4h4.8V27z M7.3,10.4L7.3,10.4c-1.6,0-2.7-1.1-2.7-2.5c0-1.4,1.1-2.5,2.7-2.5C9,5.4,10,6.5,10,7.9
		C10,9.3,9,10.4,7.3,10.4z M27.1,27h-4.8v-7.8c0-2-0.7-3.3-2.4-3.3c-1.3,0-2.1,0.9-2.5,1.8c-0.1,0.3-0.2,0.7-0.2,1.2V27h-4.8
		c0,0,0.1-13.2,0-14.5h4.8v2.1c0.6-1,1.8-2.4,4.4-2.4c3.2,0,5.6,2.1,5.6,6.5V27z"/>
</g>
</svg>
