<?xml version="1.0" encoding="utf-8"?>
<!-- Generator: Adobe Illustrator 25.2.0, SVG Export Plug-In . SVG Version: 6.00 Build 0)  -->
<!DOCTYPE svg PUBLIC "-//W3C//DTD SVG 1.1//EN" "http://www.w3.org/Graphics/SVG/1.1/DTD/svg11.dtd" [
	<!ENTITY ns_extend "http://ns.adobe.com/Extensibility/1.0/">
	<!ENTITY ns_ai "http://ns.adobe.com/AdobeIllustrator/10.0/">
	<!ENTITY ns_graphs "http://ns.adobe.com/Graphs/1.0/">
	<!ENTITY ns_vars "http://ns.adobe.com/Variables/1.0/">
	<!ENTITY ns_imrep "http://ns.adobe.com/ImageReplacement/1.0/">
	<!ENTITY ns_sfw "http://ns.adobe.com/SaveForWeb/1.0/">
	<!ENTITY ns_custom "http://ns.adobe.com/GenericCustomNamespace/1.0/">
	<!ENTITY ns_adobe_xpath "http://ns.adobe.com/XPath/1.0/">
]>
<svg version="1.1" xmlns:x="&ns_extend;" xmlns:i="&ns_ai;" xmlns:graph="&ns_graphs;"
	 xmlns="http://www.w3.org/2000/svg" xmlns:xlink="http://www.w3.org/1999/xlink" x="0px" y="0px" viewBox="0 0 200 105.7"
	 style="enable-background:new 0 0 200 105.7;" xml:space="preserve">
<style type="text/css">
	.st0{fill:url(#SVGID_1_);}
	.st1{fill:#7754A2;}
	.st2{fill:none;stroke:#AE99C8;stroke-miterlimit:10;}
	.st3{opacity:0.11;}
	.st4{fill:none;stroke:#E7DBF8;stroke-miterlimit:10;}
	.st5{opacity:0.1;fill-rule:evenodd;clip-rule:evenodd;fill:#FFFFFF;}
	.st6{fill:#FFFFFF;stroke:#7754A2;stroke-width:0.4;stroke-miterlimit:10;}
	.st7{fill:#FFFFFF;stroke:#7251A1;stroke-width:0.4424;stroke-miterlimit:10;}
	.st8{fill:#FFFFFF;}
	.st9{fill:#FFFFFF;stroke:#C9C9C9;stroke-width:0.5;stroke-miterlimit:10;}
	.st10{fill:none;stroke:#7754A2;stroke-width:0.4;stroke-miterlimit:10;}
</style>
<metadata>
	<sfw  xmlns="&ns_sfw;">
		<slices></slices>
		<sliceSourceBounds  bottomLeftOrigin="true" height="212.4" width="465.5" x="-265.5" y="0"></sliceSourceBounds>
	</sfw>
</metadata>
<g id="Background">
	<g>
		<linearGradient id="SVGID_1_" gradientUnits="userSpaceOnUse" x1="100" y1="0" x2="100" y2="105.7">
			<stop  offset="0.1936" style="stop-color:#A1A3A6"/>
			<stop  offset="0.874" style="stop-color:#7754A2"/>
		</linearGradient>
		<path class="st0" d="M200,91.7c0,7.7-6.3,14-14,14H14c-7.7,0-14-6.3-14-14V14C0,6.3,6.3,0,14,0h172c7.7,0,14,6.3,14,14V91.7z"/>
	</g>
	<circle class="st1" cx="82" cy="40.1" r="57.8"/>
	<g>
		<g>
			<path class="st2" d="M-169-93.5"/>
		</g>
	</g>
	<g>
		<g>
			<path class="st2" d="M-149.9-87.9"/>
		</g>
	</g>
	<g id="Grime_Vector_Pack_04" class="st3">
	</g>
	<g>
		<g>
			<path class="st4" d="M-265.5-106.7"/>
		</g>
	</g>
</g>
<g id="grime_circle">
	<path class="st5" d="M50.8,5.7c2.2,1.4,4.7-0.6,5-2.6c-0.4-4.1-5.7-3.6-6.1-0.2C49.5,3.6,49.9,5.2,50.8,5.7z M71.1,12.9
		c0.3,0,0.5-0.1,0.7-0.2C71.6,12.4,71.1,12.4,71.1,12.9z M67.6,13.7c-0.9,0-1.1,0.6-1.8,0.8C66.4,14.6,67.4,14.3,67.6,13.7z
		 M43.1,19.1c0.2,0.4,0.7,0.6,1.4,0.6C44.9,19,43.2,18,43.1,19.1z M81.5,30.9c-0.3-0.3-0.7-0.4-1.4-0.3c-0.4,1.1-1.5,2.1-1.8,2.9
		c-0.5,1.2-0.6,3.9,0.1,4.6C81.2,37.2,81.6,34.1,81.5,30.9z M68.2,33.9c0.6,0.1,0.7-0.3,1.1-0.6v-0.8C68,31,66.6,33.7,68.2,33.9z
		 M49.6,45.2c0.1,0,0.2-0.7-0.2-0.7C49.5,44.7,49.2,45.3,49.6,45.2z M55.5,45.1v-0.3c-0.3,0.1-0.3-0.2-0.6-0.1
		C54.8,45.1,55.3,45.2,55.5,45.1z M45.4,53c0.1,0,0.3,0,0.3-0.1c0-1,0.1-2-0.7-2.6c0.4-0.1,0.3,0.4,0.8,0.2c0-0.7-0.4-1-1-0.8
		c-0.1-0.5-0.7-0.5-0.5-1.4h-0.3c0,2.8,0.6,6.1,1.6,8.8C47,56.6,45.5,54.2,45.4,53z M105.6,51.3c-0.3,0-0.3,0.2-0.6,0.2
		c0,0.2,0.1,0.2,0.1,0.5h0.5C105.7,51.8,105.7,51.4,105.6,51.3z M108.2,55.1c-0.1,0.1-0.1,0.4,0,0.6h0.5
		C108.7,55.3,108.5,55.1,108.2,55.1z M46.9,59c0.1-0.6-0.4-1.2-0.7-1.8c0,0.2-0.3,0.1-0.5,0.1c0.5,1.1,0.5,2.7,1.2,3.5
		c0.4,2.4,2.3,4.4,3.4,6.6c0.9,0.6,1.3,1.7,2.3,2.3c-0.1-0.9-1-1.1-1-2.1C49.4,65.3,48.6,61.6,46.9,59z M97.3,57.4
		c-0.4-0.3-1.1-0.1-1,0.5C96.6,58.4,97.4,58.1,97.3,57.4z M112.8,64.4c1,0.1,1.7-0.1,2.1-0.6C114.3,63.4,113.2,63.9,112.8,64.4z
		 M91.5,75c0,0.2,0.6,0.5,0.7,0.3C91.9,75.3,92,74.9,91.5,75z M81.5,76.2c0.5,0.4,1.1-0.3,0.7-0.8C81.6,75.4,81.6,75.9,81.5,76.2z
		 M119.8,40.2c2-2.6,0.8-6.7,0.1-10.2c-0.5-2.5-1.6-4.9-2-7c-0.2-0.3-0.6-0.4-0.8-0.7c-1.3-5.1-4.1-8.8-7.3-12c-0.7,0.1-1,0-1.6,0.3
		c-0.1-0.2-0.3-0.3-0.2-0.7c-0.5,0.1-1,0.2-1-0.5c0.7,0,1,0.1,1.8,0.2c-0.3-0.4-0.4-0.3-0.2-0.9C103.7,3.7,96.1,0.1,88-0.8
		c-3.4-0.7-7-0.5-10.4-0.1C76.2-0.7,75,0.2,73.5,0c-3,1.2-6.2,2.1-8.6,4c-0.3,0-0.2-0.2-0.5,0c-1.4,1.2-3.3,1.9-4.5,3.3
		c-2.6,1.6-4.5,4-6.8,5.9c-0.1,0.4,0.2,0.3,0,0.6c-1.4,0.6-1.4,1.9-2.1,3.1c0.3,0,0.3,0.4,0.5,0.6c-1.3,1.5-1.2,4.9-3.5,5
		c1.2,1.4-0.1,3.1-1,4.2c0.4,0.5-0.2,1-0.3,1.2c0.1,0.9-0.4,1.5-0.1,2.1c-0.6,1.5-2.2,2.2-1.8,4c-0.3,0.1-0.4-0.1-0.7-0.1
		c-0.1,0.2-0.2,0.4-0.5,0.5c-0.3,2.1-0.2,4.9-0.1,7.6c0,1.3,0.4,2.4,0.5,3.5c0.1,1-0.4,2.3,0.6,2.9c0.3,0-0.1-0.7,0.3-0.6
		c0.3,0.1,0.4,0.3,0.5,0.7c0,0.5-0.5,0.4-0.3,1c0.9,0.1,1.1-0.9,1.9-1.4c-0.1-0.3-0.1-0.3,0-0.7c0.3-0.4,0.7-0.1,0.9-0.6
		c-0.5,0.1-0.5-0.1-0.8-0.1c0.4-0.8,0.7-1.8,1.7-1.7c0.1-0.5-0.6-0.1-0.3-0.5c0.1,0.3,0.4-0.5,0-0.1c-0.1-0.3,0.7-0.8,1.2-0.9
		c-0.1-0.1-0.2-0.2-0.3-0.3c0.6-1.6-1.3-4.3,0.2-5.2c0-2.5-0.7-4.1-0.1-6.9c0-0.4-0.6-0.2-0.6-0.7c0.1-0.3,0.5-0.4,0.6-0.8
		c0.6-1.8,0.6-3.3,0.8-5c0.2-1.8,1.9-3,1.6-5c0.7-0.5,1.1-1.7,1.1-2.6c0.8,0.2,1.8-0.1,2.1-0.8c-0.1-0.5-0.5-0.7-0.6-1.2
		c1.1-2,3.1-3.1,4.1-5.2c0.7,0.1,0.7-0.5,1-0.8C64.7,5,72.3,2.3,80.4,2.8c0.2,0.2,0.4,0.3,0.5,0.6c0.7,0.1,1.4,0.4,2.1,0.5
		c1,1,2.9,1.1,4.3,1.7c1.9,0.8,4.1,2,6,2.7c2.7,1,5.8,2,7.7,3.7c2.2,1.9,2.8,4.9,4.1,7.6c0.5,1.1,1.1,2,1.6,3.2
		c-0.6-0.4-1.2-0.8-1.5-1.5c-0.3,0.1-0.3-0.2-0.7-0.1c-0.6-0.9-1.5-1.5-2.6-1.8c-0.7-1.2-2.4-1.5-3.6-2c-1-0.4-1.7-1.7-2.7-1.7
		c0,0.7,0.7,0.6,0.9,0.6c0.1,0.4-0.3,0.3-0.2,0.7c0.4,0.7,1.1,0.9,1.6,1.5c0.2,0.3,0.3,0.8,0.6,1.1c1,1.3,2.7,1.9,3.7,3.2
		c0.5,0.7,0.8,1.5,1.5,2c0.5,0.4,1.1,0.5,1.6,0.9c0.9,0.7,1.5,2.2,2.5,2.8c0.9,1.4,1.9,2.6,3.3,3.4c0.2,0.6,0.5,1.3,0.1,1.9
		c-1.2-0.6-1.5-2.1-2.5-2.9c-1.1-2.2-3.3-3.4-4.9-5.1c-0.3,0-0.3-0.2-0.7-0.1c-1.9-1.9-4.7-3.6-7.9-4c1.1,1.5,3,2.3,4.5,3.4
		c0.1,1,1.1,1.1,1.8,1.5c0,0.2-0.1,0.2-0.1,0.5c2.9,2.5,4.9,6,7.6,8.8c0.5,1.4,2.6,3.9,2.6,5.5c0,0.7-0.7,1.6-0.9,2.5
		c-0.1,0.6-0.2,1.3-0.2,1.8c-0.1,0.7-0.3,1.4-0.3,2c-0.1,1.4,0.6,2.7,0.6,4.1c-0.2,3.2-2.5,5.1-3.3,7.3c-2.1,1.5-3.3,3.9-5.6,5.1
		c0,0.4-0.3,0.5-0.5,0.8c-2.5,0.9-3.9,2.8-7.1,2.7c-0.3,0.4-0.7,0.8-1.2,1c-1.2-0.3-2.2,0.6-2.8,0.8c-0.9,0.3-2.8,0.2-3.7,0.3
		c-3.8,0.5-8.6-0.3-12.1-1.2c-0.9-0.2-1.9-0.9-2.6-1.1c-1.5-0.5-2.7-0.2-3.2-1.5c-0.4,0-0.4,0.3-0.8,0.1c-1.4-1-3-1.9-4.4-2.5
		c-1.3-2.4-4-3.4-5.2-5.8c-2.6-1.5-3.6-4.7-5.6-6.8c-0.6,0.6,0.7,2.1-0.2,2.8c0.5,1.1,0.9,3.1,0.7,4.7c0.9,0.4,1.3,1.9,0.2,2.3
		c-0.1,0.9,1,2,0.8,3.1c0.7,0.2,0.9,0,1.1-0.6c0.5,0.6,0.5,1.7,0.8,2.4c0.6,0.1,0.5-0.5,1-0.5c0.2,0.4,0.6,0.5,1,0.7
		c-0.2,0.8,0.6,0.7,0.8,1c-0.1,0.1-0.3,0.1-0.3,0.2c0.8-0.4,0.7,0.6,0.9,0.9c0.5,0.6,1.8,1,1.6,2.1c0.9-0.2,0.6-0.8,1.1-1
		c0.4,0.8,0.8,0.5,1.7,1.2c0.2-0.4,0.8-1,0.7-1.4c0,0.5-0.6-0.1-0.6-0.3c0.5-1.1,0.1-2.2,0.2-3.2c0.9,0.5,1.1,1.8,1.8,2.5
		c-0.1,0.8-0.8,1.2-0.8,2.1c0.5,0.5,1.2,1,2.1,0.8c1,0.6,1.2,2.1,1.7,3.2c0.5,0,0.6,0,1.1,0.2c0,0.3,0,0.5,0.1,0.7
		c1.2,0.2,1.6-0.8,2.7-0.5c1.8-1.7,4.4-0.7,6.8-1c0.1-0.9,0.8-0.7,1.5-1c0.2,0.4-0.1,0.6,0.1,1c0.2,0.2,0.7,0.1,0.7,0.5
		c0.8-0.3,1.7-0.9,0.9-1.2c0.9-0.3,1.5-0.6,2.4-0.7c0.2,0.5,0.5,0.3,0.3,1c1.6-0.1,2.7-0.1,4-0.5c0.2,0.2,0,0.7,0.3,0.8
		c0.7,0.3,0.9-0.7,1.9-0.5c0.2,0.2,0.2,0.9-0.1,1c0.7,0.5,1.1-0.1,2,0c0.2-0.2,0.5-0.3,0.8-0.5c2.5-0.1,3.7-1.6,5.3-2.5
		c0.6-0.4,1.2-0.6,1.7-1c3.5-3,6.2-7.1,9.4-10.3c0.5-1.3,1.6-2,2.4-2.9c0.3,0.1,0.5,0.7,0.8,0.5c0.9-0.5,0.1-2.9,1.5-2.7
		c1.1,0.1,0.7,2.1,0.8,3.3c0.1,0.7,0.5,1.3,0.5,1.9c0,0.9-0.5,1.6,0.1,2c1.1-0.6,1.4-2.1,1.6-3.2c0.6-3,0.4-6.5,0.7-9.6
		c0-0.3,0.2-0.6,0.2-0.9c0-0.6-0.3-1.2-0.3-1.8C118.8,44.2,120.9,42.4,119.8,40.2z M54.7,61.7c-0.4-0.1-0.3,0.4-0.7,0.3
		c-0.3-0.3-0.2-0.6-0.3-0.8c0.2-0.1,0.6,0.1,1-0.1C54.6,61.4,54.6,61.3,54.7,61.7z M64,65.4c-0.2-0.1-0.3-0.3-0.7-0.2
		c0-0.2,0.1-0.6-0.2-0.5c0.4-0.4-0.3-0.3-0.2-0.7c0.4-0.1,0.5,0.1,0.8,0.2C63.4,64.7,64.1,64.6,64,65.4z M74.7,72.2
		C74.1,70.3,76.4,71.8,74.7,72.2L74.7,72.2z M76.9,72.2c0-0.2,0-0.3-0.1-0.3c0-0.3,0.5-0.1,0.6,0C77.2,72,77.1,72.2,76.9,72.2z
		 M50.6,49.4h0.5c0-0.2,0.1-0.2,0.1-0.5c-0.2,0-0.2-0.1-0.3-0.1c0,0.2,0.2,0.2,0.2,0.3C51,49.3,50.7,49.1,50.6,49.4z M65.9,79.2
		c-0.3-0.1-0.6-0.1-0.8-0.2c-2.4-1.9-5.1-2.7-7-5c-2.1-0.5-2.6-3.2-4.7-3.3c0.9,1.1,1.6,2.4,2.7,3.3c0.3,0.2,0.7,0.2,1,0.5
		c0.6,0.4,1,1.2,1.6,1.6c0.3,0.2,0.8,0.5,1.1,0.7c2,1.2,4.5,2.9,6.7,3.4c0.1,0,0.3-0.1,0.1-0.1C66.3,79.7,66.1,79.4,65.9,79.2z
		 M67.9,80.2c-0.4,0.2-0.8-0.2-0.9,0.2c1.1,0,2.1,1,3.5,1C70.2,80.5,68.6,80.8,67.9,80.2z"/>
</g>
<g id="Type">
	<g id="Layer_1_1_">
		<g id="Layer_2_2_">
			<g>
				<path class="st6" d="M51.7,66.6c3,2.8,4.6,6.5,4.6,11.3s-1.5,8.6-4.6,11.3c-3,2.8-7.2,4.2-12.4,4.2H23.2V93h0.6
					c0.8,0,1.4-0.3,2-0.8c0.5-0.5,0.8-1.2,0.9-2V65.4c0-0.7-0.3-1.3-0.9-1.8c-0.6-0.5-1.2-0.7-2-0.7h-0.6v-0.4h16.1
					C44.5,62.4,48.6,63.8,51.7,66.6z M38.7,91.5c2.1,0,4-0.5,5.5-1.6s2.7-2.7,3.6-4.7c0.8-2,1.2-4.3,1.2-6.7c0-2.4-0.2-4.5-0.7-6.2
					s-1.2-3.1-2.1-4.3c-1.8-2.4-4.3-3.7-7.5-3.7h-5.4v27.2L38.7,91.5L38.7,91.5z"/>
				<path class="st6" d="M87.6,60.7h-10c0.2,1.1,0.5,1.9,1,2.3c0.5,0.4,1.3,0.6,2.3,0.6c0.6,0,1.2-0.1,1.8-0.4
					c0.6-0.2,1.3-0.6,2-1.1l2.5,3.4c-2,1.6-4.3,2.5-6.8,2.5c-2.9,0-5.2-0.8-6.7-2.4s-2.3-3.8-2.3-6.4c0-1.7,0.3-3.2,0.9-4.5
					c0.6-1.4,1.6-2.4,2.8-3.2c1.2-0.8,2.7-1.2,4.5-1.2c1.6,0,3.1,0.3,4.3,1c1.2,0.7,2.2,1.7,2.8,3c0.7,1.3,1,2.9,1,4.7
					C87.7,59.3,87.7,60,87.6,60.7z M81.7,57.1c0-1-0.2-1.7-0.5-2.3C81,54.2,80.5,54,79.7,54c-0.7,0-1.2,0.2-1.5,0.7
					s-0.6,1.3-0.7,2.6h4.2V57.1z"/>
				<path class="st6" d="M105.7,50.7l-4.9,16.6h-7.3l-5.1-16.6h6.7l2.1,12.1l2.3-12.1C99.5,50.7,105.7,50.7,105.7,50.7z"/>
				<path class="st6" d="M122.9,60.7h-10.1c0.2,1.1,0.5,1.9,1,2.3c0.5,0.4,1.3,0.6,2.3,0.6c0.6,0,1.2-0.1,1.8-0.4
					c0.6-0.2,1.3-0.6,2-1.1l2.5,3.4c-2,1.6-4.3,2.5-6.8,2.5c-2.9,0-5.2-0.8-6.7-2.4s-2.3-3.8-2.3-6.4c0-1.7,0.3-3.2,0.9-4.5
					c0.6-1.4,1.6-2.4,2.8-3.2c1.2-0.8,2.7-1.2,4.5-1.2c1.6,0,3.1,0.3,4.3,1c1.2,0.7,2.2,1.7,2.8,3c0.7,1.3,1,2.9,1,4.7
					C123,59.3,123,60,122.9,60.7z M116.9,57.1c0-1-0.2-1.7-0.5-2.3c-0.3-0.5-0.8-0.8-1.5-0.8s-1.2,0.2-1.5,0.7s-0.6,1.3-0.7,2.6h4.2
					V57.1z"/>
				<path class="st6" d="M137.5,50.5l-1,5.9c-0.6-0.2-1.1-0.2-1.5-0.2c-0.9,0-1.6,0.3-2,0.9c-0.4,0.6-0.8,1.5-1.1,2.7v7.5h-6.2V50.7
					h5.4l0.5,3.1c0.4-1.1,0.9-2,1.7-2.6c0.8-0.7,1.6-1,2.5-1C136.4,50.2,137,50.3,137.5,50.5z"/>
				<path class="st6" d="M149.5,50.7c1.1,0.4,2.1,0.9,2.8,1.6l-2.2,3.3c-0.6-0.4-1.2-0.7-1.9-0.9s-1.4-0.3-2-0.3
					c-0.9,0-1.4,0.2-1.4,0.7c0,0.2,0.1,0.4,0.2,0.5c0.1,0.1,0.4,0.3,0.9,0.5s1.2,0.5,2.3,0.8c1.7,0.5,2.9,1.2,3.7,2s1.2,1.9,1.2,3.4
					c0,1.1-0.3,2.1-1,3s-1.6,1.5-2.8,2s-2.5,0.7-4.1,0.7c-1.4,0-2.8-0.2-4.1-0.7s-2.3-1.1-3.2-1.9l2.9-3.2c0.6,0.5,1.3,0.9,2,1.2
					s1.5,0.5,2.2,0.5c0.6,0,1-0.1,1.3-0.3s0.5-0.4,0.5-0.8c0-0.3-0.1-0.5-0.2-0.7c-0.1-0.2-0.4-0.3-0.8-0.5
					c-0.4-0.2-1.1-0.4-2.2-0.7c-3.2-1-4.8-2.7-4.8-5.4c0-1,0.3-1.9,0.9-2.7c0.6-0.8,1.4-1.4,2.5-1.9s2.4-0.7,3.9-0.7
					C147.2,50.1,148.4,50.3,149.5,50.7z"/>
				<path class="st6" d="M169.8,52.4c1.5,1.6,2.3,3.8,2.3,6.6c0,1.8-0.3,3.3-1,4.7c-0.7,1.3-1.7,2.4-3,3.1c-1.3,0.7-2.8,1.1-4.5,1.1
					c-2.7,0-4.7-0.8-6.3-2.3S155,61.8,155,59c0-1.8,0.3-3.3,1-4.7c0.7-1.3,1.7-2.4,3-3.1c1.3-0.7,2.8-1.1,4.5-1.1
					C166.2,50.1,168.3,50.9,169.8,52.4z M161.8,55.6c-0.4,0.7-0.5,1.8-0.5,3.4c0,1.6,0.2,2.8,0.5,3.5c0.4,0.7,0.9,1,1.7,1
					s1.4-0.4,1.7-1.1c0.4-0.7,0.5-1.8,0.5-3.4c0-1.6-0.2-2.8-0.5-3.5c-0.4-0.7-0.9-1-1.7-1S162.2,54.9,161.8,55.6z"/>
				<path class="st6" d="M189.1,51.4c0.8,0.9,1.2,2.1,1.2,3.7v12.2h-6.1V56.2c0-0.6-0.1-1-0.2-1.3c-0.2-0.2-0.4-0.3-0.7-0.3
					c-0.7,0-1.4,0.5-2.1,1.6v11.1H175V50.7h5.4l0.4,1.7c0.8-0.8,1.5-1.4,2.3-1.8c0.8-0.4,1.7-0.6,2.7-0.6
					C187.2,50.1,188.3,50.5,189.1,51.4z"/>
				<path class="st6" d="M70.3,86.9h-8.1c0.1,0.9,0.4,1.5,0.8,1.8c0.4,0.3,1,0.5,1.8,0.5c0.5,0,0.9-0.1,1.4-0.3
					c0.5-0.2,1-0.5,1.6-0.9l2,2.7c-1.6,1.3-3.4,2-5.5,2c-2.4,0-4.1-0.7-5.3-2s-1.8-3-1.8-5.2c0-1.3,0.3-2.5,0.8-3.6s1.3-1.9,2.3-2.6
					c1-0.6,2.2-1,3.6-1c1.3,0,2.5,0.3,3.4,0.8c1,0.5,1.7,1.3,2.3,2.4c0.5,1,0.8,2.3,0.8,3.8C70.4,85.7,70.3,86.2,70.3,86.9z
					 M65.5,83.9c0-0.8-0.1-1.4-0.4-1.8c-0.2-0.4-0.6-0.6-1.2-0.6c-0.5,0-1,0.2-1.2,0.6c-0.3,0.4-0.5,1.1-0.5,2.1h3.3V83.9z"/>
				<path class="st6" d="M80.8,78.8c0.9,0.3,1.7,0.7,2.3,1.3l-1.7,2.7c-0.5-0.3-1-0.5-1.5-0.7s-1.1-0.3-1.6-0.3
					c-0.7,0-1.1,0.2-1.1,0.6c0,0.2,0.1,0.3,0.1,0.4c0.1,0.1,0.3,0.2,0.7,0.4c0.4,0.2,1,0.4,1.8,0.6c1.3,0.4,2.3,0.9,2.9,1.6
					c0.6,0.6,1,1.5,1,2.7c0,0.9-0.3,1.7-0.8,2.4c-0.5,0.7-1.3,1.2-2.2,1.6c-1,0.4-2,0.6-3.2,0.6s-2.3-0.2-3.3-0.6s-1.9-0.9-2.6-1.6
					l2.3-2.6c0.5,0.4,1,0.7,1.6,1c0.6,0.2,1.2,0.4,1.8,0.4c0.4,0,0.8-0.1,1-0.2s0.4-0.3,0.4-0.6c0-0.2-0.1-0.4-0.2-0.5
					s-0.3-0.2-0.7-0.4c-0.3-0.1-0.9-0.3-1.7-0.6c-2.6-0.8-3.9-2.2-3.9-4.3c0-0.8,0.2-1.5,0.7-2.2c0.5-0.6,1.1-1.2,2-1.5
					c0.9-0.4,1.9-0.6,3.1-0.6C78.9,78.3,79.9,78.5,80.8,78.8z"/>
				<path class="st6" d="M90.3,72.2c0.5,0.5,0.8,1.1,0.8,1.9c0,0.7-0.3,1.4-0.8,1.9s-1.2,0.8-2,0.8s-1.5-0.3-2-0.8s-0.8-1.1-0.8-1.9
					c0-0.7,0.3-1.4,0.8-1.9s1.2-0.8,2-0.8S89.8,71.7,90.3,72.2z M90.8,78.8v13.3h-4.9V78.8H90.8z"/>
				<path class="st6" d="M106.9,79.7c-0.9,0.4-2.1,0.6-3.8,0.6c0.9,0.4,1.5,0.8,2,1.4c0.4,0.5,0.6,1.2,0.6,2.1
					c0,0.8-0.2,1.6-0.7,2.3c-0.5,0.7-1.2,1.2-2.1,1.6s-1.9,0.6-3.1,0.6c-0.6,0-1.1,0-1.4-0.1c-0.2,0.1-0.3,0.3-0.3,0.5
					s0.1,0.3,0.2,0.4c0.2,0.1,0.5,0.2,1,0.2h1.9c1.1,0,2,0.2,2.9,0.5c0.8,0.3,1.4,0.8,1.9,1.4c0.4,0.6,0.7,1.3,0.7,2.1
					c0,1.4-0.6,2.5-1.9,3.4c-1.3,0.8-3.1,1.2-5.5,1.2c-1.7,0-3.1-0.2-4.1-0.5c-1-0.4-1.7-0.9-2.1-1.5s-0.6-1.4-0.6-2.4H97
					c0,0.3,0.1,0.6,0.2,0.8c0.1,0.2,0.4,0.3,0.7,0.4c0.3,0.1,0.9,0.1,1.6,0.1c0.9,0,1.5-0.1,1.8-0.3c0.3-0.2,0.5-0.5,0.5-0.8
					s-0.1-0.5-0.3-0.7c-0.2-0.2-0.6-0.3-1.1-0.3h-1.8c-1.5,0-2.7-0.2-3.4-0.7c-0.7-0.5-1.1-1.1-1.1-1.9c0-0.5,0.2-1,0.5-1.5
					s0.7-0.9,1.2-1.2c-0.9-0.5-1.5-1-1.9-1.6s-0.6-1.4-0.6-2.2c0-1.6,0.6-2.8,1.7-3.7c1.1-0.9,2.6-1.3,4.6-1.3
					c1.3,0,2.4-0.1,3.4-0.5s2-0.9,3-1.6L106.9,79.7z M98.6,82c-0.3,0.3-0.4,0.7-0.4,1.3c0,0.6,0.1,1,0.4,1.4
					c0.3,0.3,0.6,0.5,1.1,0.5c1,0,1.5-0.6,1.5-1.9c0-0.6-0.1-1-0.4-1.3c-0.2-0.3-0.6-0.4-1.1-0.4C99.2,81.5,98.8,81.7,98.6,82z"/>
				<path class="st6" d="M120.2,79.4c0.6,0.7,1,1.7,1,2.9v9.8h-4.9v-8.9c0-0.5-0.1-0.8-0.2-1s-0.3-0.3-0.6-0.3
					c-0.5,0-1.1,0.4-1.7,1.3v8.9h-4.9V78.8h4.3l0.3,1.4c0.6-0.6,1.2-1.1,1.9-1.4c0.6-0.3,1.4-0.4,2.2-0.4
					C118.7,78.3,119.6,78.7,120.2,79.4z"/>
				<path class="st7" d="M48.3,76.7"/>
			</g>
		</g>
	</g>
</g>
<g id="Layer_6">
	<g>
		<path class="st6" d="M15,25.9c0-4.4,1.5-8.2,4.6-11.4c3.1-3.2,6.7-4.8,10.8-4.8l26.7-0.1c0.1,1.5,0.5,3.1,1.1,4.4
			c1,2.1,3.9,7.2,4.6,8.5c0.6,1.3,1.1,2.6,1.5,4.1c-0.9-1-1.7-1.9-2.5-2.7c-0.8-0.9-1.7-1.7-2.5-2.4c-3.5-3.3-7.3-5.7-11.3-7.3
			c-4-1.6-8.8-2.4-14.5-2.4c-5.3,0-9.1,1.1-11.3,3.2c-2.2,2.2-3.3,4.7-3.3,7.5c0,4.5,2.1,7.5,6.3,9.1S56,39.3,61.2,42
			c5.2,2.6,7.8,7.6,7.8,15c0,0.6-0.1,3-0.2,3.6c-0.6,5-2.9,9.6-6.9,13.8c-4,4.2-10.9,6.3-20.6,6.3c-1.7,0-3.5-0.1-5.5-0.2
			c-1.9-0.1-3.9-0.3-5.8-0.6c-5.4-0.9-10.4-2.9-14.9-6.2c-4.5-3.3-6.8-8.8-6.8-16.7c0-0.4,0-3.6,1-6.8c0.6-1.6,2-3.5,3.7-4.5
			c-0.9,1-1.4,2-1.7,3.2c-0.4,2.1-0.4,4.4-0.4,4.4c0,6.4,3.3,11.6,9.9,15.7c6.6,4.1,15,6.1,25.1,6.1c6.4,0,11-1.1,14-3.4
			s4.4-5.7,4.4-10.2c0-6-2.4-9.9-7.3-11.9c-4.8-1.9-29.2-7.7-34.3-10C17.6,37.5,15,32.9,15,25.9L15,25.9z"/>
	</g>
</g>
<g id="KO">
	<path class="st8" d="M33.3,64.9 M26.7,86.3V65.8l6.6,0v21.6L26.7,86.3z"/>
	<line class="st6" x1="26.7" y1="90.2" x2="26.7" y2="65.4"/>
	<path class="st9" d="M23.7,65.5"/>
	<line class="st10" x1="33.3" y1="64.3" x2="33.3" y2="91.5"/>
</g>
</svg>
