<?xml version="1.0" encoding="utf-8"?>
<!-- Generator: Adobe Illustrator 25.2.1, SVG Export Plug-In . SVG Version: 6.00 Build 0)  -->
<!DOCTYPE svg PUBLIC "-//W3C//DTD SVG 1.1//EN" "http://www.w3.org/Graphics/SVG/1.1/DTD/svg11.dtd" [
	<!ENTITY ns_extend "http://ns.adobe.com/Extensibility/1.0/">
	<!ENTITY ns_ai "http://ns.adobe.com/AdobeIllustrator/10.0/">
	<!ENTITY ns_graphs "http://ns.adobe.com/Graphs/1.0/">
	<!ENTITY ns_vars "http://ns.adobe.com/Variables/1.0/">
	<!ENTITY ns_imrep "http://ns.adobe.com/ImageReplacement/1.0/">
	<!ENTITY ns_sfw "http://ns.adobe.com/SaveForWeb/1.0/">
	<!ENTITY ns_custom "http://ns.adobe.com/GenericCustomNamespace/1.0/">
	<!ENTITY ns_adobe_xpath "http://ns.adobe.com/XPath/1.0/">
]>
<svg version="1.1" xmlns:x="&ns_extend;" xmlns:i="&ns_ai;" xmlns:graph="&ns_graphs;"
	 xmlns="http://www.w3.org/2000/svg" xmlns:xlink="http://www.w3.org/1999/xlink" x="0px" y="0px" viewBox="0 0 200 104"
	 style="enable-background:new 0 0 200 104;" xml:space="preserve">
<style type="text/css">
	.st0{fill:url(#SVGID_1_);}
	.st1{opacity:0.3;}
	.st2{clip-path:url(#SVGID_3_);}
	.st3{opacity:6.000000e-02;fill:#FFFFFF;}
	.st4{fill:#FFFFFF;stroke:#663399;stroke-width:0.35;stroke-miterlimit:10;}
	.st5{fill:#FFFFFF;stroke:#663399;stroke-width:0.25;stroke-miterlimit:10;}
	.st6{stroke:#663399;stroke-width:0.3641;stroke-miterlimit:10;}
	.st7{fill:#663399;}
	.st8{fill:#69FFC1;stroke:#663399;stroke-width:0.3641;stroke-miterlimit:10;}
	.st9{fill:#6699CC;}
</style>
<metadata>
	<sfw  xmlns="&ns_sfw;">
		<slices></slices>
		<sliceSourceBounds  bottomLeftOrigin="true" height="280.1" width="501.3" x="-184.6" y="-97.2"></sliceSourceBounds>
	</sfw>
</metadata>
<g id="Background_1_">
	<g id="Background">
		<g id="Layer_6">
			
				<linearGradient id="SVGID_1_" gradientUnits="userSpaceOnUse" x1="100" y1="-543.3321" x2="100" y2="-711.6434" gradientTransform="matrix(1 0 0 -1 0 -580)">
				<stop  offset="0.1367" style="stop-color:#6699CC"/>
				<stop  offset="0.1915" style="stop-color:#668CC6"/>
				<stop  offset="0.4229" style="stop-color:#665CAE"/>
				<stop  offset="0.5996" style="stop-color:#663E9F"/>
				<stop  offset="0.6993" style="stop-color:#663399"/>
			</linearGradient>
			<path class="st0" d="M200,93.9c0,5.5-4.5,10-10,10l-190,0l0-94c0-5.5,4.5-10,10-10L200,0V93.9z"/>
		</g>
	</g>
</g>
<g id="gradient">
	<g class="st1">
		<g>
			<defs>
				<path id="SVGID_2_" d="M191.6,38c-6.3-3.3-37.8-10.4-42.7-12.4c-5-2-7.4-5.5-7.4-10.8c0-3.3,1.3-6.3,3.9-8.9
					c2.6-2.5,7.2-3.8,13.4-3.8c6.8,0,12.4,0.9,17.2,2.7c4.8,1.8,9.2,4.8,13.4,8.6c1,0.9,2.1,1.8,3,2.9c1,1,2,2.1,3,3.3
					c-0.5-1.7-1-3.3-1.8-4.8c-0.8-1.5-4.3-7.6-5.5-10c-0.7-1.6-1.2-3.4-1.3-5.2L155-0.3c-4.8,0-9.1,2-12.8,5.7
					c-3.6,3.8-5.5,8.3-5.5,13.5c0,8.2,3.1,13.7,9.1,16.4c6,2.7,34.9,9.6,40.6,11.9c5.7,2.3,8.6,6.9,8.6,14.1c0,5.3-1.7,9.4-5.2,12.1
					c-2,1.5-4.6,2.6-7.8,3.3h0c-0.8-1.5-1.9-2.8-3.1-3.9c-3.6-3.4-8.5-5.1-14.5-4.8h-19.1v0.5h0.7c0.9,0,1.7,0.1,2.3,0.8
					c0.7,0.5,1,1.3,1,2.1v1.8c-2-0.9-3.9-1.8-5.7-2.9c-7.8-4.8-11.7-11.1-11.7-18.6c0,0,0-2.7,0.5-5.2c0.3-1.4,0.9-2.6,2-3.8
					c-2.1,1.2-3.8,3.4-4.4,5.3c-1.2,3.8-1.2,7.6-1.2,8.1c0,9.4,2.7,15.9,8.1,19.8c3.9,2.8,8.1,4.8,12.5,6.1v18.9
					c-0.1,0.9-0.4,1.7-1,2.3c-0.7,0.5-1.4,0.9-2.3,0.9h-0.8v0.5h19c6.1,0,11.2-1.7,14.7-5c3.6-3.3,5.5-7.7,5.5-13.4
					c0-1.6-0.2-3.1-0.5-4.5c3.5-1.2,6.3-2.9,8.4-5.2c4.8-5.1,7.6-10.4,8.2-16.4c0.1-0.8,0.3-3.6,0.3-4.3
					C200.9,46.9,197.8,41.1,191.6,38L191.6,38z M157.4,69.9h6.4c3.8,0,6.8,1.6,8.9,4.4c0.7,0.9,1.3,2,1.8,3.1c-0.3,0-0.7,0-1,0
					c-5.8,0-11.2-0.6-16-1.8V69.9L157.4,69.9z M174.4,94.6c-1,2.3-2.5,4.3-4.3,5.6c-1.8,1.3-4,2-6.5,2h-6.3V83.3
					c1.4,0.1,2.8,0.3,4.2,0.4c2.3,0.1,4.6,0.3,6.5,0.3c2.8,0,5.3-0.1,7.7-0.4c0.1,1,0.1,2.1,0.1,3.2
					C175.9,89.5,175.4,92.3,174.4,94.6L174.4,94.6z"/>
			</defs>
			<clipPath id="SVGID_3_">
				<use xlink:href="#SVGID_2_"  style="overflow:visible;"/>
			</clipPath>
			<g class="st2">
				<defs>
					<rect id="SVGID_4_" x="128.9" y="-0.5" width="72" height="105"/>
				</defs>
				<clipPath id="SVGID_5_">
					<use xlink:href="#SVGID_4_"  style="overflow:visible;"/>
				</clipPath>
				<g style="clip-path:url(#SVGID_5_);">
					
						<image style="overflow:visible;" width="112" height="159" xlink:href="24C8BEF3A916F182.jpg"  transform="matrix(0.6737 0 0 -0.6737 127.82 105.5812)">
					</image>
				</g>
			</g>
		</g>
	</g>
</g>
<g id="Ui_UX">
	<g id="UI_x2F_UX">
	</g>
	<path class="st3" d="M28.2-0.1h-8.4v16.3c0,0.9,0,1.8-0.1,2.7c-0.1,0.9-0.3,1.8-0.7,2.5c-0.4,0.7-0.9,1.3-1.7,1.8
		c-0.7,0.5-1.8,0.7-3.2,0.7c-1.4,0-2.5-0.2-3.3-0.7c-0.8-0.4-1.3-1.1-1.7-1.8c-0.3-0.7-0.5-1.6-0.6-2.5c-0.1-0.9-0.1-1.8-0.1-2.7
		V-0.1H0v17.4c0,4.7,1.2,8.1,3.6,10.4c2.3,2.1,5.8,3.2,10.6,3.2c4.8,0,8.3-1,10.6-3.2c2.3-2.2,3.4-5.6,3.4-10.3V-0.1"/>
	<polyline class="st3" points="43,-1.4 34.6,-1.4 34.6,28.7 43,28.7 43,-1.4 	"/>
	<polyline class="st3" points="70.3,-3.2 64.2,-3.2 46.6,36.8 52.7,36.8 70.3,-3.2 	"/>
	<path class="st3" d="M102.2-0.1h-8.4v16.3c0,0.9,0,1.8-0.1,2.7c-0.1,0.9-0.3,1.8-0.7,2.5c-0.4,0.7-0.9,1.3-1.7,1.8
		c-0.7,0.5-1.8,0.7-3.2,0.7c-1.4,0-2.5-0.2-3.3-0.7c-0.8-0.4-1.3-1.1-1.7-1.8c-0.3-0.7-0.5-1.6-0.6-2.5c-0.1-0.9-0.1-1.8-0.1-2.7
		V-0.1h-8.3v17.5c0,4.7,1.2,8.1,3.5,10.3c2.3,2.1,5.8,3.2,10.6,3.2s8.3-1,10.6-3.2c2.3-2.2,3.4-5.6,3.4-10.3V-0.1"/>
	<polyline class="st3" points="138.7,-0.1 128.3,-0.1 122.9,7.7 118.5,-0.1 108.1,-0.1 118.2,13.9 105.6,30.1 115.7,30.1 
		123.3,20.3 129.8,30.1 140,30.1 128,14 138.7,-0.1 	"/>
</g>
<g id="everson_esign">
	<g>
		<path class="st4" d="M85.1,61.3h-9.5c0.3,2.5,1.5,3.1,3.3,3.1c1.2,0,2.3-0.4,3.6-1.4l2.1,2.8C83.1,67.1,81,68,78.4,68
			c-5.4,0-8-3.4-8-8.2c0-4.6,2.5-8.3,7.5-8.3c4.5,0,7.3,2.9,7.3,8C85.2,60,85.1,60.8,85.1,61.3z M80.1,58.1c0-1.9-0.5-3.2-2.2-3.2
			c-1.4,0-2.1,0.8-2.3,3.4h4.5V58.1z"/>
		<path class="st4" d="M96.9,67.5h-6.1l-4.8-15.5h5.6l2.3,11.7l2.5-11.7h5.3L96.9,67.5z"/>
		<path class="st4" d="M117.2,61.3h-9.5c0.3,2.5,1.5,3.1,3.3,3.1c1.2,0,2.3-0.4,3.6-1.4l2.1,2.8c-1.5,1.2-3.6,2.2-6.2,2.2
			c-5.4,0-8-3.4-8-8.2c0-4.6,2.5-8.3,7.5-8.3c4.5,0,7.3,2.9,7.3,8C117.3,60,117.2,60.8,117.2,61.3z M112.2,58.1
			c0-1.9-0.5-3.2-2.2-3.2c-1.4,0-2.1,0.8-2.3,3.4h4.5V58.1z"/>
		<path class="st4" d="M130.5,51.9l-0.8,5c-0.5-0.1-0.9-0.2-1.4-0.2c-1.9,0-2.6,1.4-3,3.6v7.3h-5.2V52.1h4.5L125,55
			c0.6-2.1,2.2-3.4,3.9-3.4C129.5,51.6,130,51.7,130.5,51.9z"/>
		<path class="st4" d="M143.9,53.5l-1.9,2.8c-1.2-0.7-2.5-1.2-3.7-1.2c-1.1,0-1.6,0.4-1.6,0.9c0,0.7,0.3,1,3.1,1.8
			c3,0.9,4.6,2.1,4.6,4.9c0,3.2-3,5.2-7.1,5.2c-2.7,0-5.1-0.9-6.6-2.3l2.5-2.8c1.1,0.9,2.6,1.5,4,1.5c1.2,0,1.9-0.4,1.9-1.2
			c0-0.9-0.4-1.1-3.1-1.9c-3-0.9-4.5-2.5-4.5-4.9c0-2.7,2.4-4.9,6.5-4.9C140.3,51.5,142.4,52.3,143.9,53.5z"/>
		<path class="st4" d="M161.8,59.8c0,5-2.9,8.2-7.7,8.2c-4.8,0-7.7-3-7.7-8.3c0-5,2.9-8.2,7.7-8.2C158.9,51.5,161.8,54.5,161.8,59.8
			z M151.6,59.8c0,3.2,0.8,4.5,2.4,4.5s2.4-1.4,2.4-4.5c0-3.2-0.8-4.5-2.4-4.5S151.6,56.6,151.6,59.8z"/>
		<path class="st4" d="M178.6,56.2v11.3h-5.2V57.1c0-1.4-0.5-1.8-1.2-1.8c-0.8,0-1.6,0.6-2.3,1.8v10.4h-5.2V52.1h4.5l0.4,1.7
			c1.4-1.5,2.8-2.3,4.7-2.3C177,51.5,178.6,53.2,178.6,56.2z"/>
	</g>
	<g>
		<path class="st4" d="M68.8,85.4h-7.5c0.2,2,1.2,2.4,2.6,2.4c0.9,0,1.8-0.3,2.9-1.1l1.7,2.3c-1.2,1-2.9,1.7-4.9,1.7
			c-4.3,0-6.4-2.7-6.4-6.5c0-3.6,2-6.6,5.9-6.6c3.6,0,5.8,2.3,5.8,6.3C68.8,84.4,68.8,85,68.8,85.4z M64.8,82.9
			c0-1.5-0.4-2.6-1.7-2.6c-1.1,0-1.7,0.6-1.8,2.7h3.6V82.9z"/>
		<path class="st4" d="M80.5,79.2L79,81.5c-0.9-0.6-2-0.9-3-0.9c-0.9,0-1.3,0.3-1.3,0.7c0,0.5,0.2,0.8,2.5,1.4
			c2.4,0.7,3.7,1.7,3.7,3.9c0,2.5-2.4,4.1-5.6,4.1c-2.1,0-4-0.7-5.2-1.9l2-2.2c0.9,0.7,2,1.2,3.2,1.2c1,0,1.5-0.3,1.5-1
			c0-0.7-0.3-0.9-2.5-1.5c-2.3-0.7-3.6-2-3.6-3.9c0-2.2,1.9-3.9,5.2-3.9C77.7,77.7,79.4,78.3,80.5,79.2z"/>
		<path class="st4" d="M87.7,73.7c0,1.3-1,2.3-2.3,2.3c-1.4,0-2.3-1-2.3-2.3s1-2.3,2.3-2.3C86.7,71.5,87.7,72.5,87.7,73.7z
			 M87.4,90.3h-4.1V78.1h4.1V90.3z"/>
		<path class="st4" d="M102.3,78.9c-0.8,0.3-2,0.5-3.5,0.5c1.6,0.6,2.3,1.5,2.3,3.2c0,2.3-2,4.1-5.3,4.1c-0.5,0-0.9,0-1.4-0.1
			c-0.2,0.1-0.3,0.3-0.3,0.6c0,0.3,0.1,0.7,1.3,0.7h1.8c3,0,4.8,1.5,4.8,3.6c0,2.6-2.3,4.1-6.6,4.1c-4.8,0-6-1.6-6-4H93
			c0,1,0.4,1.4,2.5,1.4c2,0,2.4-0.6,2.4-1.2c0-0.6-0.4-1.1-1.5-1.1h-1.7c-2.8,0-4-1.1-4-2.4c0-0.9,0.6-1.9,1.5-2.4
			c-1.6-0.9-2.3-2-2.3-3.5c0-2.9,2.2-4.6,5.6-4.6c2.6,0.1,4.3-0.8,5.8-1.7L102.3,78.9z M94,82.1c0,1.3,0.7,1.9,1.6,1.9
			c1.1,0,1.6-0.6,1.6-1.9c0-1.2-0.5-1.7-1.6-1.7C94.6,80.3,94,81,94,82.1z"/>
		<path class="st4" d="M115.2,81.4v9h-4.1v-8.3c0-1.1-0.4-1.4-0.9-1.4c-0.7,0-1.3,0.5-1.8,1.4v8.3h-4.1V78.1h3.6l0.3,1.4
			c1.1-1.2,2.2-1.8,3.7-1.8C113.9,77.7,115.2,79,115.2,81.4z"/>
	</g>
	
		<text transform="matrix(1 0 0 1 109.0768 170.2679)" style="fill:#FFFFFF;stroke:#663399;stroke-width:0.3641;stroke-miterlimit:10; font-family:'FiraSans-ExtraBold'; font-size:29px;">everson</text>
	
		<text transform="matrix(1 0 0 1 96.3062 192.8367)" style="fill:#FFFFFF;stroke:#663399;stroke-width:0.3641;stroke-miterlimit:10; font-family:'FiraSans-ExtraBold'; font-size:23px;">esign</text>
</g>
<g id="two_row_ui_ux_designer_1_">
	<g>
		<path class="st5" d="M116,12.1v5.7c0,0.3,0,0.6,0,0.9c0,0.3,0.1,0.6,0.2,0.9c0.1,0.3,0.3,0.5,0.6,0.6s0.6,0.2,1.1,0.2
			s0.8-0.1,1.1-0.2c0.2-0.2,0.4-0.4,0.6-0.6c0.1-0.3,0.2-0.6,0.2-0.9c0-0.3,0-0.6,0-0.9v-5.7h2.7v6.1c0,1.6-0.4,2.8-1.1,3.6
			c-0.8,0.8-1.9,1.1-3.5,1.1s-2.7-0.4-3.5-1.1c-0.8-0.8-1.1-2-1.1-3.6v-6.1H116z"/>
		<path class="st5" d="M127.4,12.1v10.6h-2.7V12.1H127.4z"/>
		<path class="st5" d="M134.3,11.1h2l-5.8,14h-2L134.3,11.1z"/>
		<path class="st5" d="M140.2,12.1v5.7c0,0.3,0,0.6,0,0.9c0,0.3,0.1,0.6,0.2,0.9c0.1,0.3,0.3,0.5,0.6,0.6s0.6,0.2,1.1,0.2
			s0.8-0.1,1.1-0.2c0.2-0.2,0.4-0.4,0.6-0.6c0.1-0.3,0.2-0.6,0.2-0.9c0-0.3,0-0.6,0-0.9v-5.7h2.7v6.1c0,1.6-0.4,2.8-1.1,3.6
			c-0.8,0.8-1.9,1.1-3.5,1.1s-2.7-0.4-3.5-1.1c-0.8-0.8-1.1-2-1.1-3.6v-6.1H140.2z"/>
		<path class="st5" d="M151.9,17l-3.3-4.9h3.4l1.4,2.7l1.8-2.7h3.4l-3.5,4.9l3.9,5.6h-3.3l-2.1-3.4l-2.5,3.4h-3.3L151.9,17z"/>
		<path class="st5" d="M113.3,28.9h4.1c0.7,0,1.4,0.1,2,0.4c0.6,0.3,1.2,0.7,1.7,1.2c0.5,0.5,0.8,1,1.1,1.7c0.3,0.6,0.4,1.3,0.4,2
			c0,0.7-0.1,1.4-0.4,2c-0.3,0.6-0.6,1.2-1.1,1.7c-0.5,0.5-1,0.9-1.7,1.2c-0.6,0.3-1.3,0.4-2,0.4h-4.1V28.9z M116,37.2h0.6
			c0.5,0,0.9-0.1,1.3-0.2s0.7-0.4,0.9-0.6s0.5-0.6,0.6-0.9c0.1-0.4,0.2-0.8,0.2-1.2c0-0.4-0.1-0.8-0.2-1.2c-0.1-0.4-0.3-0.7-0.6-0.9
			c-0.3-0.3-0.6-0.5-0.9-0.6c-0.4-0.1-0.8-0.2-1.3-0.2H116V37.2z"/>
		<path class="st5" d="M126.3,36.3c0,1.1,0.5,1.6,1.5,1.6c0.5,0,1-0.2,1.2-0.7h2.5c-0.5,1.6-1.7,2.5-3.7,2.5c-0.6,0-1.2-0.1-1.7-0.3
			c-0.5-0.2-0.9-0.4-1.3-0.8s-0.6-0.7-0.8-1.2s-0.3-1-0.3-1.6c0-0.6,0.1-1.1,0.3-1.6c0.2-0.5,0.5-0.9,0.8-1.2
			c0.3-0.3,0.8-0.6,1.3-0.8c0.5-0.2,1-0.3,1.7-0.3c0.6,0,1.2,0.1,1.6,0.3c0.5,0.2,0.9,0.4,1.2,0.8s0.6,0.8,0.8,1.3
			c0.2,0.5,0.3,1.1,0.3,1.7v0.3H126.3z M129.3,34.8c-0.1-0.4-0.3-0.6-0.5-0.9c-0.3-0.2-0.6-0.3-1-0.3c-0.4,0-0.7,0.1-1,0.3
			c-0.2,0.2-0.4,0.5-0.5,0.9H129.3z"/>
		<path class="st5" d="M137.9,34.1c-0.5-0.2-0.9-0.4-1.4-0.4c-0.2,0-0.4,0-0.6,0.1c-0.1,0.1-0.2,0.2-0.2,0.4c0,0.1,0,0.2,0,0.2
			s0.1,0.1,0.2,0.1c0.1,0,0.2,0.1,0.3,0.1c0.2,0,0.4,0.1,0.6,0.1c0.7,0.1,1.2,0.4,1.6,0.7c0.3,0.4,0.5,0.8,0.5,1.4
			c0,0.4-0.1,0.8-0.3,1.1c-0.2,0.3-0.4,0.6-0.7,0.8c-0.3,0.2-0.7,0.4-1.1,0.5s-0.9,0.2-1.4,0.2c-1,0-1.9-0.3-2.9-0.8l0.9-1.8
			c0.7,0.5,1.4,0.7,2,0.7c0.2,0,0.4-0.1,0.6-0.2s0.2-0.2,0.2-0.4c0-0.1,0-0.2,0-0.2s-0.1-0.1-0.1-0.2c-0.1-0.1-0.2-0.1-0.3-0.1
			c-0.1,0-0.3-0.1-0.6-0.1c-0.8-0.2-1.3-0.4-1.6-0.7c-0.3-0.3-0.5-0.7-0.5-1.3c0-0.4,0.1-0.8,0.2-1.1c0.1-0.3,0.4-0.6,0.6-0.8
			s0.6-0.4,1-0.5c0.4-0.1,0.8-0.2,1.3-0.2c0.8,0,1.6,0.2,2.3,0.5L137.9,34.1z"/>
		<path class="st5" d="M140.1,29.5c0-0.2,0-0.4,0.1-0.6c0.1-0.2,0.2-0.3,0.3-0.5c0.1-0.1,0.3-0.2,0.5-0.3s0.4-0.1,0.6-0.1
			s0.4,0,0.6,0.1s0.3,0.2,0.5,0.3c0.1,0.1,0.2,0.3,0.3,0.5c0.1,0.2,0.1,0.4,0.1,0.6c0,0.2,0,0.4-0.1,0.6c-0.1,0.2-0.2,0.3-0.3,0.5
			c-0.1,0.1-0.3,0.2-0.5,0.3s-0.4,0.1-0.6,0.1s-0.4,0-0.6-0.1s-0.3-0.2-0.5-0.3c-0.1-0.1-0.2-0.3-0.3-0.5
			C140.1,29.9,140.1,29.7,140.1,29.5z M142.8,32.3v7.2h-2.5v-7.2H142.8z"/>
		<path class="st5" d="M152.5,32.3V39c0,0.4,0,0.8-0.1,1.1s-0.1,0.6-0.2,0.8c-0.1,0.3-0.3,0.6-0.5,0.9c-0.2,0.3-0.5,0.5-0.9,0.7
			c-0.3,0.2-0.7,0.4-1.1,0.5c-0.4,0.1-0.9,0.2-1.4,0.2c-0.6,0-1.1-0.1-1.5-0.2c-0.5-0.1-0.9-0.3-1.2-0.6c-0.3-0.2-0.6-0.5-0.9-0.9
			c-0.2-0.3-0.4-0.7-0.4-1.1h2.9c0.2,0.5,0.6,0.7,1.2,0.7c0.5,0,0.9-0.1,1.2-0.4c0.3-0.3,0.4-0.7,0.4-1.2v-0.7
			c-0.2,0.2-0.4,0.3-0.5,0.4s-0.3,0.2-0.5,0.3c-0.2,0.1-0.4,0.1-0.6,0.2s-0.4,0-0.6,0c-0.5,0-1-0.1-1.4-0.3
			c-0.4-0.2-0.8-0.4-1.1-0.7c-0.3-0.3-0.6-0.7-0.7-1.1s-0.3-0.9-0.3-1.5c0-0.6,0.1-1.1,0.3-1.5c0.2-0.5,0.4-0.9,0.8-1.2
			s0.7-0.6,1.1-0.8c0.4-0.2,0.9-0.3,1.4-0.3c0.8,0,1.6,0.3,2.1,1v-0.8H152.5z M146.8,35.8c0,0.2,0,0.5,0.1,0.7s0.2,0.4,0.3,0.5
			c0.1,0.1,0.3,0.3,0.5,0.4c0.2,0.1,0.4,0.1,0.7,0.1c0.2,0,0.4,0,0.6-0.1c0.2-0.1,0.4-0.2,0.5-0.4c0.1-0.1,0.3-0.3,0.4-0.5
			c0.1-0.2,0.1-0.4,0.1-0.6c0-0.2,0-0.4-0.1-0.6c-0.1-0.2-0.2-0.4-0.4-0.5s-0.3-0.3-0.5-0.4c-0.2-0.1-0.4-0.1-0.6-0.1
			c-0.2,0-0.4,0-0.6,0.1c-0.2,0.1-0.4,0.2-0.5,0.4c-0.1,0.1-0.3,0.3-0.4,0.5C146.9,35.4,146.8,35.6,146.8,35.8z"/>
		<path class="st5" d="M154.3,32.3h2.5v0.9c0.3-0.4,0.7-0.7,1-0.8c0.4-0.1,0.8-0.2,1.2-0.2c0.5,0,0.9,0.1,1.3,0.2
			c0.4,0.2,0.7,0.4,0.9,0.7c0.2,0.2,0.3,0.5,0.4,0.8c0.1,0.3,0.1,0.6,0.1,1v4.6h-2.5v-3.6c0-0.4,0-0.6-0.1-0.9
			c-0.1-0.2-0.1-0.4-0.3-0.5c-0.1-0.1-0.2-0.2-0.4-0.2c-0.1,0-0.3-0.1-0.4-0.1c-0.4,0-0.8,0.1-1,0.4c-0.2,0.3-0.3,0.6-0.3,1.1v3.8
			h-2.5V32.3z"/>
		<path class="st5" d="M165.8,36.3c0,1.1,0.5,1.6,1.5,1.6c0.5,0,1-0.2,1.2-0.7h2.5c-0.5,1.6-1.7,2.5-3.7,2.5c-0.6,0-1.2-0.1-1.7-0.3
			c-0.5-0.2-0.9-0.4-1.3-0.8s-0.6-0.7-0.8-1.2s-0.3-1-0.3-1.6c0-0.6,0.1-1.1,0.3-1.6c0.2-0.5,0.5-0.9,0.8-1.2
			c0.3-0.3,0.8-0.6,1.3-0.8c0.5-0.2,1-0.3,1.7-0.3c0.6,0,1.2,0.1,1.6,0.3c0.5,0.2,0.9,0.4,1.2,0.8s0.6,0.8,0.8,1.3
			c0.2,0.5,0.3,1.1,0.3,1.7v0.3H165.8z M168.8,34.8c-0.1-0.4-0.3-0.6-0.5-0.9c-0.3-0.2-0.6-0.3-1-0.3c-0.4,0-0.7,0.1-1,0.3
			c-0.2,0.2-0.4,0.5-0.5,0.9H168.8z"/>
		<path class="st5" d="M172.6,32.3h2.5v1.2c0.3-0.4,0.6-0.8,1-1c0.4-0.2,0.8-0.3,1.4-0.3c0.1,0,0.1,0,0.2,0c0.1,0,0.2,0,0.3,0v2.4
			c-0.3-0.2-0.7-0.3-1.1-0.3c-0.6,0-1,0.2-1.3,0.5c-0.3,0.3-0.4,0.9-0.4,1.5v3.1h-2.5V32.3z"/>
	</g>
	<text transform="matrix(1 0 0 1 131.6539 -66.4994)"><tspan x="0" y="0" style="stroke:#663399;stroke-width:0.25;stroke-miterlimit:10; font-family:'Futura-Bold'; font-size:14px;">UI/UX</tspan><tspan x="0" y="16.8" style="stroke:#663399;stroke-width:0.25;stroke-miterlimit:10; font-family:'Futura-Bold'; font-size:14px;">Designer</tspan></text>
	<rect x="-125.8" y="-6.1" class="st6" width="101" height="70.5"/>
</g>
<g id="SD_1_">
	<g id="SD">
		<g id="everson_esigns_2_">
			<path class="st4" d="M29.6,67.5v-1.4c0-0.6-0.3-1.2-0.8-1.6c-0.5-0.5-1.1-0.6-1.8-0.6h-0.5v-0.4h14.7c4.6-0.2,8.3,1.1,11.1,3.7
				c1,0.9,1.8,1.9,2.4,3h0c0.7,1.2,1.2,2.4,1.4,3.8c0.2,1.1,0.3,2.2,0.3,3.4c0,4.4-1.4,7.8-4.2,10.3c-2.7,2.5-6.6,3.8-11.3,3.8H26.4
				v-0.4H27c0.7,0,1.3-0.3,1.8-0.7c0.5-0.5,0.7-1.1,0.8-1.8V74.2 M35.7,75.3v14.5h4.8c1.9,0,3.6-0.5,5-1.5s2.5-2.5,3.3-4.3
				c0.7-1.8,1.1-3.9,1.1-6.1c0-0.9,0-1.7-0.1-2.4c-0.1-1.2-0.3-2.2-0.5-3.2c-0.1-0.5-0.3-1-0.5-1.5c-0.4-0.9-0.9-1.7-1.4-2.4
				c-1.6-2.2-3.9-3.4-6.8-3.4h-4.9v4.4"/>
			<path class="st4" d="M29.6,67.5v6.7c-3.4-1-6.6-2.5-9.6-4.7c-4.1-3-6.2-8-6.2-15.2c0-0.4,0-3.3,0.9-6.2c0.5-1.5,1.8-3.2,3.4-4.1
				c-0.8,0.9-1.3,1.8-1.5,2.9c-0.4,1.9-0.4,4-0.4,4c0,5.8,3,10.6,9,14.3C26.6,66,28,66.8,29.6,67.5z"/>
			<path class="st4" d="M69.1,54.2c0,0.5-0.1,2.7-0.2,3.3c-0.5,4.6-2.6,8.7-6.3,12.6c-1.6,1.7-3.8,3-6.4,4c-1.9,0.7-4,1.1-6.3,1.4
				c-1.8,0.2-3.8,0.3-5.9,0.3c-1.5,0-3.2-0.1-5-0.2c-1-0.1-2.1-0.2-3.2-0.3v-5.9c3.7,0.9,7.8,1.3,12.3,1.3c0.3,0,0.5,0,0.8,0
				c2.2,0,4.2-0.2,5.9-0.6h0c2.5-0.5,4.5-1.3,6-2.5c2.7-2.1,4-5.2,4-9.3c0-5.5-2.2-9-6.6-10.8c-4.4-1.7-26.6-7-31.2-9.1
				c-4.6-2.1-7-6.3-7-12.6c0-4,1.4-7.5,4.2-10.4c2.8-2.9,6.1-4.4,9.8-4.4L58.3,11c0.1,1.4,0.5,2.8,1,4c0.9,1.9,3.6,6.5,4.2,7.7
				c0.6,1.1,1,2.4,1.4,3.7c-0.8-0.9-1.5-1.7-2.3-2.5c-0.7-0.8-1.5-1.5-2.3-2.2c-3.2-2.9-6.6-5.2-10.3-6.6c-3.7-1.4-8-2.1-13.2-2.1
				c-4.8,0-8.3,1-10.3,2.9c-2,2-3,4.3-3,6.8c0,4.1,1.9,6.8,5.7,8.3s28,7,32.8,9.5C66.7,42.9,69.1,47.4,69.1,54.2z"/>
		</g>
	</g>
	<g>
		<path class="st7" d="M-48.5-4c-4.8-2.5-29-8-32.8-9.5c-3.8-1.5-5.7-4.2-5.7-8.3c0-2.5,1-4.8,3-6.8c2-1.9,5.5-2.9,10.3-2.9
			c5.2,0,9.5,0.7,13.2,2.1s7,3.7,10.3,6.6c0.8,0.7,1.6,1.4,2.3,2.2c0.8,0.8,1.5,1.6,2.3,2.5c-0.4-1.3-0.8-2.5-1.4-3.7
			c-0.6-1.2-3.3-5.8-4.2-7.7c-0.5-1.2-0.9-2.6-1-4l-24.4,0.1c-3.7,0-7,1.5-9.8,4.4c-2.8,2.9-4.2,6.4-4.2,10.4c0,6.3,2.4,10.5,7,12.6
			c4.6,2.1,26.8,7.4,31.2,9.1c4.4,1.8,6.6,5.3,6.6,10.8c0,4.1-1.3,7.2-4,9.3c-1.5,1.2-3.5,2-6,2.5h0c-0.6-1.1-1.4-2.1-2.4-3
			c-2.8-2.6-6.5-3.9-11.1-3.7H-84v0.4h0.5c0.7,0,1.3,0.1,1.8,0.6c0.5,0.4,0.8,1,0.8,1.6V23c-1.6-0.7-3-1.4-4.4-2.3
			c-6-3.7-9-8.5-9-14.3c0,0,0-2.1,0.4-4c0.2-1.1,0.7-2,1.5-2.9c-1.6,0.9-2.9,2.6-3.4,4.1c-0.9,2.9-0.9,5.8-0.9,6.2
			c0,7.2,2.1,12.2,6.2,15.2c3,2.2,6.2,3.7,9.6,4.7v14.5c-0.1,0.7-0.3,1.3-0.8,1.8c-0.5,0.4-1.1,0.7-1.8,0.7h-0.6v0.4h14.6
			c4.7,0,8.6-1.3,11.3-3.8c2.8-2.5,4.2-5.9,4.2-10.3c0-1.2-0.1-2.4-0.4-3.4c2.7-0.9,4.8-2.3,6.5-4c3.7-3.9,5.8-8,6.3-12.6
			c0.1-0.6,0.2-2.8,0.2-3.3C-41.4,2.9-43.8-1.6-48.5-4z M-74.8,20.5h4.9c2.9,0,5.2,1.2,6.8,3.4c0.5,0.7,1,1.5,1.4,2.4
			c-0.2,0-0.5,0-0.8,0c-4.5,0-8.6-0.5-12.3-1.4V20.5z M-61.7,39.5c-0.8,1.8-1.9,3.3-3.3,4.3c-1.4,1-3.1,1.5-5,1.5h-4.8V30.8
			c1.1,0.1,2.2,0.2,3.2,0.3c1.8,0.1,3.5,0.2,5,0.2c2.1,0,4.1-0.1,5.9-0.3c0.1,0.8,0.1,1.6,0.1,2.4C-60.6,35.6-61,37.7-61.7,39.5z"/>
	</g>
	<g id="SD_2_">
		<g id="everson_esigns_1_">
			<path class="st8" d="M277,28v-1.4c0-0.6-0.3-1.2-0.8-1.6c-0.5-0.5-1.1-0.6-1.8-0.6h-0.5v-0.4h14.7c4.6-0.2,8.3,1.1,11.1,3.7
				c1,0.9,1.8,1.9,2.4,3h0c0.7,1.1,1.1,2.4,1.4,3.8c0.2,1.1,0.4,2.2,0.4,3.4c0,4.4-1.4,7.8-4.2,10.3c-2.7,2.5-6.6,3.8-11.3,3.8
				h-14.6v-0.4h0.6c0.7,0,1.3-0.3,1.8-0.7c0.5-0.5,0.7-1.1,0.8-1.8V34.8 M283.1,35.9v14.5h4.8c1.9,0,3.6-0.5,5-1.5s2.5-2.5,3.3-4.3
				c0.7-1.8,1.1-3.9,1.1-6.1c0-0.9,0-1.7-0.1-2.4c-0.1-1.2-0.3-2.2-0.5-3.2c-0.1-0.5-0.3-1-0.5-1.5c-0.4-0.9-0.8-1.7-1.4-2.4
				c-1.6-2.2-3.9-3.4-6.8-3.4h-4.9V30"/>
			<path class="st8" d="M277,28v6.7c-3.4-1-6.6-2.5-9.6-4.7c-4.1-3-6.2-8-6.2-15.2c0-0.4,0-3.3,0.9-6.2c0.5-1.5,1.8-3.2,3.4-4.1
				c-0.8,0.9-1.3,1.8-1.5,2.9c-0.4,1.9-0.4,4-0.4,4c0,5.8,3,10.6,9,14.3C274,26.6,275.5,27.4,277,28z"/>
			<path class="st8" d="M316.5,14.8c0,0.5-0.1,2.7-0.2,3.3c-0.5,4.6-2.6,8.7-6.3,12.6c-1.6,1.7-3.8,3-6.4,4c-1.9,0.7-4,1.1-6.3,1.4
				c-1.8,0.2-3.8,0.3-5.9,0.3c-1.5,0-3.2-0.1-5-0.2c-1-0.1-2.1-0.2-3.2-0.3V30c3.7,0.9,7.8,1.3,12.3,1.3c0.3,0,0.5,0,0.8,0
				c2.2,0,4.2-0.2,5.9-0.6h0c2.5-0.5,4.5-1.3,6-2.5c2.7-2.1,4-5.2,4-9.3c0-5.5-2.2-9-6.6-10.8c-4.4-1.7-26.6-7-31.2-9.1
				c-4.6-2.1-7-6.3-7-12.6c0-4,1.4-7.5,4.2-10.4c2.8-2.9,6.1-4.4,9.8-4.4l24.4-0.1c0.1,1.4,0.5,2.8,1,4c0.9,1.9,3.6,6.5,4.2,7.7
				c0.6,1.1,1,2.4,1.4,3.7c-0.8-0.9-1.5-1.7-2.3-2.5c-0.7-0.8-1.5-1.5-2.3-2.2c-3.2-2.9-6.6-5.2-10.3-6.6c-3.7-1.4-8-2.1-13.2-2.1
				c-4.8,0-8.3,1-10.3,2.9c-2,2-3,4.3-3,6.8c0,4.1,1.9,6.8,5.7,8.3s28,7,32.8,9.5C314.1,3.5,316.5,8,316.5,14.8z"/>
		</g>
	</g>
	<rect x="-184.6" y="-22.8" class="st9" width="40.3" height="37.8"/>
</g>
</svg>
