<?xml version="1.0" encoding="utf-8"?>
<!-- Generator: Adobe Illustrator 25.2.1, SVG Export Plug-In . SVG Version: 6.00 Build 0)  -->
<!DOCTYPE svg PUBLIC "-//W3C//DTD SVG 1.1//EN" "http://www.w3.org/Graphics/SVG/1.1/DTD/svg11.dtd" [
	<!ENTITY ns_extend "http://ns.adobe.com/Extensibility/1.0/">
	<!ENTITY ns_ai "http://ns.adobe.com/AdobeIllustrator/10.0/">
	<!ENTITY ns_graphs "http://ns.adobe.com/Graphs/1.0/">
	<!ENTITY ns_vars "http://ns.adobe.com/Variables/1.0/">
	<!ENTITY ns_imrep "http://ns.adobe.com/ImageReplacement/1.0/">
	<!ENTITY ns_sfw "http://ns.adobe.com/SaveForWeb/1.0/">
	<!ENTITY ns_custom "http://ns.adobe.com/GenericCustomNamespace/1.0/">
	<!ENTITY ns_adobe_xpath "http://ns.adobe.com/XPath/1.0/">
]>
<svg version="1.1" id="Severson_Design_Logo" xmlns:x="&ns_extend;" xmlns:i="&ns_ai;" xmlns:graph="&ns_graphs;"
	 xmlns="http://www.w3.org/2000/svg" xmlns:xlink="http://www.w3.org/1999/xlink" x="0px" y="0px" viewBox="0 0 200 104"
	 style="enable-background:new 0 0 200 104;" xml:space="preserve">
<style type="text/css">
	.st0{fill:url(#background_1_);}
	.st1{enable-background:new    ;}
	.st2{fill:#6F89D6;}
	.st3{opacity:0.15;}
	.st4{fill:#FFFFFF;stroke:#FFFFFF;stroke-width:1.9566;stroke-miterlimit:10;}
	.st5{fill:#FFFFFF;}
	.st6{fill:#FFFFFF;stroke:#663399;stroke-width:0.3594;stroke-miterlimit:10;}
</style>
<metadata>
	<sfw  xmlns="&ns_sfw;">
		<slices></slices>
		<sliceSourceBounds  bottomLeftOrigin="true" height="104" width="200" x="0" y="0"></sliceSourceBounds>
	</sfw>
</metadata>
<linearGradient id="background_1_" gradientUnits="userSpaceOnUse" x1="100" y1="-3973.4321" x2="100" y2="-4141.7432" gradientTransform="matrix(1 0 0 -1 0 -4010)">
	<stop  offset="2.145177e-02" style="stop-color:#6F89D6"/>
	<stop  offset="0.3466" style="stop-color:#6F89D6"/>
	<stop  offset="0.3864" style="stop-color:#6D7ACC"/>
	<stop  offset="0.4859" style="stop-color:#6A5BB6"/>
	<stop  offset="0.5828" style="stop-color:#6845A6"/>
	<stop  offset="0.6751" style="stop-color:#66389C"/>
	<stop  offset="0.7576" style="stop-color:#663399"/>
	<stop  offset="0.9927" style="stop-color:#663399"/>
</linearGradient>
<path id="background" class="st0" d="M200,94c0,5.5-4.5,10-10,10H0V10C0,4.5,4.5,0,10,0l190,0.1V94z"/>
<g id="App_and_Web" class="st1">
	<path class="st2" d="M141.5,94.9l-0.7,1.4h-1l3.3-6.5l2.1,6.5h-0.9l-0.4-1.4H141.5z M141.9,94.2h1.7L143,92L141.9,94.2z"/>
	<path class="st2" d="M147.1,92.7v0.4c0.4-0.3,0.8-0.5,1.2-0.5c0.5,0,0.9,0.2,1.2,0.5s0.5,0.8,0.5,1.3c0,0.6-0.2,1.1-0.6,1.5
		c-0.4,0.4-0.8,0.6-1.4,0.6c-0.3,0-0.5,0-0.7-0.1s-0.4-0.2-0.6-0.5l-0.3,2.6h-0.9l0.7-5.8H147.1z M149.1,94.4c0-0.3-0.1-0.6-0.3-0.8
		c-0.2-0.2-0.4-0.3-0.7-0.3s-0.6,0.1-0.9,0.4s-0.4,0.6-0.4,0.9s0.1,0.6,0.3,0.8c0.2,0.2,0.5,0.3,0.8,0.3s0.6-0.1,0.8-0.4
		C149,95.1,149.1,94.8,149.1,94.4z"/>
	<path class="st2" d="M152,92.7v0.4c0.4-0.3,0.8-0.5,1.2-0.5c0.5,0,0.9,0.2,1.2,0.5s0.5,0.8,0.5,1.3c0,0.6-0.2,1.1-0.6,1.5
		c-0.4,0.4-0.8,0.6-1.4,0.6c-0.3,0-0.5,0-0.7-0.1s-0.4-0.2-0.6-0.5l-0.3,2.6h-0.9l0.7-5.8H152z M154,94.4c0-0.3-0.1-0.6-0.3-0.8
		c-0.2-0.2-0.4-0.3-0.7-0.3s-0.6,0.1-0.9,0.4s-0.4,0.6-0.4,0.9s0.1,0.6,0.3,0.8c0.2,0.2,0.5,0.3,0.8,0.3s0.6-0.1,0.8-0.4
		C153.9,95.1,154,94.8,154,94.4z"/>
	<path class="st2" d="M162.1,92.7l-0.5,3.7h-0.9l0.1-0.4c-0.4,0.3-0.8,0.5-1.1,0.5c-0.5,0-0.9-0.2-1.2-0.5s-0.5-0.8-0.5-1.3
		c0-0.6,0.2-1.1,0.5-1.5c0.4-0.4,0.8-0.6,1.4-0.6c0.3,0,0.5,0,0.7,0.1s0.4,0.2,0.6,0.4l0.1-0.5h0.8L162.1,92.7L162.1,92.7z
		 M161.1,94.4c0-0.3-0.1-0.6-0.3-0.8c-0.2-0.2-0.4-0.3-0.7-0.3s-0.6,0.1-0.8,0.4s-0.3,0.6-0.3,0.9s0.1,0.6,0.3,0.8
		c0.2,0.2,0.4,0.3,0.7,0.3s0.6-0.1,0.8-0.4C161,95.1,161.1,94.8,161.1,94.4z"/>
	<path class="st2" d="M164.2,92.7V93c0.3-0.3,0.7-0.4,1-0.4c0.4,0,0.6,0.1,0.9,0.3c0.2,0.2,0.3,0.5,0.3,0.8c0,0.2,0,0.4,0,0.7
		l-0.2,2h-0.9l0.3-2.2c0-0.1,0-0.2,0-0.2s0-0.1,0-0.2c0-0.3-0.2-0.5-0.5-0.5c-0.2,0-0.4,0.1-0.6,0.2c-0.1,0.1-0.2,0.2-0.3,0.4
		c0,0.1-0.1,0.2-0.1,0.3s0,0.2-0.1,0.4l-0.2,1.8h-0.9l0.5-3.7L164.2,92.7L164.2,92.7z"/>
	<path class="st2" d="M171.8,89.8l-0.8,6.6h-0.9V96c-0.2,0.2-0.4,0.3-0.6,0.4c-0.2,0.1-0.3,0.1-0.6,0.1c-0.5,0-0.9-0.2-1.3-0.5
		c-0.3-0.3-0.5-0.8-0.5-1.3c0-0.6,0.2-1.1,0.5-1.4s0.8-0.6,1.4-0.6c0.3,0,0.5,0,0.7,0.1s0.4,0.3,0.6,0.5l0.4-3.5
		C170.7,89.8,171.8,89.8,171.8,89.8z M170.4,94.4c0-0.3-0.1-0.6-0.3-0.8c-0.2-0.2-0.4-0.3-0.8-0.3c-0.3,0-0.6,0.1-0.8,0.4
		s-0.3,0.6-0.3,1c0,0.3,0.1,0.6,0.3,0.8c0.2,0.2,0.4,0.3,0.8,0.3c0.3,0,0.6-0.1,0.8-0.4C170.3,95.1,170.4,94.8,170.4,94.4z"/>
	<path class="st2" d="M183.1,90.3l-3.2,6.3l-1.2-4.2l-2.1,4.3l-1.9-6.4h0.9l1.1,4.1l2.1-4.3l1.2,4.2l2-4H183.1z"/>
	<path class="st2" d="M183.5,94.8c0,0.3,0.1,0.5,0.3,0.7s0.4,0.3,0.7,0.3c0.4,0,0.7-0.2,0.9-0.5l0.6,0.4c-0.2,0.3-0.5,0.5-0.7,0.6
		s-0.5,0.2-0.9,0.2c-0.6,0-1-0.2-1.4-0.5c-0.3-0.3-0.5-0.8-0.5-1.3c0-0.6,0.2-1.1,0.6-1.5c0.4-0.4,0.8-0.6,1.4-0.6
		c0.5,0,1,0.2,1.3,0.5c0.3,0.4,0.5,0.8,0.5,1.4c0,0.1,0,0.2,0,0.3H183.5z M185.5,94.1c-0.1-0.6-0.4-0.9-0.9-0.9s-0.8,0.3-1,0.9
		H185.5z"/>
	<path class="st2" d="M188.8,89.8l-0.4,3.3c0.2-0.2,0.4-0.3,0.6-0.3c0.2-0.1,0.4-0.1,0.6-0.1c0.5,0,0.9,0.2,1.2,0.5s0.5,0.8,0.5,1.3
		c0,0.6-0.2,1.1-0.6,1.4c-0.4,0.4-0.8,0.6-1.4,0.6c-0.5,0-0.9-0.2-1.3-0.6l-0.1,0.5H187l0.8-6.6C187.8,89.8,188.8,89.8,188.8,89.8z
		 M190.4,94.4c0-0.3-0.1-0.6-0.3-0.8s-0.4-0.3-0.8-0.3c-0.3,0-0.6,0.1-0.8,0.4c-0.2,0.2-0.3,0.6-0.3,0.9s0.1,0.6,0.3,0.8
		c0.2,0.2,0.4,0.3,0.7,0.3s0.6-0.1,0.8-0.4C190.3,95.1,190.4,94.8,190.4,94.4z"/>
</g>
<g id="UI_x2F_UX">
	<g class="st3">
		<path class="st4" d="M74,9h5.6v31.2c0,3.2,0.3,5.3,0.8,6.3c0.6,1,1.7,1.6,3.4,1.6c1.7,0,2.8-0.4,3.2-1.3c0.6-0.9,0.8-2.8,0.8-5.7
			V9h5.6v32.1c0,4.8-0.7,8.1-2.1,9.8c-1.7,1.9-4.2,2.9-7.7,2.9c-3.8,0-6.4-1.2-8-3.7c-1.1-1.8-1.7-5-1.7-9.8C74,40.4,74,9,74,9z"/>
		<path class="st4" d="M99.9,9h5.7v44.2h-5.7V9z"/>
		<path class="st4" d="M138.9,9h5.6v31.2c0,3.2,0.3,5.3,0.8,6.3c0.6,1,1.7,1.6,3.4,1.6s2.8-0.4,3.2-1.3c0.6-0.9,0.8-2.8,0.8-5.7V9
			h5.6v32.1c0,4.8-0.7,8.1-2.1,9.8c-1.7,1.9-4.2,2.9-7.7,2.9c-3.8,0-6.4-1.2-8-3.7c-1.1-1.8-1.7-5-1.7-9.8L138.9,9L138.9,9z"/>
		<path class="st4" d="M161.9,9h5.5l2.9,8.5c1.1,3.4,1.8,5.9,2.1,7.5c0.1-1,0.4-1.9,0.7-2.8s0.6-1.8,0.8-2.8l0.4-1.3L177,9h5.7
			l-7.8,21.7l7.8,22.4H177l-2.8-8.4c-0.6-1.6-1-3.2-1.4-4.5c-0.3-1.3-0.6-2.5-0.7-3.5c-0.1,1.3-0.4,2.5-0.7,3.7l-1,3.1l-0.6,1.6
			l-2.4,8.1h-6l8-22.4L161.9,9z"/>
	</g>
	<g class="st3">
		<polygon class="st5" points="129.3,9 110.5,54.2 115,54.2 133.8,9 		"/>
	</g>
</g>
<g id="Logo">
	<path class="st6" d="M31,66.7v-1.4c0-0.6-0.3-1.2-0.8-1.6c-0.5-0.5-1.1-0.6-1.8-0.6h-0.5v-0.4H43c4.7-0.2,8.5,1.1,11.4,3.8
		c1,0.9,1.8,2,2.5,3.1l0,0c0.7,1.2,1.2,2.5,1.4,3.9c0.2,1.1,0.3,2.3,0.3,3.5c0,4.5-1.4,8-4.3,10.6c-2.8,2.6-6.8,3.9-11.6,3.9h-15V91
		h0.6c0.7,0,1.3-0.3,1.8-0.7c0.5-0.5,0.7-1.1,0.8-1.8V73.6 M37.3,74.8v14.9h4.9c2,0,3.7-0.5,5.1-1.5s2.6-2.6,3.4-4.4
		c0.7-1.8,1.1-4,1.1-6.3c0-0.9,0-1.7-0.1-2.5c-0.1-1.2-0.3-2.3-0.5-3.3c-0.1-0.5-0.3-1-0.5-1.5c-0.4-0.9-0.9-1.7-1.4-2.5
		c-1.6-2.3-4-3.5-7-3.5h-5v4.5"/>
	<path class="st6" d="M31,66.7l-0.1,6.9c-3.5-1-6.7-2.6-9.8-4.8c-4.2-3.1-6.4-8.2-6.4-15.6c0-0.4,0-3.4,0.9-6.4
		c0.5-1.5,1.8-3.3,3.5-4.2c-0.8,0.9-1.3,1.8-1.5,3c-0.4,2-0.4,4.1-0.4,4.1c0,6,3.1,10.9,9.2,14.7C27.9,65.2,29.4,66,31,66.7z"/>
	<path class="st6" d="M71.6,53.1c0,0.5-0.1,2.8-0.2,3.4c-0.5,4.7-2.7,8.9-6.5,12.9c-1.6,1.7-3.9,3.1-6.6,4.1c-2,0.7-4.1,1.1-6.5,1.4
		c-1.8,0.2-3.9,0.3-6.1,0.3c-1.5,0-3.3-0.1-5.1-0.2c-1-0.1-2.2-0.2-3.3-0.3v-6.1c3.8,0.9,8,1.3,12.6,1.3c0.3,0,0.5,0,0.8,0
		c2.3,0,4.3-0.2,6.1-0.6l0,0c2.6-0.5,4.6-1.3,6.2-2.6c2.8-2.2,4.1-5.3,4.1-9.6c0-5.6-2.3-9.2-6.8-11.1c-4.5-1.7-27.3-7.2-32-9.3
		s-7.2-6.5-7.2-12.9c0-4.1,1.4-7.7,4.3-10.7s6.3-4.5,10.1-4.5h25c0.1,1.4,0.5,2.9,1,4.1c0.9,2,3.7,6.7,4.3,7.9
		c0.6,1.1,1,2.5,1.4,3.8c-0.8-0.9-1.5-1.7-2.4-2.6c-0.7-0.8-1.5-1.5-2.4-2.3c-3.3-3-6.8-5.3-10.6-6.8s-8.2-2.2-13.6-2.2
		c-4.9,0-8.5,1-10.6,3c-2.1,2.1-3.1,4.4-3.1,7c0,4.2,2,7,5.9,8.5s28.8,7.2,33.7,9.8C69.1,41.5,71.6,46.1,71.6,53.1z"/>
	<path class="st6" d="M88,61.4h-9.8c0.3,2.6,1.5,3.2,3.4,3.2c1.2,0,2.4-0.4,3.7-1.4l2.2,2.9c-1.5,1.3-3.7,2.3-6.4,2.3
		c-5.5,0-8.2-3.5-8.2-8.4c0-4.7,2.6-8.5,7.7-8.5c4.6,0,7.5,3,7.5,8.2C88.1,60,88,60.9,88,61.4z M82.9,58.1c0-2-0.5-3.3-2.3-3.3
		c-1.4,0-2.2,0.8-2.4,3.5h4.6h0.1L82.9,58.1z"/>
	<path class="st6" d="M100.1,67.7h-6.3l-4.9-15.9h5.8l2.4,12l2.6-12h5.4L100.1,67.7z"/>
	<path class="st6" d="M121,61.4h-9.8c0.3,2.6,1.5,3.2,3.4,3.2c1.2,0,2.4-0.4,3.7-1.4l2.2,2.9c-1.5,1.2-3.7,2.3-6.4,2.3
		c-5.5,0-8.2-3.5-8.2-8.4c0-4.7,2.6-8.5,7.7-8.5c4.6,0,7.5,3,7.5,8.2C121.1,60,121,60.9,121,61.4z M115.9,58.1c0-2-0.5-3.3-2.3-3.3
		c-1.4,0-2.2,0.8-2.4,3.5h4.6h0.1L115.9,58.1z"/>
	<path class="st6" d="M134.6,51.7l-0.8,5.1c-0.5-0.1-0.9-0.2-1.4-0.2c-2,0-2.7,1.4-3.1,3.7v7.5H124V51.9h4.6l0.4,3
		c0.6-2.2,2.3-3.5,4-3.5C133.6,51.4,134.1,51.5,134.6,51.7z"/>
	<path class="st6" d="M148.4,53.4l-2,2.9c-1.2-0.7-2.6-1.2-3.8-1.2c-1.1,0-1.6,0.4-1.6,0.9c0,0.7,0.3,1,3.2,1.8
		c3.1,0.9,4.7,2.2,4.7,5c0,3.3-3.1,5.3-7.3,5.3c-2.8,0-5.2-0.9-6.8-2.4l2.6-2.9c1.1,0.9,2.7,1.5,4.1,1.5c1.2,0,2-0.4,2-1.2
		c0-0.9-0.4-1.1-3.2-2c-3.1-0.9-4.6-2.6-4.6-5c0-2.8,2.5-5,6.7-5C144.7,51.1,146.9,52.1,148.4,53.4z"/>
	<path class="st6" d="M166.8,59.8c0,5.1-3,8.4-7.9,8.4s-7.9-3.1-7.9-8.5c0-5.1,3-8.4,7.9-8.4C163.8,51.3,166.8,54.4,166.8,59.8z
		 M156.3,59.8c0,3.3,0.8,4.6,2.5,4.6s2.5-1.4,2.5-4.6c0-3.3-0.8-4.6-2.5-4.6S156.3,56.5,156.3,59.8z"/>
	<path class="st6" d="M184,56.1v11.6h-5.3V57.1c0-1.4-0.5-1.8-1.2-1.8c-0.8,0-1.6,0.6-2.4,1.8v10.7h-5.3V51.9h4.6l0.4,1.7
		c1.4-1.5,2.9-2.4,4.8-2.4C182.4,51.3,184,53.1,184,56.1z"/>
	<path class="st6" d="M71.3,85.1h-7.7c0.2,2.1,1.2,2.5,2.7,2.5c0.9,0,1.8-0.3,3-1.1l1.7,2.4c-1.2,1-3,1.7-5,1.7
		c-4.4,0-6.6-2.8-6.6-6.7c0-3.7,2.1-6.8,6.1-6.8c3.7,0,6,2.4,6,6.5C71.5,84.1,71.4,84.7,71.3,85.1z M67.2,82.7
		c0-1.5-0.4-2.8-1.7-2.8c-1.1,0-1.7,0.6-1.8,2.8H67.2z"/>
	<path class="st6" d="M83.3,78.8l-1.5,2.4c-0.9-0.6-2.1-0.9-3.1-0.9c-0.9,0-1.3,0.3-1.3,0.7c0,0.5,0.2,0.8,2.6,1.4
		c2.5,0.7,3.8,1.7,3.8,4c0,2.6-2.5,4.2-5.8,4.2c-2.2,0-4.1-0.7-5.3-2l2.1-2.3c0.9,0.7,2.1,1.2,3.3,1.2c1,0,1.5-0.3,1.5-1
		S79.3,85.6,77,85c-2.4-0.7-3.7-2.1-3.7-4c0-2.3,2-4,5.3-4C80.5,77,82.2,77.8,83.3,78.8z"/>
	<path class="st6" d="M90.7,73.1c0,1.3-1,2.4-2.4,2.4s-2.4-1-2.4-2.4s1-2.4,2.4-2.4C89.8,70.7,90.7,71.9,90.7,73.1z M90.4,90.2h-4.2
		V77.6h4.2V90.2z"/>
	<path class="st6" d="M105.7,78.5c-0.8,0.3-2.1,0.5-3.6,0.5c1.6,0.6,2.4,1.5,2.4,3.3c0,2.4-2.1,4.2-5.4,4.2c-0.5,0-0.9,0-1.4-0.1
		c-0.2,0.1-0.3,0.3-0.3,0.6c0,0.3,0.1,0.7,1.3,0.7h1.8c3.1,0,4.9,1.5,4.9,3.7c0,2.7-2.4,4.2-6.8,4.2c-4.9,0-6.2-1.6-6.2-4.1h3.7
		c0,1,0.4,1.4,2.6,1.4c2.1,0,2.5-0.6,2.5-1.2s-0.4-1.1-1.5-1.1H98c-2.9,0-4.1-1.1-4.1-2.5c0-0.9,0.6-2,1.5-2.5
		C93.8,84.7,93,83.5,93,82c0-3,2.3-4.7,5.8-4.7c2.7,0.1,4.4-0.8,6-1.7L105.7,78.5z M97.2,81.7c0,1.3,0.7,2,1.6,2
		c1.1,0,1.6-0.6,1.6-2c0-1.2-0.5-1.7-1.6-1.8C97.7,79.9,97.2,80.6,97.2,81.7z"/>
	<path class="st6" d="M118.9,81v9.2h-4.2v-8.5c0-1.1-0.4-1.4-0.9-1.4c-0.7,0-1.3,0.5-1.8,1.4v8.5h-4.2V77.6h3.7l0.3,1.4
		c1.1-1.2,2.3-1.8,3.8-1.8C117.6,77.2,118.9,78.6,118.9,81z"/>
</g>
</svg>
