<?xml version="1.0" encoding="utf-8"?>
<!-- Generator: Adobe Illustrator 25.2.1, SVG Export Plug-In . SVG Version: 6.00 Build 0)  -->
<!DOCTYPE svg PUBLIC "-//W3C//DTD SVG 1.1//EN" "http://www.w3.org/Graphics/SVG/1.1/DTD/svg11.dtd" [
	<!ENTITY ns_extend "http://ns.adobe.com/Extensibility/1.0/">
	<!ENTITY ns_ai "http://ns.adobe.com/AdobeIllustrator/10.0/">
	<!ENTITY ns_graphs "http://ns.adobe.com/Graphs/1.0/">
	<!ENTITY ns_vars "http://ns.adobe.com/Variables/1.0/">
	<!ENTITY ns_imrep "http://ns.adobe.com/ImageReplacement/1.0/">
	<!ENTITY ns_sfw "http://ns.adobe.com/SaveForWeb/1.0/">
	<!ENTITY ns_custom "http://ns.adobe.com/GenericCustomNamespace/1.0/">
	<!ENTITY ns_adobe_xpath "http://ns.adobe.com/XPath/1.0/">
]>
<svg version="1.1" xmlns:x="&ns_extend;" xmlns:i="&ns_ai;" xmlns:graph="&ns_graphs;"
	 xmlns="http://www.w3.org/2000/svg" xmlns:xlink="http://www.w3.org/1999/xlink" x="0px" y="0px" viewBox="0 0 200 104"
	 style="enable-background:new 0 0 200 104;" xml:space="preserve">
<style type="text/css">
	.st0{fill:url(#SVGID_1_);}
	.st1{display:none;}
	.st2{display:inline;opacity:0.51;}
	.st3{fill:url(#SVGID_2_);}
	.st4{opacity:0.69;}
	.st5{fill:url(#SVGID_3_);}
	.st6{display:inline;enable-background:new    ;}
	.st7{opacity:0.2;fill:#FFD8B8;stroke:#FFD8B8;stroke-width:0.7735;stroke-miterlimit:10;enable-background:new    ;}
	.st8{opacity:0.2;fill:#FFD8B8;stroke:#FFD8B8;stroke-width:0.7847;stroke-miterlimit:10;enable-background:new    ;}
	.st9{fill:#FFFFFF;stroke:#663399;stroke-width:0.3221;stroke-miterlimit:10;}
	.st10{fill:#FFFFFF;stroke:#663399;stroke-width:0.3594;stroke-miterlimit:10;}
	.st11{opacity:0.5;}
	.st12{fill:#FFFFFF;}
	.st13{fill:#663399;}
	.st14{fill:#6F89D6;}
	.st15{font-family:'Futura-MediumItalic';}
	.st16{font-size:8px;}
	.st17{display:inline;}
	.st18{opacity:0.75;}
</style>
<metadata>
	<sfw  xmlns="&ns_sfw;">
		<slices></slices>
		<sliceSourceBounds  bottomLeftOrigin="true" height="16383" width="16383" x="-8091" y="-8140"></sliceSourceBounds>
	</sfw>
</metadata>
<g id="Layer_1">
	<g id="Layer_1_1_">
		<g id="Layer_10">
			<g id="Layer_4">
				<g id="Background">
					<g id="Layer_6">
						
							<linearGradient id="SVGID_1_" gradientUnits="userSpaceOnUse" x1="100" y1="-2601.332" x2="100" y2="-2769.6433" gradientTransform="matrix(1 0 0 -1 0 -2638)">
							<stop  offset="2.145177e-02" style="stop-color:#6F89D6"/>
							<stop  offset="0.3466" style="stop-color:#6F89D6"/>
							<stop  offset="0.3864" style="stop-color:#6D7ACC"/>
							<stop  offset="0.4859" style="stop-color:#6A5BB6"/>
							<stop  offset="0.5828" style="stop-color:#6845A6"/>
							<stop  offset="0.6751" style="stop-color:#66389C"/>
							<stop  offset="0.7576" style="stop-color:#663399"/>
							<stop  offset="0.9927" style="stop-color:#663399"/>
						</linearGradient>
						<path class="st0" d="M200,93.9c0,5.5-4.5,10-10,10H0v-94c0-5.5,4.5-10,10-10L200,0V93.9z"/>
					</g>
				</g>
			</g>
		</g>
		<g id="Layer_11" class="st1">
			<g id="gradient" class="st2">
				<g>
					
						<linearGradient id="SVGID_2_" gradientUnits="userSpaceOnUse" x1="139.2332" y1="-1324.3" x2="201.3058" y2="-1324.3" gradientTransform="matrix(1 0 0 -1 0 -1266)">
						<stop  offset="0" style="stop-color:#6F89D6"/>
						<stop  offset="0" style="stop-color:#6F89D6"/>
						<stop  offset="1.033336e-02" style="stop-color:#6E85D2"/>
						<stop  offset="7.450265e-02" style="stop-color:#6A6EBE"/>
						<stop  offset="0.1356" style="stop-color:#6761B2"/>
						<stop  offset="0.1897" style="stop-color:#665CAE"/>
						<stop  offset="1" style="stop-color:#663399"/>
						<stop  offset="1" style="stop-color:#663399"/>
					</linearGradient>
					<path class="st3" d="M193.3,46.3c-5.4-2.8-32.6-9-36.8-10.7c-4.3-1.7-6.4-4.7-6.4-9.3c0-2.8,1.1-5.4,3.4-7.6
						c2.2-2.1,6.2-3.3,11.6-3.3c5.8,0,10.7,0.8,14.8,2.4c4.2,1.6,7.9,4.2,11.6,7.4c0.9,0.8,1.8,1.6,2.6,2.5c0.9,0.9,1.7,1.8,2.6,2.8
						c-0.4-1.5-0.9-2.8-1.6-4.2c-0.7-1.3-3.7-6.5-4.7-8.6c-0.6-1.3-1-2.9-1.1-4.5l-27.4,0.1c-4.2,0-7.9,1.7-11,4.9
						c-3.1,3.3-4.7,7.2-4.7,11.7c0,7.1,2.7,11.8,7.9,14.1c5.2,2.4,30.1,8.3,35,10.2c4.9,2,7.4,5.9,7.4,12.1c0,4.6-1.5,8.1-4.5,10.4
						c-1.7,1.3-3.9,2.2-6.7,2.8l0,0c-0.7-1.2-1.6-2.4-2.7-3.4c-3.1-2.9-7.3-4.4-12.5-4.2h-16.5v0.4h0.6c0.8,0,1.5,0.1,2,0.7
						c0.6,0.4,0.9,1.1,0.9,1.8v1.6c-1.8-0.8-3.4-1.6-4.9-2.6c-6.7-4.2-10.1-9.5-10.1-16.1c0,0,0-2.4,0.4-4.5
						c0.2-1.2,0.8-2.2,1.7-3.3c-1.8,1-3.3,2.9-3.8,4.6c-1,3.3-1,6.5-1,7c0,8.1,2.4,13.7,7,17.1c3.4,2.5,7,4.2,10.8,5.3v16.3
						c-0.1,0.8-0.3,1.5-0.9,2c-0.6,0.4-1.2,0.8-2,0.8h-0.7v0.4H170c5.3,0,9.7-1.5,12.7-4.3c3.1-2.8,4.7-6.6,4.7-11.6
						c0-1.3-0.1-2.7-0.4-3.8c3-1,5.4-2.6,7.3-4.5c4.2-4.4,6.5-9,7.1-14.1c0.1-0.7,0.2-3.1,0.2-3.7C201.3,54,198.6,49,193.3,46.3z
						 M163.8,73.8h5.5c3.3,0,5.8,1.3,7.6,3.8c0.6,0.8,1.1,1.7,1.6,2.7c-0.2,0-0.6,0-0.9,0c-5.1,0-9.7-0.6-13.8-1.6L163.8,73.8
						L163.8,73.8z M178.5,95.1c-0.9,2-2.1,3.7-3.7,4.8c-1.6,1.1-3.5,1.7-5.6,1.7h-5.4V85.3c1.2,0.1,2.5,0.2,3.6,0.3
						c2,0.1,3.9,0.2,5.6,0.2c2.4,0,4.6-0.1,6.6-0.3c0.1,0.9,0.1,1.8,0.1,2.7C179.8,90.7,179.3,93.1,178.5,95.1z"/>
				</g>
				<g id="gradient_1_" class="st4">
					<g>
						
							<linearGradient id="SVGID_3_" gradientUnits="userSpaceOnUse" x1="213.4" y1="-1326.35" x2="261.9504" y2="-1326.35" gradientTransform="matrix(1 0 0 -1 0 -1266)">
							<stop  offset="0.1367" style="stop-color:#6699CC"/>
							<stop  offset="0.1915" style="stop-color:#668CC6"/>
							<stop  offset="0.4229" style="stop-color:#665CAE"/>
							<stop  offset="0.5996" style="stop-color:#663E9F"/>
							<stop  offset="0.6993" style="stop-color:#663399"/>
						</linearGradient>
						<path class="st5" d="M255.7,50.8c-4.2-2.2-25.5-7-28.8-8.3s-5-3.7-5-7.3c0-2.2,0.9-4.2,2.6-6c1.8-1.7,4.8-2.5,9-2.5
							c4.6,0,8.3,0.6,11.6,1.8s6.1,3.2,9,5.8c0.7,0.6,1.4,1.2,2,1.9c0.7,0.7,1.3,1.4,2,2.2c-0.4-1.1-0.7-2.2-1.2-3.2
							c-0.5-1.1-2.9-5.1-3.7-6.8c-0.4-1.1-0.8-2.3-0.9-3.5L231.1,25c-3.2,0-6.1,1.3-8.6,3.9s-3.7,5.6-3.7,9.1
							c0,5.5,2.1,9.2,6.1,11.1s23.5,6.5,27.4,8c3.9,1.6,5.8,4.7,5.8,9.5c0,3.6-1.1,6.3-3.5,8.2c-1.3,1.1-3.1,1.8-5.3,2.2l0,0
							c-0.5-1-1.2-1.8-2.1-2.6c-2.5-2.3-5.7-3.4-9.7-3.2h-12.9v0.4h0.4c0.6,0,1.1,0.1,1.6,0.5c0.4,0.4,0.7,0.9,0.7,1.4v1.2
							c-1.4-0.6-2.6-1.2-3.9-2c-5.3-3.2-7.9-7.5-7.9-12.6c0,0,0-1.8,0.4-3.5c0.2-1,0.6-1.8,1.3-2.5c-1.4,0.8-2.5,2.3-3,3.6
							c-0.8,2.5-0.8,5.1-0.8,5.4c0,6.3,1.8,10.7,5.4,13.3c2.6,1.9,5.4,3.2,8.4,4.1v12.7c-0.1,0.6-0.3,1.1-0.7,1.6
							c-0.4,0.4-1,0.6-1.6,0.6h-0.5v0.4h12.8c4.1,0,7.6-1.1,9.9-3.3c2.5-2.2,3.7-5.2,3.7-9c0-1.1-0.1-2.1-0.4-3
							c2.4-0.8,4.2-2,5.7-3.5c3.2-3.4,5.1-7,5.5-11.1c0.1-0.5,0.2-2.5,0.2-2.9C262,56.8,259.9,52.9,255.7,50.8z M232.7,72.3h4.3
							c2.5,0,4.6,1.1,6,3c0.4,0.6,0.9,1.3,1.2,2.1c-0.2,0-0.4,0-0.7,0c-4,0-7.6-0.4-10.8-1.2V72.3z M244.2,89
							c-0.7,1.6-1.7,2.9-2.9,3.8s-2.7,1.3-4.4,1.3h-4.2V81.3c1,0.1,1.9,0.2,2.8,0.3c1.6,0.1,3.1,0.2,4.4,0.2c1.8,0,3.6-0.1,5.2-0.3
							c0.1,0.7,0.1,1.4,0.1,2.1C245.1,85.6,244.8,87.4,244.2,89z"/>
					</g>
				</g>
			</g>
		</g>
		<g id="Layer_2_1_" class="st1">
			<g class="st6">
				<path class="st7" d="M126,72.5h3.7v21.7c0,2.2,0.2,3.7,0.5,4.4c0.4,0.7,1.1,1.1,2.2,1.1c1.1,0,1.9-0.4,2.2-1s0.5-2,0.5-3.9V72.5
					h3.7v22.3c0,3.3-0.4,5.6-1.3,6.8c-1.1,1.3-2.8,2-5.1,2c-2.5,0-4.2-0.9-5.3-2.6c-0.7-1.2-1-3.4-1-6.8L126,72.5L126,72.5z"/>
				<path class="st7" d="M143.1,72.5h3.7v30.7h-3.7V72.5z"/>
				<path class="st7" d="M163.9,69.3h3.9l-16.7,42.2h-3.9L163.9,69.3z"/>
				<path class="st7" d="M169.8,72.5h3.7v21.7c0,2.2,0.2,3.7,0.5,4.4c0.4,0.7,1.1,1.1,2.2,1.1c1.1,0,1.9-0.4,2.2-1s0.5-2,0.5-3.9
					V72.5h3.7v22.3c0,3.3-0.4,5.6-1.3,6.8c-1.1,1.3-2.8,2-5.1,2c-2.5,0-4.2-0.9-5.3-2.6c-0.7-1.2-1-3.4-1-6.8L169.8,72.5L169.8,72.5
					z"/>
				<path class="st8" d="M186,72.4h3.6l2,6.1c0.7,2.4,1.2,4.1,1.3,5.3c0.1-0.8,0.3-1.4,0.4-2c0.2-0.6,0.3-1.3,0.5-2l0.2-0.9l1.8-6.5
					h3.8L194.5,88l5.2,16.1h-3.8l-1.9-6c-0.4-1.3-0.7-2.3-0.9-3.3s-0.4-1.8-0.5-2.5c-0.1,0.9-0.3,1.8-0.5,2.6l-0.6,2.3l-0.3,1.1
					l-1.7,5.8h-3.9l5.3-16.1L186,72.4z"/>
			</g>
			<g class="st6">
				<path class="st9" d="M373.3-71.6v5.3c0,0.3,0,0.5,0,0.9s0.1,0.5,0.2,0.8s0.3,0.4,0.5,0.5c0.3,0.1,0.5,0.2,1,0.2
					c0.4,0,0.7-0.1,1-0.2c0.3-0.1,0.4-0.4,0.5-0.5c0.1-0.3,0.2-0.5,0.2-0.8s0-0.5,0-0.9v-5.3h2.5v5.6c0,1.5-0.4,2.6-1,3.3
					c-0.7,0.7-1.7,1.1-3.1,1.1s-2.5-0.4-3.1-1.1c-0.7-0.7-1.1-1.8-1.1-3.3v-5.6H373.3z"/>
				<path class="st9" d="M383.7-71.6v9.7h-2.5v-9.7H383.7z"/>
				<path class="st9" d="M390-72.6h1.8l-5.3,12.8h-1.8L390-72.6z"/>
				<path class="st9" d="M395.4-71.6v5.3c0,0.3,0,0.5,0,0.9s0.1,0.5,0.2,0.8s0.3,0.4,0.5,0.5s0.5,0.2,1,0.2s0.7-0.1,1-0.2
					c0.3-0.1,0.4-0.4,0.5-0.5c0.1-0.3,0.2-0.5,0.2-0.8s0-0.5,0-0.9v-5.3h2.5v5.6c0,1.5-0.4,2.6-1,3.3c-0.7,0.7-1.7,1.1-3.1,1.1
					s-2.5-0.4-3.1-1.1c-0.7-0.7-1.1-1.8-1.1-3.3v-5.6H395.4z"/>
				<path class="st9" d="M406.1-67l-3-4.5h3.1l1.3,2.5l1.6-2.5h3.1L409-67l3.6,5.1h-3.1l-2-3.1l-2.2,3.1h-3L406.1-67z"/>
			</g>
			<g class="st6">
				<path class="st9" d="M371.2-58.3h3.7c0.6,0,1.3,0.1,1.9,0.4c0.5,0.3,1.1,0.6,1.5,1.1c0.4,0.4,0.8,1,1,1.5
					c0.3,0.6,0.4,1.2,0.4,1.8s-0.1,1.3-0.4,1.8s-0.5,1.1-1,1.5c-0.4,0.4-0.9,0.8-1.5,1.1c-0.5,0.3-1.2,0.4-1.9,0.4h-3.7
					C371.2-48.8,371.2-58.3,371.2-58.3z M373.7-50.8h0.5c0.4,0,0.8-0.1,1.2-0.2c0.4-0.2,0.6-0.4,0.9-0.5c0.3-0.3,0.4-0.5,0.5-0.8
					c0.1-0.4,0.2-0.7,0.2-1.1c0-0.4-0.1-0.7-0.2-1.1c-0.1-0.4-0.3-0.6-0.5-0.9c-0.3-0.3-0.5-0.4-0.9-0.5c-0.4-0.2-0.7-0.2-1.2-0.2
					h-0.5V-50.8z"/>
				<path class="st9" d="M383.1-51.5c0,1,0.4,1.5,1.4,1.5c0.5,0,0.9-0.2,1.2-0.6h2.2c-0.4,1.5-1.6,2.2-3.4,2.2
					c-0.5,0-1.1-0.1-1.5-0.3s-0.9-0.4-1.2-0.7c-0.4-0.3-0.6-0.7-0.7-1.1c-0.2-0.4-0.3-0.9-0.3-1.4s0.1-1.1,0.3-1.4
					c0.2-0.4,0.4-0.8,0.7-1.1c0.4-0.3,0.7-0.5,1.2-0.7c0.4-0.2,1-0.3,1.5-0.3s1.1,0.1,1.5,0.3s0.8,0.4,1.2,0.7s0.5,0.7,0.7,1.2
					c0.2,0.4,0.3,1,0.3,1.5v0.2C388.2-51.5,383.1-51.5,383.1-51.5z M385.8-52.9c-0.1-0.4-0.3-0.6-0.4-0.8c-0.3-0.2-0.5-0.3-0.9-0.3
					s-0.6,0.1-0.9,0.3s-0.4,0.4-0.4,0.8H385.8z"/>
				<path class="st9" d="M393.6-53.5c-0.4-0.2-0.8-0.4-1.3-0.4c-0.2,0-0.4,0-0.5,0.1s-0.2,0.2-0.2,0.4c0,0.1,0,0.2,0,0.2
					c0,0.1,0.1,0.1,0.2,0.1s0.2,0.1,0.4,0.1c0.2,0,0.4,0.1,0.5,0.1c0.6,0.1,1.1,0.4,1.4,0.7c0.4,0.4,0.4,0.7,0.4,1.3
					c0,0.4-0.1,0.7-0.3,1.1c-0.2,0.3-0.4,0.5-0.6,0.8c-0.3,0.2-0.6,0.4-1,0.4c-0.4,0.1-0.8,0.2-1.3,0.2c-0.9,0-1.8-0.3-2.6-0.7
					l0.8-1.6c0.6,0.4,1.3,0.6,1.9,0.6c0.2,0,0.4-0.1,0.5-0.2c0.2-0.1,0.2-0.2,0.2-0.4c0-0.1,0-0.2,0-0.2c0-0.1-0.1-0.1-0.2-0.2
					c-0.1-0.1-0.2-0.1-0.3-0.1s-0.3-0.1-0.5-0.1c-0.7-0.2-1.3-0.4-1.5-0.6c-0.3-0.3-0.4-0.7-0.4-1.2c0-0.4,0.1-0.7,0.2-1
					c0.2-0.3,0.4-0.5,0.6-0.7c0.3-0.2,0.5-0.4,0.9-0.4c0.4-0.1,0.8-0.2,1.2-0.2c0.7,0,1.4,0.2,2.2,0.4L393.6-53.5z"/>
				<path class="st9" d="M395.7-57.7c0-0.2,0-0.4,0.1-0.5c0.1-0.2,0.2-0.3,0.3-0.4c0.1-0.1,0.3-0.2,0.4-0.3s0.4-0.1,0.5-0.1
					c0.2,0,0.4,0,0.5,0.1c0.2,0.1,0.3,0.2,0.4,0.3s0.2,0.3,0.3,0.4c0.1,0.2,0.1,0.4,0.1,0.5c0,0.2,0,0.4-0.1,0.5
					c-0.1,0.2-0.2,0.3-0.3,0.4c-0.1,0.2-0.3,0.2-0.4,0.3c-0.2,0.1-0.4,0.1-0.5,0.1c-0.2,0-0.4,0-0.5-0.1c-0.2-0.1-0.3-0.2-0.4-0.3
					s-0.2-0.3-0.3-0.4C395.7-57.4,395.7-57.5,395.7-57.7z M398.1-55.2v6.5h-2.3v-6.5H398.1z"/>
				<path class="st9" d="M407.1-55.2c-0.2,1.9,0.6,7.1-0.7,8.7c-1.8,2-6.2,1.7-6.9-1.3h2.6c1,1.6,3,0,2.5-1.6
					c-1.2,1.2-3.2,1.1-4.3-0.2c-2.8-2.8,1.4-8.2,4.5-5.1v-0.7h2.3V-55.2L407.1-55.2z M401.9-52c0,0.4,0,0.8,0.3,1.1
					c1.1,1.2,3.2-0.2,2.5-1.6C404.1-54,402.1-53.5,401.9-52z"/>
				<path class="st9" d="M408.7-55.2h2.3v0.8c0.4-0.4,0.6-0.6,1-0.8s0.7-0.2,1.2-0.2c0.4,0,0.9,0.1,1.2,0.2c0.3,0.1,0.6,0.4,0.8,0.6
					c0.2,0.2,0.4,0.4,0.4,0.7s0.1,0.6,0.1,0.9v4.2h-2.3v-3.3c0-0.4,0-0.6-0.1-0.8s-0.1-0.4-0.3-0.4c-0.1-0.1-0.2-0.2-0.4-0.2
					c-0.1,0-0.3-0.1-0.4-0.1c-0.4,0-0.7,0.1-0.9,0.4c-0.2,0.3-0.3,0.5-0.3,1v3.5h-2.3L408.7-55.2L408.7-55.2z"/>
				<path class="st9" d="M419.3-51.5c0,1,0.4,1.5,1.4,1.5c0.5,0,0.9-0.2,1.2-0.6h2.2c-0.4,1.5-1.6,2.2-3.4,2.2
					c-0.5,0-1.1-0.1-1.5-0.3s-0.9-0.4-1.2-0.7c-0.4-0.3-0.6-0.7-0.7-1.1c-0.2-0.4-0.3-0.9-0.3-1.4s0.1-1.1,0.3-1.4
					c0.2-0.4,0.4-0.8,0.7-1.1c0.4-0.3,0.7-0.5,1.2-0.7c0.4-0.2,1-0.3,1.5-0.3s1.1,0.1,1.5,0.3s0.8,0.4,1.2,0.7s0.5,0.7,0.7,1.2
					c0.2,0.4,0.3,1,0.3,1.5v0.2C424.4-51.5,419.3-51.5,419.3-51.5z M422-52.9c-0.1-0.4-0.3-0.6-0.4-0.8c-0.3-0.2-0.5-0.3-0.9-0.3
					s-0.6,0.1-0.9,0.3s-0.4,0.4-0.4,0.8H422z"/>
				<path class="st9" d="M425.5-55.2h2.3v1.1c0.3-0.4,0.5-0.7,0.9-0.9s0.8-0.3,1.3-0.3c0.1,0,0.1,0,0.2,0s0.2,0,0.3,0v2.2
					c-0.3-0.2-0.6-0.3-1-0.3c-0.5,0-0.9,0.2-1.2,0.4c-0.3,0.4-0.4,0.8-0.4,1.4v2.8h-2.3L425.5-55.2L425.5-55.2z"/>
			</g>
		</g>
		<g id="Layer_9">
			<g id="SD_1_">
				<g id="SD">
					<g id="everson_esigns_2_">
						<path class="st10" d="M31,66.7v-1.4c0-0.6-0.3-1.2-0.8-1.6c-0.5-0.5-1.1-0.6-1.8-0.6h-0.5v-0.4H43c4.7-0.2,8.5,1.1,11.4,3.8
							c1,0.9,1.8,2,2.5,3.1l0,0c0.7,1.2,1.2,2.5,1.4,3.9c0.2,1.1,0.3,2.3,0.3,3.5c0,4.5-1.4,8-4.3,10.6c-2.8,2.6-6.8,3.9-11.6,3.9
							h-15V91h0.6c0.7,0,1.3-0.3,1.8-0.7c0.5-0.5,0.7-1.1,0.8-1.8V73.6 M37.3,74.8v14.9h4.9c2,0,3.7-0.5,5.1-1.5s2.6-2.6,3.4-4.4
							c0.7-1.8,1.1-4,1.1-6.3c0-0.9,0-1.7-0.1-2.5c-0.1-1.2-0.3-2.3-0.5-3.3c-0.1-0.5-0.3-1-0.5-1.5c-0.4-0.9-0.9-1.7-1.4-2.5
							c-1.6-2.3-4-3.5-7-3.5h-5v4.5"/>
						<path class="st10" d="M31,66.7l-0.1,6.9c-3.5-1-6.7-2.6-9.8-4.8c-4.2-3.1-6.4-8.2-6.4-15.6c0-0.4,0-3.4,0.9-6.4
							c0.5-1.5,1.8-3.3,3.5-4.2c-0.8,0.9-1.3,1.8-1.5,3c-0.4,2-0.4,4.1-0.4,4.1c0,6,3.1,10.9,9.2,14.7C27.9,65.2,29.4,66,31,66.7z"
							/>
						<path class="st10" d="M71.6,53.1c0,0.5-0.1,2.8-0.2,3.4c-0.5,4.7-2.7,8.9-6.5,12.9c-1.6,1.7-3.9,3.1-6.6,4.1
							c-2,0.7-4.1,1.1-6.5,1.4c-1.8,0.2-3.9,0.3-6.1,0.3c-1.5,0-3.3-0.1-5.1-0.2c-1-0.1-2.2-0.2-3.3-0.3v-6.1
							c3.8,0.9,8,1.3,12.6,1.3c0.3,0,0.5,0,0.8,0c2.3,0,4.3-0.2,6.1-0.6l0,0c2.6-0.5,4.6-1.3,6.2-2.6c2.8-2.2,4.1-5.3,4.1-9.6
							c0-5.6-2.3-9.2-6.8-11.1c-4.5-1.7-27.3-7.2-32-9.3s-7.2-6.5-7.2-12.9c0-4.1,1.4-7.7,4.3-10.7s6.3-4.5,10.1-4.5h25
							c0.1,1.4,0.5,2.9,1,4.1c0.9,2,3.7,6.7,4.3,7.9c0.6,1.1,1,2.5,1.4,3.8c-0.8-0.9-1.5-1.7-2.4-2.6c-0.7-0.8-1.5-1.5-2.4-2.3
							c-3.3-3-6.8-5.3-10.6-6.8s-8.2-2.2-13.6-2.2c-4.9,0-8.5,1-10.6,3c-2.1,2.1-3.1,4.4-3.1,7c0,4.2,2,7,5.9,8.5s28.8,7.2,33.7,9.8
							C69.1,41.5,71.6,46.1,71.6,53.1z"/>
					</g>
				</g>
			</g>
		</g>
		<g id="Layer_12">
			<g id="everson_esign">
				<g>
					<path class="st10" d="M88,61.4h-9.8c0.3,2.6,1.5,3.2,3.4,3.2c1.2,0,2.4-0.4,3.7-1.4l2.2,2.9c-1.5,1.3-3.7,2.3-6.4,2.3
						c-5.5,0-8.2-3.5-8.2-8.4c0-4.7,2.6-8.5,7.7-8.5c4.6,0,7.5,3,7.5,8.2C88.1,60,88,60.9,88,61.4z M82.9,58.1c0-2-0.5-3.3-2.3-3.3
						c-1.4,0-2.2,0.8-2.4,3.5h4.6h0.1L82.9,58.1z"/>
					<path class="st10" d="M100.1,67.7h-6.3l-4.9-15.9h5.8l2.4,12l2.6-12h5.4L100.1,67.7z"/>
					<path class="st10" d="M121,61.4h-9.8c0.3,2.6,1.5,3.2,3.4,3.2c1.2,0,2.4-0.4,3.7-1.4l2.2,2.9c-1.5,1.2-3.7,2.3-6.4,2.3
						c-5.5,0-8.2-3.5-8.2-8.4c0-4.7,2.6-8.5,7.7-8.5c4.6,0,7.5,3,7.5,8.2C121.1,60,121,60.9,121,61.4z M115.9,58.1
						c0-2-0.5-3.3-2.3-3.3c-1.4,0-2.2,0.8-2.4,3.5h4.6h0.1L115.9,58.1z"/>
					<path class="st10" d="M134.6,51.7l-0.8,5.1c-0.5-0.1-0.9-0.2-1.4-0.2c-2,0-2.7,1.4-3.1,3.7v7.5H124V51.9h4.6l0.4,3
						c0.6-2.2,2.3-3.5,4-3.5C133.6,51.4,134.1,51.5,134.6,51.7z"/>
					<path class="st10" d="M148.4,53.4l-2,2.9c-1.2-0.7-2.6-1.2-3.8-1.2c-1.1,0-1.6,0.4-1.6,0.9c0,0.7,0.3,1,3.2,1.8
						c3.1,0.9,4.7,2.2,4.7,5c0,3.3-3.1,5.3-7.3,5.3c-2.8,0-5.2-0.9-6.8-2.4l2.6-2.9c1.1,0.9,2.7,1.5,4.1,1.5c1.2,0,2-0.4,2-1.2
						c0-0.9-0.4-1.1-3.2-2c-3.1-0.9-4.6-2.6-4.6-5c0-2.8,2.5-5,6.7-5C144.7,51.1,146.9,52.1,148.4,53.4z"/>
					<path class="st10" d="M166.8,59.8c0,5.1-3,8.4-7.9,8.4s-7.9-3.1-7.9-8.5c0-5.1,3-8.4,7.9-8.4C163.8,51.3,166.8,54.4,166.8,59.8
						z M156.3,59.8c0,3.3,0.8,4.6,2.5,4.6s2.5-1.4,2.5-4.6c0-3.3-0.8-4.6-2.5-4.6S156.3,56.5,156.3,59.8z"/>
					<path class="st10" d="M184,56.1v11.6h-5.3V57.1c0-1.4-0.5-1.8-1.2-1.8c-0.8,0-1.6,0.6-2.4,1.8v10.7h-5.3V51.9h4.6l0.4,1.7
						c1.4-1.5,2.9-2.4,4.8-2.4C182.4,51.3,184,53.1,184,56.1z"/>
				</g>
				<g>
					<path class="st10" d="M71.3,85.1h-7.7c0.2,2.1,1.2,2.5,2.7,2.5c0.9,0,1.8-0.3,3-1.1l1.7,2.4c-1.2,1-3,1.7-5,1.7
						c-4.4,0-6.6-2.8-6.6-6.7c0-3.7,2.1-6.8,6.1-6.8c3.7,0,6,2.4,6,6.5C71.5,84.1,71.4,84.7,71.3,85.1z M67.2,82.7
						c0-1.5-0.4-2.8-1.7-2.8c-1.1,0-1.7,0.6-1.8,2.8H67.2z"/>
					<path class="st10" d="M83.3,78.8l-1.5,2.4c-0.9-0.6-2.1-0.9-3.1-0.9c-0.9,0-1.3,0.3-1.3,0.7c0,0.5,0.2,0.8,2.6,1.4
						c2.5,0.7,3.8,1.7,3.8,4c0,2.6-2.5,4.2-5.8,4.2c-2.2,0-4.1-0.7-5.3-2l2.1-2.3c0.9,0.7,2.1,1.2,3.3,1.2c1,0,1.5-0.3,1.5-1
						S79.3,85.6,77,85c-2.4-0.7-3.7-2.1-3.7-4c0-2.3,2-4,5.3-4C80.5,77,82.2,77.8,83.3,78.8z"/>
					<path class="st10" d="M90.7,73.1c0,1.3-1,2.4-2.4,2.4s-2.4-1-2.4-2.4s1-2.4,2.4-2.4C89.8,70.7,90.7,71.9,90.7,73.1z M90.4,90.2
						h-4.2V77.6h4.2V90.2z"/>
					<path class="st10" d="M105.7,78.5c-0.8,0.3-2.1,0.5-3.6,0.5c1.6,0.6,2.4,1.5,2.4,3.3c0,2.4-2.1,4.2-5.4,4.2
						c-0.5,0-0.9,0-1.4-0.1c-0.2,0.1-0.3,0.3-0.3,0.6c0,0.3,0.1,0.7,1.3,0.7h1.8c3.1,0,4.9,1.5,4.9,3.7c0,2.7-2.4,4.2-6.8,4.2
						c-4.9,0-6.2-1.6-6.2-4.1h3.7c0,1,0.4,1.4,2.6,1.4c2.1,0,2.5-0.6,2.5-1.2s-0.4-1.1-1.5-1.1H98c-2.9,0-4.1-1.1-4.1-2.5
						c0-0.9,0.6-2,1.5-2.5C93.8,84.7,93,83.5,93,82c0-3,2.3-4.7,5.8-4.7c2.7,0.1,4.4-0.8,6-1.7L105.7,78.5z M97.2,81.7
						c0,1.3,0.7,2,1.6,2c1.1,0,1.6-0.6,1.6-2c0-1.2-0.5-1.7-1.6-1.8C97.7,79.9,97.2,80.6,97.2,81.7z"/>
					<path class="st10" d="M118.9,81v9.2h-4.2v-8.5c0-1.1-0.4-1.4-0.9-1.4c-0.7,0-1.3,0.5-1.8,1.4v8.5h-4.2V77.6h3.7l0.3,1.4
						c1.1-1.2,2.3-1.8,3.8-1.8C117.6,77.2,118.9,78.6,118.9,81z"/>
				</g>
			</g>
		</g>
		<g class="st11">
			<path class="st12" d="M89.4,7.7h4V29c0,2.2,0.2,3.6,0.6,4.3s1.2,1.1,2.4,1.1c1.2,0,2-0.3,2.3-0.9c0.4-0.6,0.6-1.9,0.6-3.9V7.7h4
				v21.9c0,3.3-0.5,5.5-1.5,6.7c-1.2,1.3-3,2-5.5,2c-2.7,0-4.6-0.8-5.7-2.5c-0.8-1.2-1.2-3.4-1.2-6.7C89.4,29.1,89.4,7.7,89.4,7.7z"
				/>
			<path class="st12" d="M107.9,7.7h4.1v30.2h-4.1V7.7z"/>
			<path class="st12" d="M130.4,4.7h3.1l-18,41.5h-3.2L130.4,4.7z"/>
			<path class="st12" d="M134.7,7.7h4V29c0,2.2,0.2,3.6,0.6,4.3c0.4,0.7,1.2,1.1,2.4,1.1s2-0.3,2.3-0.9c0.4-0.6,0.6-1.9,0.6-3.9V7.7
				h4v21.9c0,3.3-0.5,5.5-1.5,6.7c-1.2,1.3-3,2-5.5,2c-2.7,0-4.6-0.8-5.7-2.5c-0.8-1.2-1.2-3.4-1.2-6.7L134.7,7.7L134.7,7.7z"/>
			<path class="st12" d="M151.1,7.7h3.9l2.1,5.8c0.8,2.3,1.3,4,1.5,5.1c0.1-0.7,0.3-1.3,0.5-1.9s0.4-1.2,0.6-1.9l0.3-0.9l1.9-6.2
				h4.1l-5.6,14.8l5.6,15.3h-4.1l-2-5.7c-0.4-1.1-0.7-2.2-1-3.1c-0.2-0.9-0.4-1.7-0.5-2.4c-0.1,0.9-0.3,1.7-0.5,2.5l-0.7,2.1
				l-0.4,1.1l-1.7,5.5h-4.3l5.7-15.3L151.1,7.7z"/>
		</g>
		<text transform="matrix(1 0 0 1 388.4948 71.6526)" class="st16" style="font-family:'Futura-Bold';">UI/UX</text>
		<text transform="matrix(1 0 0 1 388.4948 81.2526)" class="st16" style="font-family:'Futura-Bold';">Designer</text>
		<g class="st11">
			<path class="st12" d="M203.2-57.1h4v21.3c0,2.2,0.2,3.6,0.6,4.3c0.4,0.7,1.2,1.1,2.4,1.1s2-0.3,2.3-0.9c0.4-0.6,0.6-1.9,0.6-3.9
				v-21.9h4v21.9c0,3.3-0.5,5.5-1.5,6.7c-1.2,1.3-3,2-5.5,2c-2.7,0-4.6-0.8-5.7-2.5c-0.8-1.2-1.2-3.4-1.2-6.7L203.2-57.1L203.2-57.1
				z"/>
			<path class="st12" d="M221.7-57.1h4.1v30.2h-4.1V-57.1z"/>
			<path class="st12" d="M244.2-60.1h3.1l-18,41.5h-3.2L244.2-60.1z"/>
			<path class="st12" d="M248.4-57.1h4v21.3c0,2.2,0.2,3.6,0.6,4.3c0.4,0.7,1.2,1.1,2.4,1.1c1.2,0,2-0.3,2.3-0.9
				c0.4-0.6,0.6-1.9,0.6-3.9v-21.9h4v21.9c0,3.3-0.5,5.5-1.5,6.7c-1.2,1.3-3,2-5.5,2c-2.7,0-4.6-0.8-5.7-2.5
				c-0.8-1.2-1.2-3.4-1.2-6.7V-57.1z"/>
			<path class="st12" d="M264.9-57.1h3.9l2.1,5.8c0.8,2.3,1.3,4,1.5,5.1c0.1-0.7,0.3-1.3,0.5-1.9s0.4-1.2,0.6-1.9l0.3-0.9l1.9-6.2
				h4.1l-5.6,14.8l5.6,15.3h-4.1l-2-5.7c-0.4-1.1-0.7-2.2-1-3.1c-0.2-0.9-0.4-1.7-0.5-2.4c-0.1,0.9-0.3,1.7-0.5,2.5l-0.7,2.1
				l-0.4,1.1l-1.7,5.5h-4.3l5.7-15.3L264.9-57.1z"/>
		</g>
		<g>
			<path class="st13" d="M203.2-49.8h4.6c0.8,0,1.6,0.2,2.3,0.5s1.3,0.8,1.9,1.3c0.5,0.5,0.9,1.2,1.3,1.9c0.3,0.7,0.5,1.5,0.5,2.3
				s-0.1,1.5-0.4,2.2c-0.3,0.7-0.7,1.4-1.2,1.9s-1.1,1-1.9,1.3c-0.7,0.3-1.5,0.5-2.3,0.5h-4.6v-11.9H203.2z M206.3-40.6h0.7
				c0.5,0,1-0.1,1.4-0.3s0.8-0.4,1.1-0.7s0.5-0.6,0.7-1s0.2-0.8,0.2-1.3s-0.1-0.9-0.2-1.3c-0.2-0.4-0.4-0.8-0.7-1.1
				s-0.6-0.5-1.1-0.7c-0.4-0.2-0.9-0.3-1.4-0.3h-0.7V-40.6z"/>
			<path class="st13" d="M217.8-41.5c0,1.2,0.6,1.8,1.7,1.8c0.6,0,1.1-0.3,1.4-0.8h2.7c-0.6,1.8-1.9,2.8-4.2,2.8
				c-0.7,0-1.3-0.1-1.9-0.3c-0.6-0.2-1-0.5-1.5-0.9c-0.4-0.4-0.7-0.8-0.9-1.4c-0.2-0.5-0.3-1.1-0.3-1.8s0.1-1.3,0.3-1.8
				s0.5-1,0.9-1.4s0.9-0.7,1.4-0.9c0.6-0.2,1.2-0.3,1.9-0.3s1.3,0.1,1.8,0.3s1,0.5,1.4,0.9s0.7,0.9,0.9,1.4c0.2,0.6,0.3,1.2,0.3,1.9
				v0.3h-5.9V-41.5z M221.2-43.2c-0.1-0.4-0.3-0.7-0.6-1c-0.3-0.2-0.6-0.4-1.1-0.4c-0.4,0-0.8,0.1-1.1,0.3s-0.5,0.6-0.5,1h3.3V-43.2
				z"/>
			<path class="st13" d="M230.8-44c-0.5-0.3-1-0.4-1.5-0.4c-0.3,0-0.5,0.1-0.6,0.2c-0.2,0.1-0.2,0.2-0.2,0.4c0,0.1,0,0.2,0,0.2
				c0,0.1,0.1,0.1,0.2,0.2c0.1,0.1,0.2,0.1,0.4,0.1s0.4,0.1,0.7,0.2c0.8,0.2,1.4,0.4,1.8,0.8c0.4,0.4,0.6,0.9,0.6,1.6
				c0,0.5-0.1,0.9-0.3,1.3c-0.2,0.4-0.5,0.7-0.8,1s-0.7,0.5-1.2,0.6s-1,0.2-1.6,0.2c-1.1,0-2.2-0.3-3.2-0.9l1-2
				c0.8,0.5,1.6,0.8,2.3,0.8c0.3,0,0.5-0.1,0.6-0.2s0.3-0.3,0.3-0.4c0-0.1,0-0.2,0-0.3s-0.1-0.1-0.2-0.2c-0.1-0.1-0.2-0.1-0.4-0.2
				c-0.2,0-0.4-0.1-0.6-0.1c-0.9-0.2-1.5-0.4-1.8-0.8s-0.5-0.8-0.5-1.5c0-0.5,0.1-0.9,0.3-1.2c0.2-0.4,0.4-0.7,0.7-0.9
				c0.3-0.3,0.7-0.4,1.1-0.6c0.4-0.1,0.9-0.2,1.5-0.2c0.9,0,1.8,0.2,2.6,0.5L230.8-44z"/>
			<path class="st13" d="M233.2-49.2c0-0.2,0-0.4,0.1-0.6c0.1-0.2,0.2-0.4,0.3-0.5s0.3-0.3,0.5-0.3c0.2-0.1,0.4-0.1,0.6-0.1
				c0.2,0,0.4,0,0.6,0.1c0.2,0.1,0.4,0.2,0.5,0.3s0.3,0.3,0.3,0.5c0.1,0.2,0.1,0.4,0.1,0.6s0,0.4-0.1,0.6c-0.1,0.2-0.2,0.4-0.3,0.5
				s-0.3,0.3-0.5,0.3c-0.2,0.1-0.4,0.1-0.6,0.1c-0.2,0-0.4,0-0.6-0.1c-0.2-0.1-0.4-0.2-0.5-0.3s-0.3-0.3-0.3-0.5
				C233.3-48.7,233.2-48.9,233.2-49.2z M236.3-46.1v8.1h-2.8v-8.1H236.3z"/>
			<path class="st13" d="M247.2-46.1v7.5c0,0.4,0,0.9-0.1,1.2c-0.1,0.4-0.1,0.7-0.2,0.9c-0.1,0.3-0.3,0.7-0.6,1s-0.6,0.6-1,0.8
				s-0.8,0.4-1.3,0.5s-1,0.2-1.5,0.2c-0.6,0-1.2-0.1-1.7-0.2s-1-0.4-1.4-0.7s-0.7-0.6-1-1s-0.4-0.8-0.5-1.2h3.2
				c0.2,0.5,0.6,0.8,1.4,0.8c0.6,0,1.1-0.2,1.4-0.5c0.3-0.3,0.5-0.8,0.5-1.4V-39c-0.2,0.2-0.4,0.4-0.6,0.5c-0.2,0.1-0.4,0.2-0.6,0.3
				c-0.2,0.1-0.4,0.1-0.6,0.2c-0.2,0-0.5,0.1-0.7,0.1c-0.6,0-1.1-0.1-1.6-0.3s-0.9-0.5-1.2-0.8c-0.4-0.4-0.6-0.8-0.8-1.3
				S238-41.4,238-42c0-0.6,0.1-1.2,0.3-1.7s0.5-1,0.9-1.4s0.8-0.7,1.3-0.9s1-0.3,1.6-0.3c1,0,1.8,0.4,2.4,1.1V-46L247.2-46.1
				L247.2-46.1z M240.8-42.1c0,0.3,0,0.5,0.1,0.7s0.2,0.4,0.4,0.6c0.2,0.2,0.4,0.3,0.6,0.4c0.2,0.1,0.5,0.1,0.7,0.1
				c0.3,0,0.5,0,0.7-0.1s0.4-0.2,0.6-0.4c0.2-0.2,0.3-0.4,0.4-0.6c0.1-0.2,0.1-0.5,0.1-0.7c0-0.3,0-0.5-0.1-0.7s-0.2-0.4-0.4-0.6
				c-0.2-0.2-0.4-0.3-0.6-0.4c-0.2-0.1-0.5-0.1-0.7-0.1c-0.3,0-0.5,0-0.7,0.1s-0.4,0.2-0.6,0.4c-0.2,0.2-0.3,0.4-0.4,0.6
				S240.8-42.3,240.8-42.1z"/>
			<path class="st13" d="M249.2-46.1h2.8v1c0.4-0.5,0.8-0.8,1.2-1s0.9-0.2,1.4-0.2c0.6,0,1.1,0.1,1.5,0.3c0.4,0.2,0.7,0.4,1,0.8
				c0.2,0.3,0.4,0.6,0.5,0.9c0.1,0.3,0.1,0.7,0.1,1.1v5.1h-2.8v-4.1c0-0.4,0-0.7-0.1-1c-0.1-0.2-0.2-0.4-0.3-0.6
				c-0.1-0.1-0.3-0.2-0.4-0.3c-0.2-0.1-0.3-0.1-0.5-0.1c-0.5,0-0.9,0.1-1.1,0.4c-0.3,0.3-0.4,0.7-0.4,1.2v4.3h-2.8L249.2-46.1
				L249.2-46.1z"/>
			<path class="st13" d="M262.1-41.5c0,1.2,0.6,1.8,1.7,1.8c0.6,0,1.1-0.3,1.4-0.8h2.7c-0.6,1.8-1.9,2.8-4.2,2.8
				c-0.7,0-1.3-0.1-1.9-0.3s-1-0.5-1.5-0.9c-0.4-0.4-0.7-0.8-0.9-1.4s-0.3-1.1-0.3-1.8s0.1-1.3,0.3-1.8c0.2-0.5,0.5-1,0.9-1.4
				s0.9-0.7,1.4-0.9c0.6-0.2,1.2-0.3,1.9-0.3c0.7,0,1.3,0.1,1.8,0.3s1,0.5,1.4,0.9s0.7,0.9,0.9,1.4c0.2,0.6,0.3,1.2,0.3,1.9v0.3
				h-5.9V-41.5z M265.5-43.2c-0.1-0.4-0.3-0.7-0.6-1c-0.3-0.2-0.6-0.4-1.1-0.4c-0.4,0-0.8,0.1-1.1,0.3c-0.3,0.2-0.5,0.6-0.5,1h3.3
				V-43.2z"/>
			<path class="st13" d="M269.7-46.1h2.8v1.3c0.3-0.5,0.7-0.9,1.1-1.1c0.4-0.3,1-0.4,1.5-0.4c0.1,0,0.2,0,0.2,0s0.2,0,0.3,0v2.7
				c-0.4-0.2-0.8-0.3-1.2-0.3c-0.7,0-1.2,0.2-1.5,0.6c-0.3,0.4-0.5,1-0.5,1.7v3.5h-2.8v-8H269.7z"/>
		</g>
		<text transform="matrix(1 0 0 1 139.8134 96.3649)" class="st14 st15 st16">App and Web</text>
	</g>
	<g id="designer" class="st1">
		<g class="st17">
			<path d="M119.7,16.5h2.3c0.4,0,0.8,0.1,1.2,0.2c0.4,0.2,0.7,0.4,0.9,0.7c0.3,0.3,0.5,0.6,0.6,1c0.2,0.4,0.2,0.7,0.2,1.1
				s-0.1,0.8-0.2,1.1c-0.2,0.4-0.4,0.7-0.6,1c-0.3,0.3-0.6,0.5-0.9,0.7c-0.4,0.2-0.7,0.2-1.2,0.2h-2.3V16.5z M121.2,21.2h0.4
				c0.3,0,0.5,0,0.7-0.1s0.4-0.2,0.5-0.4s0.3-0.3,0.3-0.5s0.1-0.4,0.1-0.7c0-0.2,0-0.5-0.1-0.7s-0.2-0.4-0.3-0.5
				c-0.1-0.1-0.3-0.3-0.5-0.4s-0.5-0.1-0.7-0.1h-0.4V21.2z"/>
			<path d="M127.1,20.7c0,0.6,0.3,0.9,0.9,0.9c0.3,0,0.6-0.1,0.7-0.4h1.4c-0.3,0.9-1,1.4-2.1,1.4c-0.3,0-0.7-0.1-1-0.2
				s-0.5-0.3-0.7-0.4c-0.2-0.2-0.4-0.4-0.5-0.7s-0.2-0.6-0.2-0.9s0.1-0.6,0.2-0.9s0.3-0.5,0.5-0.7s0.4-0.3,0.7-0.4
				c0.3-0.1,0.6-0.2,0.9-0.2s0.7,0.1,0.9,0.2c0.3,0.1,0.5,0.3,0.7,0.5s0.3,0.4,0.4,0.7c0.1,0.3,0.2,0.6,0.2,1v0.2h-3V20.7z
				 M128.8,19.9c0-0.2-0.1-0.4-0.3-0.5s-0.3-0.2-0.5-0.2s-0.4,0.1-0.5,0.2s-0.2,0.3-0.3,0.5H128.8z"/>
			<path d="M133.7,19.5c-0.3-0.1-0.5-0.2-0.8-0.2c-0.1,0-0.2,0-0.3,0.1s-0.1,0.1-0.1,0.2v0.1c0,0,0,0.1,0.1,0.1c0,0,0.1,0.1,0.2,0.1
				s0.2,0,0.3,0.1c0.4,0.1,0.7,0.2,0.9,0.4s0.3,0.5,0.3,0.8c0,0.2,0,0.5-0.1,0.6c-0.1,0.2-0.2,0.4-0.4,0.5s-0.4,0.2-0.6,0.3
				c-0.2,0.1-0.5,0.1-0.8,0.1c-0.6,0-1.1-0.2-1.6-0.5l0.5-1c0.4,0.3,0.8,0.4,1.2,0.4c0.1,0,0.2,0,0.3-0.1s0.1-0.1,0.1-0.2
				s0-0.1,0-0.1s0-0.1-0.1-0.1c0,0-0.1-0.1-0.2-0.1c-0.1,0-0.2,0-0.3-0.1c-0.4-0.1-0.8-0.2-0.9-0.4s-0.3-0.4-0.3-0.7
				c0-0.2,0-0.4,0.1-0.6s0.2-0.3,0.4-0.5s0.4-0.2,0.6-0.3s0.5-0.1,0.8-0.1c0.5,0,0.9,0.1,1.3,0.3L133.7,19.5z"/>
			<path d="M135,16.9c0-0.1,0-0.2,0.1-0.3s0.1-0.2,0.2-0.3c0.1-0.1,0.2-0.1,0.3-0.2c0.1,0,0.2-0.1,0.3-0.1s0.2,0,0.3,0.1
				s0.2,0.1,0.3,0.2s0.1,0.2,0.2,0.3s0.1,0.2,0.1,0.3s0,0.2-0.1,0.3s-0.1,0.2-0.2,0.3c-0.1,0.1-0.2,0.1-0.3,0.2s-0.2,0.1-0.3,0.1
				s-0.2,0-0.3-0.1c-0.1,0-0.2-0.1-0.3-0.2s-0.1-0.2-0.2-0.3S135,17,135,16.9z M136.5,18.4v4.1h-1.4v-4.1H136.5z"/>
			<path d="M142.1,18.4v3.8c0,0.2,0,0.4,0,0.6s-0.1,0.3-0.1,0.5c-0.1,0.2-0.2,0.3-0.3,0.5s-0.3,0.3-0.5,0.4s-0.4,0.2-0.7,0.3
				c-0.2,0.1-0.5,0.1-0.8,0.1s-0.6,0-0.9-0.1s-0.5-0.2-0.7-0.3s-0.4-0.3-0.5-0.5s-0.2-0.4-0.3-0.6h1.6c0.1,0.3,0.3,0.4,0.7,0.4
				c0.3,0,0.5-0.1,0.7-0.3c0.2-0.2,0.2-0.4,0.2-0.7v-0.4c-0.1,0.1-0.2,0.2-0.3,0.3c-0.1,0.1-0.2,0.1-0.3,0.2c-0.1,0-0.2,0.1-0.3,0.1
				s-0.2,0-0.4,0c-0.3,0-0.6-0.1-0.8-0.2s-0.5-0.2-0.6-0.4c-0.2-0.2-0.3-0.4-0.4-0.7c-0.1-0.3-0.1-0.5-0.1-0.8s0.1-0.6,0.2-0.9
				c0.1-0.3,0.3-0.5,0.4-0.7c0.2-0.2,0.4-0.4,0.7-0.5s0.5-0.2,0.8-0.2c0.5,0,0.9,0.2,1.2,0.5v-0.4C140.6,18.4,142.1,18.4,142.1,18.4
				z M138.8,20.5c0,0.1,0,0.3,0.1,0.4c0,0.1,0.1,0.2,0.2,0.3c0.1,0.1,0.2,0.2,0.3,0.2s0.2,0.1,0.4,0.1c0.1,0,0.2,0,0.4-0.1
				c0.1,0,0.2-0.1,0.3-0.2s0.1-0.2,0.2-0.3c0.1-0.1,0.1-0.2,0.1-0.4c0-0.1,0-0.3-0.1-0.4s-0.1-0.2-0.2-0.3c-0.1-0.1-0.2-0.2-0.3-0.2
				s-0.2-0.1-0.4-0.1c-0.1,0-0.2,0-0.4,0.1s-0.2,0.1-0.3,0.2s-0.2,0.2-0.2,0.3S138.8,20.3,138.8,20.5z"/>
			<path d="M143.1,18.4h1.4V19c0.2-0.2,0.4-0.4,0.6-0.5c0.2-0.1,0.4-0.1,0.7-0.1s0.5,0,0.7,0.1s0.4,0.2,0.5,0.4
				c0.1,0.1,0.2,0.3,0.2,0.5s0.1,0.4,0.1,0.6v2.6H146v-2.1c0-0.2,0-0.4,0-0.5s-0.1-0.2-0.2-0.3c-0.1-0.1-0.1-0.1-0.2-0.1
				c-0.1,0-0.2,0-0.3,0c-0.2,0-0.4,0.1-0.6,0.2c-0.1,0.1-0.2,0.4-0.2,0.6v2.2h-1.4V18.4z"/>
			<path d="M149.7,20.7c0,0.6,0.3,0.9,0.9,0.9c0.3,0,0.6-0.1,0.7-0.4h1.4c-0.3,0.9-1,1.4-2.1,1.4c-0.3,0-0.7-0.1-1-0.2
				s-0.5-0.3-0.7-0.4c-0.2-0.2-0.4-0.4-0.5-0.7s-0.2-0.6-0.2-0.9s0.1-0.6,0.2-0.9c0.1-0.3,0.3-0.5,0.5-0.7s0.4-0.3,0.7-0.4
				s0.6-0.2,0.9-0.2c0.3,0,0.7,0.1,0.9,0.2c0.3,0.1,0.5,0.3,0.7,0.5s0.3,0.4,0.4,0.7c0.1,0.3,0.2,0.6,0.2,1v0.2h-3V20.7z
				 M151.4,19.9c0-0.2-0.1-0.4-0.3-0.5s-0.3-0.2-0.5-0.2s-0.4,0.1-0.5,0.2s-0.2,0.3-0.3,0.5H151.4z"/>
			<path d="M153.6,18.4h1.4v0.7c0.2-0.2,0.3-0.4,0.6-0.6c0.2-0.1,0.5-0.2,0.8-0.2h0.1c0,0,0.1,0,0.2,0v1.4c-0.2-0.1-0.4-0.1-0.6-0.1
				c-0.3,0-0.6,0.1-0.8,0.3s-0.3,0.5-0.3,0.9v1.8h-1.4V18.4z"/>
		</g>
	</g>
</g>
<g id="Layer_2" class="st18">
	<path class="st13" d="M97,15.8h3.4c0.6,0,1.2,0.1,1.8,0.3c0.6,0.3,1,0.6,1.3,1c0.4,0.4,0.7,0.9,0.9,1.5c0.3,0.6,0.3,1,0.3,1.6
		c0,0.6-0.1,1.2-0.3,1.6c-0.3,0.6-0.6,1-0.9,1.5c-0.4,0.4-0.9,0.7-1.3,1c-0.6,0.3-1,0.3-1.8,0.3H97V15.8z M99.2,22.8h0.6
		c0.4,0,0.7,0,1-0.1s0.6-0.3,0.7-0.6c0.1-0.3,0.4-0.4,0.4-0.7s0.1-0.6,0.1-1c0-0.3,0-0.7-0.1-1s-0.3-0.6-0.4-0.7s-0.4-0.4-0.7-0.6
		s-0.7-0.1-1-0.1h-0.6V22.8z"/>
	<path class="st13" d="M108,22c0,0.9,0.4,1.3,1.3,1.3c0.4,0,0.9-0.1,1-0.6h2.1c-0.4,1.3-1.5,2.1-3.1,2.1c-0.4,0-1-0.1-1.5-0.3
		c-0.4-0.1-0.7-0.4-1-0.6c-0.3-0.3-0.6-0.6-0.7-1s-0.3-0.9-0.3-1.3s0.1-0.9,0.3-1.3c0.1-0.4,0.4-0.7,0.7-1c0.3-0.3,0.6-0.4,1-0.6
		c0.4-0.1,0.9-0.3,1.3-0.3c0.4,0,1,0.1,1.3,0.3c0.4,0.1,0.7,0.4,1,0.7s0.4,0.6,0.6,1c0.1,0.4,0.3,0.9,0.3,1.5v0.3H108V22z
		 M110.5,20.9c0-0.3-0.1-0.6-0.4-0.7c-0.3-0.1-0.4-0.3-0.7-0.3s-0.6,0.1-0.7,0.3c-0.1,0.1-0.3,0.4-0.4,0.7H110.5z"/>
	<path class="st13" d="M117.8,20.3c-0.4-0.1-0.7-0.3-1.2-0.3c-0.1,0-0.3,0-0.4,0.1c-0.1,0.1-0.1,0.1-0.1,0.3v0.1c0,0,0,0.1,0.1,0.1
		c0,0,0.1,0.1,0.3,0.1c0.1,0,0.3,0,0.4,0.1c0.6,0.1,1,0.3,1.3,0.6c0.3,0.3,0.4,0.7,0.4,1.2c0,0.3,0,0.7-0.1,0.9
		c-0.1,0.3-0.3,0.6-0.6,0.7s-0.6,0.3-0.9,0.4c-0.3,0.1-0.7,0.1-1.2,0.1c-0.9,0-1.6-0.3-2.4-0.7l0.7-1.5c0.6,0.4,1.2,0.6,1.8,0.6
		c0.1,0,0.3,0,0.4-0.1s0.1-0.1,0.1-0.3s0-0.1,0-0.1s0-0.1-0.1-0.1c0,0-0.1-0.1-0.3-0.1c-0.1,0-0.3,0-0.4-0.1
		c-0.6-0.1-1.2-0.3-1.3-0.6c-0.1-0.3-0.4-0.6-0.4-1c0-0.3,0-0.6,0.1-0.9c0.1-0.3,0.3-0.4,0.6-0.7c0.3-0.3,0.6-0.3,0.9-0.4
		c0.3-0.1,0.7-0.1,1.2-0.1c0.7,0,1.3,0.1,1.9,0.4L117.8,20.3z"/>
	<path class="st13" d="M119.7,16.4c0-0.1,0-0.3,0.1-0.4c0.1-0.1,0.1-0.3,0.3-0.4c0.1-0.1,0.3-0.1,0.4-0.3c0.1,0,0.3-0.1,0.4-0.1
		s0.3,0,0.4,0.1s0.3,0.1,0.4,0.3c0.1,0.1,0.1,0.3,0.3,0.4c0.1,0.1,0.1,0.3,0.1,0.4c0,0.1,0,0.3-0.1,0.4c-0.1,0.1-0.1,0.3-0.3,0.4
		c-0.1,0.1-0.3,0.1-0.4,0.3s-0.3,0.1-0.4,0.1s-0.3,0-0.4-0.1c-0.1,0-0.3-0.1-0.4-0.3c-0.1-0.1-0.1-0.3-0.3-0.4
		C119.7,16.7,119.7,16.5,119.7,16.4z M122,18.6v6.1h-2.1v-6.1H122z"/>
	<path class="st13" d="M130.3,18.6v5.6c0,0.3,0,0.6,0,0.9s-0.1,0.4-0.1,0.7c-0.1,0.3-0.3,0.4-0.4,0.7c-0.1,0.3-0.4,0.4-0.7,0.6
		c-0.3,0.1-0.6,0.3-1,0.4c-0.3,0.1-0.7,0.1-1.2,0.1c-0.4,0-0.9,0-1.3-0.1c-0.4-0.1-0.7-0.3-1-0.4c-0.3-0.1-0.6-0.4-0.7-0.7
		s-0.3-0.6-0.4-0.9h2.4c0.1,0.4,0.4,0.6,1,0.6c0.4,0,0.7-0.1,1-0.4c0.3-0.3,0.3-0.6,0.3-1v-0.6c-0.1,0.1-0.3,0.3-0.4,0.4
		c-0.1,0.1-0.3,0.1-0.4,0.3c-0.1,0-0.3,0.1-0.4,0.1c-0.1,0-0.3,0-0.6,0c-0.4,0-0.9-0.1-1.2-0.3c-0.3-0.1-0.7-0.3-0.9-0.6
		c-0.3-0.3-0.4-0.6-0.6-1c-0.1-0.4-0.1-0.7-0.1-1.2c0-0.4,0.1-0.9,0.3-1.3c0.1-0.4,0.4-0.7,0.6-1c0.3-0.3,0.6-0.6,1-0.7
		c0.4-0.1,0.7-0.3,1.2-0.3c0.7,0,1.3,0.3,1.8,0.7v-0.6C128.1,18.6,130.3,18.6,130.3,18.6z M125.4,21.7c0,0.1,0,0.4,0.1,0.6
		c0,0.1,0.1,0.3,0.3,0.4c0.1,0.1,0.3,0.3,0.4,0.3c0.1,0,0.3,0.1,0.6,0.1c0.1,0,0.3,0,0.6-0.1c0.1,0,0.3-0.1,0.4-0.3
		c0.1-0.1,0.1-0.3,0.3-0.4c0.1-0.1,0.1-0.3,0.1-0.6c0-0.1,0-0.4-0.1-0.6c-0.1-0.1-0.1-0.3-0.3-0.4c-0.1-0.1-0.3-0.3-0.4-0.3
		c-0.1,0-0.3-0.1-0.6-0.1c-0.1,0-0.3,0-0.6,0.1c-0.3,0.1-0.3,0.1-0.4,0.3c-0.1,0.1-0.3,0.3-0.3,0.4
		C125.5,21.3,125.4,21.4,125.4,21.7z"/>
	<path class="st13" d="M131.8,18.6h2.1v0.9c0.3-0.3,0.6-0.6,0.9-0.7c0.3-0.1,0.6-0.1,1-0.1s0.7,0,1,0.1c0.3,0.1,0.6,0.3,0.7,0.6
		c0.1,0.1,0.3,0.4,0.3,0.7s0.1,0.6,0.1,0.9v3.9h-2.1v-3.1c0-0.3,0-0.6,0-0.7s-0.1-0.3-0.3-0.4c-0.1-0.1-0.1-0.1-0.3-0.1
		c-0.1,0-0.3,0-0.4,0c-0.3,0-0.6,0.1-0.9,0.3c-0.1,0.1-0.3,0.6-0.3,0.9v3.3h-2.1v-6.2H131.8z"/>
	<path class="st13" d="M141.6,22c0,0.9,0.4,1.3,1.3,1.3c0.4,0,0.9-0.1,1-0.6h2.1c-0.4,1.3-1.5,2.1-3.1,2.1c-0.4,0-1-0.1-1.5-0.3
		s-0.7-0.4-1-0.6c-0.3-0.3-0.6-0.6-0.7-1c-0.1-0.4-0.3-0.9-0.3-1.3s0.1-0.9,0.3-1.3c0.1-0.4,0.4-0.7,0.7-1c0.3-0.3,0.6-0.4,1-0.6
		s0.9-0.3,1.3-0.3c0.4,0,1,0.1,1.3,0.3c0.4,0.1,0.7,0.4,1,0.7c0.3,0.3,0.4,0.6,0.6,1c0.1,0.4,0.3,0.9,0.3,1.5v0.3h-4.5V22z
		 M144.1,20.9c0-0.3-0.1-0.6-0.4-0.7c-0.3-0.1-0.4-0.3-0.7-0.3c-0.3,0-0.6,0.1-0.7,0.3c-0.1,0.1-0.3,0.4-0.4,0.7H144.1z"/>
	<path class="st13" d="M147.4,18.6h2.1v1c0.3-0.3,0.4-0.6,0.9-0.9c0.3-0.1,0.7-0.3,1.2-0.3h0.1c0,0,0.1,0,0.3,0v2.1
		c-0.3-0.1-0.6-0.1-0.9-0.1c-0.4,0-0.9,0.1-1.2,0.4c-0.3,0.3-0.4,0.7-0.4,1.3v2.7h-2.1V18.6z"/>
</g>
</svg>
