<?xml version="1.0" encoding="utf-8"?>
<!-- Generator: Adobe Illustrator 25.2.1, SVG Export Plug-In . SVG Version: 6.00 Build 0)  -->
<!DOCTYPE svg PUBLIC "-//W3C//DTD SVG 1.1//EN" "http://www.w3.org/Graphics/SVG/1.1/DTD/svg11.dtd" [
	<!ENTITY ns_extend "http://ns.adobe.com/Extensibility/1.0/">
	<!ENTITY ns_ai "http://ns.adobe.com/AdobeIllustrator/10.0/">
	<!ENTITY ns_graphs "http://ns.adobe.com/Graphs/1.0/">
	<!ENTITY ns_vars "http://ns.adobe.com/Variables/1.0/">
	<!ENTITY ns_imrep "http://ns.adobe.com/ImageReplacement/1.0/">
	<!ENTITY ns_sfw "http://ns.adobe.com/SaveForWeb/1.0/">
	<!ENTITY ns_custom "http://ns.adobe.com/GenericCustomNamespace/1.0/">
	<!ENTITY ns_adobe_xpath "http://ns.adobe.com/XPath/1.0/">
]>
<svg version="1.1" id="Severson_Design_Logo" xmlns:x="&ns_extend;" xmlns:i="&ns_ai;" xmlns:graph="&ns_graphs;"
	 xmlns="http://www.w3.org/2000/svg" xmlns:xlink="http://www.w3.org/1999/xlink" x="0px" y="0px" viewBox="0 0 200 50"
	 style="enable-background:new 0 0 200 50;" xml:space="preserve">
<style type="text/css">
	.st0{fill:url(#background_1_);}
	.st1{opacity:0.15;}
	.st2{fill:#FFFFFF;stroke:#FFFFFF;stroke-miterlimit:10;}
	.st3{fill:#FFFFFF;stroke:#663399;stroke-width:0.1618;stroke-miterlimit:10;}
	.st4{fill:#6699CC;}
</style>
<metadata>
	<sfw  xmlns="&ns_sfw;">
		<slices></slices>
		<sliceSourceBounds  bottomLeftOrigin="true" height="50" width="200" x="0" y="0"></sliceSourceBounds>
	</sfw>
</metadata>
<linearGradient id="background_1_" gradientUnits="userSpaceOnUse" x1="100" y1="-4732.4194" x2="100" y2="-4813.3379" gradientTransform="matrix(1 0 0 -1 0 -4750)">
	<stop  offset="0.2531" style="stop-color:#6F89D6"/>
	<stop  offset="0.2631" style="stop-color:#6F87D4"/>
	<stop  offset="0.4257" style="stop-color:#6B62BB"/>
	<stop  offset="0.5778" style="stop-color:#6848A8"/>
	<stop  offset="0.7141" style="stop-color:#67399D"/>
	<stop  offset="0.821" style="stop-color:#663399"/>
</linearGradient>
<path id="background" class="st0" d="M190,50H0V10C0,4.5,4.5,0,10,0h190v40C200,45.5,195.5,50,190,50z"/>
<g id="UI_x2F_UX" class="st1">
	<path class="st2" d="M94.9,12h4.2v18.5c0,1.9,0.2,3.1,0.6,3.8c0.4,0.6,1.3,0.9,2.5,0.9c1.2,0,2.1-0.3,2.5-0.8
		c0.4-0.6,0.6-1.7,0.6-3.4V12h4.2v19c0,2.8-0.5,4.8-1.6,5.8c-1.3,1.1-3.2,1.7-5.7,1.7c-2.8,0-4.8-0.7-6-2.2c-0.8-1-1.2-2.9-1.2-5.8
		V12z"/>
	<path class="st2" d="M114.3,12h4.3v26.2h-4.3V12z"/>
	<path class="st2" d="M142.3,12h4.2v18.5c0,1.9,0.2,3.1,0.6,3.8c0.4,0.6,1.3,0.9,2.5,0.9s2.1-0.3,2.5-0.8c0.4-0.6,0.6-1.7,0.6-3.4
		V12h4.2v19c0,2.8-0.5,4.8-1.6,5.8c-1.3,1.1-3.2,1.7-5.7,1.7c-2.8,0-4.8-0.7-6-2.2c-0.8-1-1.2-2.9-1.2-5.8V12z"/>
	<path class="st2" d="M159.5,12h4.1l2.2,5.1c0.9,2,1.4,3.5,1.5,4.4c0.1-0.6,0.3-1.1,0.5-1.7c0.2-0.5,0.4-1.1,0.6-1.6l0.3-0.8l2-5.4
		h4.3l-5.8,12.9l5.8,13.3h-4.3l-2.1-5c-0.4-1-0.8-1.9-1-2.7c-0.3-0.8-0.4-1.5-0.6-2.1c-0.1,0.8-0.3,1.5-0.6,2.2l-0.7,1.9l-0.4,1
		l-1.8,4.7h-4.5l6-13.3L159.5,12z"/>
	<polygon class="st2" points="136,10.9 121.2,39.1 124.5,39.1 139.3,10.9 	"/>
</g>
<g id="Logo">
	<path class="st3" d="M26.2,31.5v-0.6c0-0.3-0.2-0.5-0.3-0.7c-0.3-0.3-0.5-0.3-0.8-0.3h-0.3v-0.2h6.8c2.1-0.1,3.8,0.5,5.2,1.7
		c0.4,0.4,0.8,0.9,1.1,1.4l0,0c0.3,0.5,0.5,1.1,0.6,1.7c0.1,0.5,0.2,1,0.2,1.6c0,2-0.6,3.6-1.9,4.8c-1.2,1.1-3.1,1.7-5.2,1.7h-6.7
		v-0.3H25c0.3,0,0.6-0.2,0.8-0.3c0.3-0.3,0.3-0.5,0.3-0.8v-6.7 M29,35.2v6.7h2.3c0.9,0,1.7-0.3,2.3-0.7c0.6-0.4,1.1-1.1,1.6-2
		c0.3-0.8,0.5-1.8,0.5-2.8c0-0.4,0-0.8-0.1-1.1c-0.1-0.5-0.2-1-0.3-1.5c-0.1-0.3-0.2-0.4-0.3-0.7c-0.2-0.4-0.4-0.8-0.6-1.1
		c-0.7-1-1.8-1.6-3.1-1.6H29v2"/>
	<path class="st3" d="M26.2,31.5l-0.1,3.1c-1.6-0.4-3.1-1.1-4.5-2.2c-1.9-1.4-2.9-3.7-2.9-7c0-0.2,0-1.6,0.4-2.9
		c0.3-0.7,0.8-1.5,1.6-1.9c-0.3,0.4-0.6,0.8-0.7,1.3c-0.2,0.9-0.2,1.8-0.2,1.8c0,2.7,1.4,4.9,4.1,6.6C24.8,30.9,25.5,31.2,26.2,31.5
		z"/>
	<path class="st3" d="M44.4,25.4c0,0.3-0.1,1.2-0.1,1.6c-0.3,2.1-1.2,4-3,5.8c-0.7,0.8-1.7,1.4-3,1.8c-0.9,0.3-1.8,0.5-3,0.6
		c-0.8,0.1-1.7,0.2-2.7,0.2c-0.7,0-1.5-0.1-2.3-0.1c-0.4-0.1-1-0.1-1.5-0.2v-2.7c1.7,0.4,3.6,0.6,5.7,0.6c0.2,0,0.3,0,0.3,0
		c1,0,1.9-0.1,2.7-0.3l0,0c1.1-0.3,2.1-0.6,2.8-1.1c1.2-1,1.8-2.4,1.8-4.4c0-2.5-1-4.1-3.1-5C37.4,21.5,27,18.9,25,18.1
		c-2.1-0.9-3.2-3-3.2-5.8c0-1.8,0.6-3.5,1.9-4.8c1.3-1.3,2.8-2,4.5-2h11.3c0.1,0.6,0.3,1.3,0.4,1.8c0.4,0.9,1.7,3.1,1.9,3.6
		c0.3,0.5,0.4,1.1,0.6,1.7c-0.3-0.4-0.7-0.8-1-1.1c-0.3-0.3-0.7-0.7-1-1c-1.5-1.3-3.1-2.4-4.8-3.1c-1.7-0.7-3.7-1-6.1-1
		c-2.2,0-3.8,0.4-4.8,1.3c-1,1-1.4,2-1.4,3.1c0,1.9,0.9,3.1,2.6,3.8s13,3.2,15.2,4.5C43.3,20.2,44.4,22.2,44.4,25.4z"/>
	<path class="st3" d="M51.8,29.1h-4.5c0.2,1.1,0.7,1.5,1.6,1.5c0.5,0,1-0.2,1.7-0.6l1,1.3c-0.7,0.6-1.7,1-2.9,1
		c-2.4,0-3.7-1.6-3.7-3.8c0-2.1,1.1-3.8,3.5-3.8c2.1,0,3.4,1.3,3.4,3.7C51.8,28.5,51.8,28.9,51.8,29.1z M49.6,27.7
		c0-0.9-0.3-1.5-1-1.5c-0.6,0-1,0.3-1,1.6L49.6,27.7L49.6,27.7L49.6,27.7z"/>
	<path class="st3" d="M57.3,31.9h-2.8l-2.3-7.2h2.6l1,5.4l1.1-5.4h2.4L57.3,31.9z"/>
	<path class="st3" d="M66.7,29.1h-4.5c0.2,1.1,0.7,1.5,1.6,1.5c0.5,0,1-0.2,1.7-0.6l1,1.3c-0.7,0.5-1.7,1-2.9,1
		c-2.4,0-3.7-1.6-3.7-3.8c0-2.1,1.1-3.8,3.5-3.8c2.1,0,3.4,1.3,3.4,3.7C66.8,28.5,66.7,28.9,66.7,29.1z M64.4,27.7
		c0-0.9-0.3-1.5-1-1.5c-0.6,0-1,0.3-1,1.6L64.4,27.7L64.4,27.7L64.4,27.7z"/>
	<path class="st3" d="M72.8,24.8l-0.3,2.3C72.2,27,72,27,71.8,27c-0.9,0-1.2,0.6-1.4,1.7V32h-2.4v-7.2h2.1l0.2,1.3
		c0.3-1,1-1.6,1.8-1.6C72.4,24.6,72.6,24.7,72.8,24.8z"/>
	<path class="st3" d="M79,25.6l-0.9,1.3c-0.5-0.3-1.1-0.5-1.7-0.5c-0.5,0-0.7,0.2-0.7,0.4c0,0.3,0.2,0.4,1.5,0.8
		c1.4,0.4,2.1,1,2.1,2.3c0,1.5-1.4,2.4-3.3,2.4c-1.2,0-2.4-0.4-3.1-1l1.1-1.3c0.5,0.4,1.2,0.7,1.8,0.7c0.5,0,0.9-0.2,0.9-0.5
		c0-0.4-0.2-0.5-1.5-0.9c-1.4-0.4-2.1-1.1-2.1-2.3c0-1.2,1.1-2.3,3.1-2.3C77.3,24.5,78.4,25,79,25.6z"/>
	<path class="st3" d="M87.3,28.4c0,2.3-1.3,3.8-3.6,3.8c-2.2,0-3.6-1.4-3.6-3.8c0-2.3,1.3-3.8,3.6-3.8C86,24.6,87.3,26,87.3,28.4z
		 M82.6,28.4c0,1.5,0.3,2.1,1.1,2.1s1.1-0.6,1.1-2.1c0-1.5-0.3-2.1-1.1-2.1C82.9,26.4,82.6,27,82.6,28.4z"/>
	<path class="st3" d="M95.1,26.8V32h-2.4v-4.8c0-0.6-0.3-0.8-0.5-0.8c-0.3,0-0.7,0.3-1,0.8V32h-2.4v-7.2h2.1l0.2,0.8
		c0.6-0.7,1.3-1,2.2-1C94.4,24.6,95.1,25.4,95.1,26.8z"/>
	<path class="st3" d="M44.3,39.8h-3.5c0.1,1,0.5,1.1,1.2,1.1c0.4,0,0.8-0.2,1.3-0.5l0.8,1c-0.5,0.4-1.3,0.8-2.3,0.8
		c-2,0-3-1.2-3-3.1c0-1.7,1-3.1,2.7-3.1c1.7,0,2.7,1,2.7,3C44.4,39.4,44.3,39.6,44.3,39.8z M42.5,38.8c0-0.7-0.2-1.2-0.8-1.2
		c-0.5,0-0.8,0.3-0.8,1.2H42.5z"/>
	<path class="st3" d="M49.7,37l-0.7,1c-0.4-0.3-1-0.4-1.4-0.4c-0.4,0-0.6,0.2-0.6,0.3c0,0.3,0.1,0.3,1.1,0.6
		c1.1,0.3,1.7,0.8,1.7,1.8c0,1.1-1.1,1.9-2.6,1.9c-1,0-1.8-0.3-2.4-0.9l1-1c0.4,0.3,1,0.5,1.5,0.5c0.4,0,0.7-0.2,0.7-0.4
		s-0.2-0.4-1.1-0.7c-1-0.3-1.7-1-1.7-1.8c0-1,0.9-1.8,2.4-1.8C48.4,36.1,49.2,36.6,49.7,37z"/>
	<path class="st3" d="M53.1,34.4c0,0.6-0.4,1-1,1s-1-0.4-1-1s0.4-1,1-1S53.1,33.9,53.1,34.4z M52.9,42.1H51v-5.7h1.9V42.1z"/>
	<path class="st3" d="M59.8,36.8c-0.3,0.2-1,0.3-1.7,0.3c0.7,0.3,1,0.7,1,1.5c0,1-1,1.9-2.4,1.9c-0.3,0-0.4,0-0.6-0.1
		c-0.1,0.1-0.2,0.2-0.2,0.3c0,0.2,0.1,0.3,0.6,0.3h0.9c1.4,0,2.2,0.7,2.2,1.7c0,1.2-1,1.9-3.1,1.9c-2.2,0-2.8-0.7-2.8-1.8h1.7
		c0,0.4,0.2,0.6,1.1,0.6s1.1-0.3,1.1-0.5s-0.2-0.5-0.7-0.5h-0.8c-1.3,0-1.8-0.5-1.8-1.1c0-0.4,0.3-0.9,0.7-1.1c-0.7-0.4-1-1-1-1.7
		c0-1.3,1-2.1,2.6-2.1c1.2,0.1,2-0.3,2.7-0.8L59.8,36.8z M55.9,38.3c0,0.6,0.3,0.9,0.7,0.9c0.5,0,0.7-0.3,0.7-0.9
		c0-0.5-0.3-0.8-0.7-0.8C56.2,37.4,55.9,37.8,55.9,38.3z"/>
	<path class="st3" d="M65.7,38v4.1h-1.9v-3.8c0-0.5-0.2-0.6-0.4-0.6c-0.3,0-0.6,0.3-0.8,0.6v3.8h-1.9v-5.7h1.7l0.2,0.6
		c0.5-0.5,1-0.8,1.7-0.8C65.1,36.2,65.7,36.9,65.7,38z"/>
</g>
<g id="App_and_Web">
	<path class="st4" d="M116.5,25.6l-0.6,1.1h-0.8l2.6-5l1.6,5h-0.7l-0.3-1.1H116.5z M116.8,25h1.3l-0.5-1.7L116.8,25z"/>
	<path class="st4" d="M120.8,23.9l0,0.3c0.3-0.2,0.6-0.4,0.9-0.4c0.4,0,0.7,0.1,0.9,0.4c0.3,0.3,0.4,0.6,0.4,1
		c0,0.4-0.1,0.8-0.4,1.1c-0.3,0.3-0.6,0.5-1.1,0.5c-0.2,0-0.4,0-0.5-0.1c-0.1-0.1-0.3-0.2-0.5-0.4l-0.2,2h-0.7l0.5-4.5H120.8z
		 M122.3,25.2c0-0.3-0.1-0.5-0.2-0.6c-0.1-0.2-0.3-0.2-0.6-0.2c-0.3,0-0.5,0.1-0.7,0.3c-0.2,0.2-0.3,0.4-0.3,0.7
		c0,0.3,0.1,0.5,0.2,0.6c0.2,0.2,0.3,0.2,0.6,0.2c0.3,0,0.5-0.1,0.6-0.3C122.2,25.8,122.3,25.5,122.3,25.2z"/>
	<path class="st4" d="M124.6,23.9l0,0.3c0.3-0.2,0.6-0.4,0.9-0.4c0.4,0,0.7,0.1,0.9,0.4c0.3,0.3,0.4,0.6,0.4,1
		c0,0.4-0.1,0.8-0.4,1.1c-0.3,0.3-0.6,0.5-1.1,0.5c-0.2,0-0.4,0-0.5-0.1c-0.1-0.1-0.3-0.2-0.5-0.4l-0.2,2h-0.7l0.5-4.5H124.6z
		 M126.1,25.2c0-0.3-0.1-0.5-0.2-0.6c-0.1-0.2-0.3-0.2-0.6-0.2c-0.3,0-0.5,0.1-0.7,0.3c-0.2,0.2-0.3,0.4-0.3,0.7
		c0,0.3,0.1,0.5,0.2,0.6c0.2,0.2,0.3,0.2,0.6,0.2c0.3,0,0.5-0.1,0.6-0.3C126,25.8,126.1,25.5,126.1,25.2z"/>
	<path class="st4" d="M132.4,23.9l-0.3,2.8h-0.7l0-0.3c-0.3,0.2-0.6,0.4-0.9,0.4c-0.4,0-0.7-0.1-0.9-0.4c-0.2-0.3-0.4-0.6-0.4-1
		c0-0.5,0.1-0.9,0.4-1.2c0.3-0.3,0.6-0.4,1.1-0.4c0.2,0,0.4,0,0.5,0.1c0.1,0.1,0.3,0.2,0.4,0.3l0-0.4H132.4z M131.6,25.2
		c0-0.3-0.1-0.5-0.2-0.6c-0.1-0.2-0.3-0.2-0.6-0.2c-0.2,0-0.5,0.1-0.6,0.3c-0.2,0.2-0.3,0.4-0.3,0.7c0,0.2,0.1,0.5,0.2,0.6
		c0.1,0.2,0.3,0.2,0.5,0.2c0.2,0,0.5-0.1,0.6-0.3C131.5,25.7,131.6,25.5,131.6,25.2z"/>
	<path class="st4" d="M134,23.9l0,0.3c0.3-0.2,0.5-0.3,0.8-0.3c0.3,0,0.5,0.1,0.7,0.2c0.2,0.2,0.2,0.4,0.2,0.6c0,0.1,0,0.3,0,0.5
		l-0.2,1.5h-0.7l0.2-1.7c0-0.1,0-0.1,0-0.2c0,0,0-0.1,0-0.1c0-0.3-0.1-0.4-0.4-0.4c-0.2,0-0.3,0.1-0.4,0.2c-0.1,0.1-0.2,0.2-0.2,0.3
		c0,0.1,0,0.1-0.1,0.2c0,0.1,0,0.2,0,0.3l-0.2,1.4H133l0.3-2.8H134z"/>
	<path class="st4" d="M139.9,21.6l-0.6,5.1h-0.7l0-0.3c-0.2,0.1-0.3,0.2-0.4,0.3c-0.1,0-0.3,0.1-0.4,0.1c-0.4,0-0.7-0.1-1-0.4
		c-0.3-0.3-0.4-0.6-0.4-1c0-0.4,0.1-0.8,0.4-1.1c0.3-0.3,0.6-0.4,1-0.4c0.2,0,0.4,0,0.5,0.1c0.2,0.1,0.3,0.2,0.5,0.4l0.3-2.7H139.9z
		 M138.8,25.2c0-0.2-0.1-0.4-0.2-0.6c-0.1-0.1-0.3-0.2-0.6-0.2c-0.3,0-0.5,0.1-0.6,0.3c-0.2,0.2-0.3,0.4-0.3,0.7
		c0,0.3,0.1,0.5,0.2,0.6c0.1,0.2,0.3,0.2,0.6,0.2c0.3,0,0.5-0.1,0.6-0.3C138.7,25.7,138.8,25.5,138.8,25.2z"/>
	<path class="st4" d="M148.6,22.1l-2.4,4.9l-0.9-3.3l-1.6,3.3l-1.4-4.9h0.7l0.9,3.2l1.6-3.3l0.9,3.3l1.5-3.1H148.6z"/>
	<path class="st4" d="M148.9,25.6c0,0.2,0.1,0.4,0.2,0.5c0.1,0.1,0.3,0.2,0.6,0.2c0.3,0,0.6-0.1,0.7-0.4l0.5,0.3
		c-0.2,0.2-0.4,0.4-0.5,0.5c-0.2,0.1-0.4,0.1-0.7,0.1c-0.4,0-0.8-0.1-1.1-0.4c-0.3-0.3-0.4-0.6-0.4-1c0-0.5,0.1-0.8,0.4-1.1
		c0.3-0.3,0.6-0.5,1.1-0.5c0.4,0,0.8,0.1,1,0.4c0.2,0.3,0.4,0.6,0.4,1.1c0,0,0,0.1,0,0.2H148.9z M150.4,25c-0.1-0.4-0.3-0.7-0.7-0.7
		c-0.4,0-0.6,0.2-0.8,0.7H150.4z"/>
	<path class="st4" d="M152.9,21.6l-0.3,2.5c0.2-0.1,0.3-0.2,0.5-0.3c0.1,0,0.3-0.1,0.4-0.1c0.4,0,0.7,0.1,1,0.4
		c0.3,0.3,0.4,0.6,0.4,1c0,0.4-0.1,0.8-0.4,1.1c-0.3,0.3-0.6,0.5-1.1,0.5c-0.4,0-0.7-0.1-1-0.4l0,0.4h-0.7l0.6-5.1H152.9z
		 M154.2,25.2c0-0.3-0.1-0.5-0.2-0.6c-0.2-0.2-0.3-0.2-0.6-0.2c-0.3,0-0.5,0.1-0.6,0.3c-0.2,0.2-0.3,0.4-0.3,0.7
		c0,0.3,0.1,0.5,0.2,0.6c0.1,0.2,0.3,0.2,0.6,0.2c0.3,0,0.5-0.1,0.7-0.3C154.1,25.8,154.2,25.5,154.2,25.2z"/>
</g>
</svg>
