<?xml version="1.0" encoding="utf-8"?>
<!-- Generator: Adobe Illustrator 25.2.0, SVG Export Plug-In . SVG Version: 6.00 Build 0)  -->
<!DOCTYPE svg PUBLIC "-//W3C//DTD SVG 1.1//EN" "http://www.w3.org/Graphics/SVG/1.1/DTD/svg11.dtd" [
	<!ENTITY ns_extend "http://ns.adobe.com/Extensibility/1.0/">
	<!ENTITY ns_ai "http://ns.adobe.com/AdobeIllustrator/10.0/">
	<!ENTITY ns_graphs "http://ns.adobe.com/Graphs/1.0/">
	<!ENTITY ns_vars "http://ns.adobe.com/Variables/1.0/">
	<!ENTITY ns_imrep "http://ns.adobe.com/ImageReplacement/1.0/">
	<!ENTITY ns_sfw "http://ns.adobe.com/SaveForWeb/1.0/">
	<!ENTITY ns_custom "http://ns.adobe.com/GenericCustomNamespace/1.0/">
	<!ENTITY ns_adobe_xpath "http://ns.adobe.com/XPath/1.0/">
]>
<svg version="1.1" id="Layer_1" xmlns:x="&ns_extend;" xmlns:i="&ns_ai;" xmlns:graph="&ns_graphs;"
	 xmlns="http://www.w3.org/2000/svg" xmlns:xlink="http://www.w3.org/1999/xlink" x="0px" y="0px" viewBox="0 0 200 105.7"
	 style="enable-background:new 0 0 200 105.7;" xml:space="preserve">
<style type="text/css">
	.st0{fill:#7754A2;}
	.st1{fill:url(#SVGID_1_);}
	.st2{fill:url(#SVGID_2_);}
	.st3{fill:#FFFFFF;stroke:#7754A2;stroke-width:0.4424;stroke-miterlimit:10;}
	.st4{fill:#FFFFFF;stroke:#7251A1;stroke-width:0.4424;stroke-miterlimit:10;}
	.st5{fill:#FFFFFF;stroke:#7754A2;stroke-width:0.4421;stroke-miterlimit:10;}
	.st6{fill:#FFFFFF;}
</style>
<metadata>
	<sfw  xmlns="&ns_sfw;">
		<slices></slices>
		<sliceSourceBounds  bottomLeftOrigin="true" height="105.7" width="200" x="0" y="0"></sliceSourceBounds>
	</sfw>
</metadata>
<g id="Layer_2_1_">
	<g>
		<path class="st0" d="M69.1,49c0-19.9,9.3-37.6,23.7-49H5.3C2.4,0,0,2.4,0,5.3v95.1c0,2.9,2.4,5.3,5.3,5.3h100
			C83.9,95.8,69.1,74.1,69.1,49z"/>
		<path class="st0" d="M194.7,0h-24.3c14.5,11.5,23.7,29.1,23.7,49c0,25.1-14.8,46.8-36.2,56.7h36.8c2.9,0,5.3-2.4,5.3-5.3V5.3
			C200,2.4,197.6,0,194.7,0z"/>
		<path class="st0" d="M194.1,49c0-19.9-9.3-37.6-23.7-49H92.8C78.4,11.4,69.1,29.1,69.1,49c0,25.1,14.8,46.8,36.2,56.7H158
			C179.3,95.8,194.1,74.1,194.1,49z"/>
		
			<linearGradient id="SVGID_1_" gradientUnits="userSpaceOnUse" x1="201.3664" y1="1336.85" x2="61.8336" y2="1336.85" gradientTransform="matrix(1 0 0 1 0 -1284)">
			<stop  offset="0.1413" style="stop-color:#A1A3A6"/>
			<stop  offset="0.3822" style="stop-color:#8C7EA4"/>
			<stop  offset="0.6337" style="stop-color:#795DA2"/>
			<stop  offset="0.772" style="stop-color:#7251A1"/>
		</linearGradient>
		<path class="st1" d="M194.1,49c0-19.9-9.3-37.6-23.7-49H92.8C78.4,11.4,69.1,29.1,69.1,49c0,25.1,14.8,46.8,36.2,56.7H158
			C179.3,95.8,194.1,74.1,194.1,49z"/>
	</g>
	
		<linearGradient id="SVGID_2_" gradientUnits="userSpaceOnUse" x1="0" y1="1362.2" x2="168.3" y2="1362.2" gradientTransform="matrix(1 0 0 1 0 -1284)">
		<stop  offset="0.1413" style="stop-color:#A1A3A6"/>
		<stop  offset="0.3822" style="stop-color:#8C7EA4"/>
		<stop  offset="0.6337" style="stop-color:#795DA2"/>
		<stop  offset="0.772" style="stop-color:#7251A1"/>
	</linearGradient>
	<path class="st2" d="M0,50.7l168.3,55H4.5c-2.5,0-4.5-2-4.5-4.5V50.7z"/>
</g>
<g id="Layer_1_1_">
	<g id="Layer_2_2_">
		<g>
			<path class="st3" d="M15.1,25.9c0-4.4,1.5-8.1,4.6-11.3c3.1-3.1,6.6-4.7,10.7-4.7l26.4-0.1c0.1,1.5,0.5,2.9,1,4.2
				c0.6,1.3,1.2,2.5,1.9,3.8c0.1,0.2,0.2,0.4,0.4,0.6c0.1,0.2,0.3,0.4,0.4,0.6c0.7,1.2,1.4,2.4,2,3.6c0.6,1.3,1.1,2.6,1.4,4
				c-0.8-1-1.7-1.9-2.5-2.7c-0.8-0.9-1.7-1.7-2.5-2.4c-3.5-3.3-7.2-5.7-11.1-7.2c-3.9-1.6-8.7-2.4-14.3-2.4c-5.3,0-9,1.1-11.2,3.2
				c-2.2,2.2-3.3,4.6-3.3,7.5c0,4.5,2.1,7.5,6.2,9c4.1,1.6,8.9,2.8,14.3,3.8c0.7,0.2,1.4,0.3,2.1,0.4c0.7,0.1,1.4,0.2,2.1,0.4
				c6.2,1.2,11.9,3.1,17,5.7c5.1,2.6,7.7,7.6,7.7,14.9c0,0.6,0,1.2,0,1.8s-0.1,1.2-0.2,1.8c-0.6,5-2.8,9.6-6.8,13.8
				c-3.9,4.2-10.7,6.3-20.4,6.3c-1.7,0-3.5-0.1-5.4-0.2s-3.8-0.3-5.7-0.6c-5.4-0.8-10.3-2.9-14.7-6.1c-4.5-3.2-6.7-8.8-6.7-16.6
				c0-0.4,0-0.8,0-1.2s0-0.8,0.1-1.2c0.1-1.7,0.5-3.3,1.1-4.9c0.6-1.6,1.8-2.9,3.4-3.8c-0.8,1-1.4,2-1.6,3.2
				c-0.2,1.2-0.4,2.4-0.4,3.6c0,0.1,0,0.2,0,0.4c0,0.1,0,0.3,0,0.4c0,6.4,3.3,11.6,9.8,15.6s14.8,6.1,24.8,6.1
				c6.3,0,10.9-1.1,13.8-3.4c2.9-2.3,4.3-5.6,4.3-10.2c0-5.9-2.4-9.9-7.2-11.8s-10.1-3.5-15.9-4.6c-0.2-0.1-0.4-0.1-0.6-0.1
				c-0.2,0-0.4-0.1-0.6-0.1c-6.1-1.2-11.6-2.9-16.7-5.1C17.7,37.5,15.1,32.9,15.1,25.9L15.1,25.9z"/>
			<path class="st4" d="M51.7,66.6c3,2.8,4.6,6.5,4.6,11.3s-1.5,8.6-4.6,11.3c-3,2.8-7.2,4.2-12.4,4.2H23.2V93h0.6
				c0.8,0,1.4-0.3,2-0.8c0.5-0.5,0.8-1.2,0.9-2V65.4c0-0.7-0.3-1.3-0.9-1.8c-0.6-0.5-1.2-0.7-2-0.7h-0.6v-0.4h16.1
				C44.5,62.4,48.6,63.8,51.7,66.6z M38.7,91.5c2.1,0,4-0.5,5.5-1.6s2.7-2.7,3.6-4.7c0.8-2,1.2-4.3,1.2-6.7c0-2.4-0.2-4.5-0.7-6.2
				s-1.2-3.1-2.1-4.3c-1.8-2.4-4.3-3.7-7.5-3.7h-5.4v27.2L38.7,91.5L38.7,91.5z"/>
			<path class="st5" d="M87.6,60.7h-10c0.2,1.1,0.5,1.9,1,2.3c0.5,0.4,1.3,0.6,2.3,0.6c0.6,0,1.2-0.1,1.8-0.4c0.6-0.2,1.3-0.6,2-1.1
				l2.5,3.4c-2,1.6-4.3,2.5-6.8,2.5c-2.9,0-5.2-0.8-6.7-2.4s-2.3-3.8-2.3-6.4c0-1.7,0.3-3.2,0.9-4.5c0.6-1.4,1.6-2.4,2.8-3.2
				c1.2-0.8,2.7-1.2,4.5-1.2c1.6,0,3.1,0.3,4.3,1c1.2,0.7,2.2,1.7,2.8,3c0.7,1.3,1,2.9,1,4.7C87.7,59.3,87.7,60,87.6,60.7z
				 M81.7,57.1c0-1-0.2-1.7-0.5-2.3C81,54.2,80.5,54,79.7,54c-0.7,0-1.2,0.2-1.5,0.7s-0.6,1.3-0.7,2.6h4.2V57.1z"/>
			<path class="st5" d="M105.7,50.7l-4.9,16.6h-7.3l-5.1-16.6h6.7l2.1,12.1l2.3-12.1C99.5,50.7,105.7,50.7,105.7,50.7z"/>
			<path class="st5" d="M122.9,60.7h-10.1c0.2,1.1,0.5,1.9,1,2.3c0.5,0.4,1.3,0.6,2.3,0.6c0.6,0,1.2-0.1,1.8-0.4
				c0.6-0.2,1.3-0.6,2-1.1l2.5,3.4c-2,1.6-4.3,2.5-6.8,2.5c-2.9,0-5.2-0.8-6.7-2.4s-2.3-3.8-2.3-6.4c0-1.7,0.3-3.2,0.9-4.5
				c0.6-1.4,1.6-2.4,2.8-3.2c1.2-0.8,2.7-1.2,4.5-1.2c1.6,0,3.1,0.3,4.3,1c1.2,0.7,2.2,1.7,2.8,3c0.7,1.3,1,2.9,1,4.7
				C123,59.3,123,60,122.9,60.7z M116.9,57.1c0-1-0.2-1.7-0.5-2.3c-0.3-0.5-0.8-0.8-1.5-0.8s-1.2,0.2-1.5,0.7s-0.6,1.3-0.7,2.6h4.2
				V57.1z"/>
			<path class="st5" d="M137.5,50.5l-1,5.9c-0.6-0.2-1.1-0.2-1.5-0.2c-0.9,0-1.6,0.3-2,0.9c-0.4,0.6-0.8,1.5-1.1,2.7v7.5h-6.2V50.7
				h5.4l0.5,3.1c0.4-1.1,0.9-2,1.7-2.6c0.8-0.7,1.6-1,2.5-1C136.4,50.2,137,50.3,137.5,50.5z"/>
			<path class="st5" d="M149.5,50.7c1.1,0.4,2.1,0.9,2.8,1.6l-2.2,3.3c-0.6-0.4-1.2-0.7-1.9-0.9s-1.4-0.3-2-0.3
				c-0.9,0-1.4,0.2-1.4,0.7c0,0.2,0.1,0.4,0.2,0.5c0.1,0.1,0.4,0.3,0.9,0.5s1.2,0.5,2.3,0.8c1.7,0.5,2.9,1.2,3.7,2s1.2,1.9,1.2,3.4
				c0,1.1-0.3,2.1-1,3s-1.6,1.5-2.8,2s-2.5,0.7-4.1,0.7c-1.4,0-2.8-0.2-4.1-0.7s-2.3-1.1-3.2-1.9l2.9-3.2c0.6,0.5,1.3,0.9,2,1.2
				s1.5,0.5,2.2,0.5c0.6,0,1-0.1,1.3-0.3s0.5-0.4,0.5-0.8c0-0.3-0.1-0.5-0.2-0.7c-0.1-0.2-0.4-0.3-0.8-0.5c-0.4-0.2-1.1-0.4-2.2-0.7
				c-3.2-1-4.8-2.7-4.8-5.4c0-1,0.3-1.9,0.9-2.7c0.6-0.8,1.4-1.4,2.5-1.9s2.4-0.7,3.9-0.7C147.2,50.1,148.4,50.3,149.5,50.7z"/>
			<path class="st5" d="M169.8,52.4c1.5,1.6,2.3,3.8,2.3,6.6c0,1.8-0.3,3.3-1,4.7c-0.7,1.3-1.7,2.4-3,3.1c-1.3,0.7-2.8,1.1-4.5,1.1
				c-2.7,0-4.7-0.8-6.3-2.3S155,61.8,155,59c0-1.8,0.3-3.3,1-4.7c0.7-1.3,1.7-2.4,3-3.1c1.3-0.7,2.8-1.1,4.5-1.1
				C166.2,50.1,168.3,50.9,169.8,52.4z M161.8,55.6c-0.4,0.7-0.5,1.8-0.5,3.4c0,1.6,0.2,2.8,0.5,3.5c0.4,0.7,0.9,1,1.7,1
				s1.4-0.4,1.7-1.1c0.4-0.7,0.5-1.8,0.5-3.4c0-1.6-0.2-2.8-0.5-3.5c-0.4-0.7-0.9-1-1.7-1S162.2,54.9,161.8,55.6z"/>
			<path class="st5" d="M189.1,51.4c0.8,0.9,1.2,2.1,1.2,3.7v12.2h-6.1V56.2c0-0.6-0.1-1-0.2-1.3c-0.2-0.2-0.4-0.3-0.7-0.3
				c-0.7,0-1.4,0.5-2.1,1.6v11.1H175V50.7h5.4l0.4,1.7c0.8-0.8,1.5-1.4,2.3-1.8c0.8-0.4,1.7-0.6,2.7-0.6
				C187.2,50.1,188.3,50.5,189.1,51.4z"/>
			<path class="st5" d="M70.3,86.9h-8.1c0.1,0.9,0.4,1.5,0.8,1.8c0.4,0.3,1,0.5,1.8,0.5c0.5,0,0.9-0.1,1.4-0.3
				c0.5-0.2,1-0.5,1.6-0.9l2,2.7c-1.6,1.3-3.4,2-5.5,2c-2.4,0-4.1-0.7-5.3-2s-1.8-3-1.8-5.2c0-1.3,0.3-2.5,0.8-3.6s1.3-1.9,2.3-2.6
				c1-0.6,2.2-1,3.6-1c1.3,0,2.5,0.3,3.4,0.8c1,0.5,1.7,1.3,2.3,2.4c0.5,1,0.8,2.3,0.8,3.8C70.4,85.7,70.3,86.2,70.3,86.9z
				 M65.5,83.9c0-0.8-0.1-1.4-0.4-1.8c-0.2-0.4-0.6-0.6-1.2-0.6c-0.5,0-1,0.2-1.2,0.6c-0.3,0.4-0.5,1.1-0.5,2.1h3.3V83.9z"/>
			<path class="st5" d="M80.8,78.8c0.9,0.3,1.7,0.7,2.3,1.3l-1.7,2.7c-0.5-0.3-1-0.5-1.5-0.7s-1.1-0.3-1.6-0.3
				c-0.7,0-1.1,0.2-1.1,0.6c0,0.2,0.1,0.3,0.1,0.4c0.1,0.1,0.3,0.2,0.7,0.4c0.4,0.2,1,0.4,1.8,0.6c1.3,0.4,2.3,0.9,2.9,1.6
				c0.6,0.6,1,1.5,1,2.7c0,0.9-0.3,1.7-0.8,2.4c-0.5,0.7-1.3,1.2-2.2,1.6c-1,0.4-2,0.6-3.2,0.6s-2.3-0.2-3.3-0.6s-1.9-0.9-2.6-1.6
				l2.3-2.6c0.5,0.4,1,0.7,1.6,1c0.6,0.2,1.2,0.4,1.8,0.4c0.4,0,0.8-0.1,1-0.2s0.4-0.3,0.4-0.6c0-0.2-0.1-0.4-0.2-0.5
				s-0.3-0.2-0.7-0.4c-0.3-0.1-0.9-0.3-1.7-0.6c-2.6-0.8-3.9-2.2-3.9-4.3c0-0.8,0.2-1.5,0.7-2.2c0.5-0.6,1.1-1.2,2-1.5
				c0.9-0.4,1.9-0.6,3.1-0.6C78.9,78.3,79.9,78.5,80.8,78.8z"/>
			<path class="st5" d="M90.3,72.2c0.5,0.5,0.8,1.1,0.8,1.9c0,0.7-0.3,1.4-0.8,1.9s-1.2,0.8-2,0.8s-1.5-0.3-2-0.8s-0.8-1.1-0.8-1.9
				c0-0.7,0.3-1.4,0.8-1.9s1.2-0.8,2-0.8S89.8,71.7,90.3,72.2z M90.8,78.8v13.3h-4.9V78.8H90.8z"/>
			<path class="st5" d="M106.9,79.7c-0.9,0.4-2.1,0.6-3.8,0.6c0.9,0.4,1.5,0.8,2,1.4c0.4,0.5,0.6,1.2,0.6,2.1c0,0.8-0.2,1.6-0.7,2.3
				c-0.5,0.7-1.2,1.2-2.1,1.6s-1.9,0.6-3.1,0.6c-0.6,0-1.1,0-1.4-0.1c-0.2,0.1-0.3,0.3-0.3,0.5s0.1,0.3,0.2,0.4
				c0.2,0.1,0.5,0.2,1,0.2h1.9c1.1,0,2,0.2,2.9,0.5c0.8,0.3,1.4,0.8,1.9,1.4c0.4,0.6,0.7,1.3,0.7,2.1c0,1.4-0.6,2.5-1.9,3.4
				c-1.3,0.8-3.1,1.2-5.5,1.2c-1.7,0-3.1-0.2-4.1-0.5c-1-0.4-1.7-0.9-2.1-1.5s-0.6-1.4-0.6-2.4H97c0,0.3,0.1,0.6,0.2,0.8
				c0.1,0.2,0.4,0.3,0.7,0.4c0.3,0.1,0.9,0.1,1.6,0.1c0.9,0,1.5-0.1,1.8-0.3c0.3-0.2,0.5-0.5,0.5-0.8s-0.1-0.5-0.3-0.7
				c-0.2-0.2-0.6-0.3-1.1-0.3h-1.8c-1.5,0-2.7-0.2-3.4-0.7c-0.7-0.5-1.1-1.1-1.1-1.9c0-0.5,0.2-1,0.5-1.5s0.7-0.9,1.2-1.2
				c-0.9-0.5-1.5-1-1.9-1.6s-0.6-1.4-0.6-2.2c0-1.6,0.6-2.8,1.7-3.7c1.1-0.9,2.6-1.3,4.6-1.3c1.3,0,2.4-0.1,3.4-0.5s2-0.9,3-1.6
				L106.9,79.7z M98.6,82c-0.3,0.3-0.4,0.7-0.4,1.3c0,0.6,0.1,1,0.4,1.4c0.3,0.3,0.6,0.5,1.1,0.5c1,0,1.5-0.6,1.5-1.9
				c0-0.6-0.1-1-0.4-1.3c-0.2-0.3-0.6-0.4-1.1-0.4C99.2,81.5,98.8,81.7,98.6,82z"/>
			<path class="st5" d="M120.2,79.4c0.6,0.7,1,1.7,1,2.9v9.8h-4.9v-8.9c0-0.5-0.1-0.8-0.2-1s-0.3-0.3-0.6-0.3
				c-0.5,0-1.1,0.4-1.7,1.3v8.9h-4.9V78.8h4.3l0.3,1.4c0.6-0.6,1.2-1.1,1.9-1.4c0.6-0.3,1.4-0.4,2.2-0.4
				C118.7,78.3,119.6,78.7,120.2,79.4z"/>
			<path class="st3" d="M51.7,66.6c3,2.8,4.6,6.5,4.6,11.3s-1.5,8.6-4.6,11.3c-3,2.8-7.2,4.2-12.4,4.2H23.2V93h0.6
				c0.8,0,1.4-0.3,2-0.8c0.5-0.5,0.8-1.2,0.9-2V65.4c0-0.7-0.3-1.3-0.9-1.8c-0.6-0.5-1.2-0.7-2-0.7h-0.6v-0.4h16.1
				C44.5,62.4,48.6,63.8,51.7,66.6z M38.7,91.5c2.1,0,4-0.5,5.5-1.6s2.7-2.7,3.6-4.7c0.8-2,1.2-4.3,1.2-6.7c0-2.4-0.2-4.5-0.7-6.2
				s-1.2-3.1-2.1-4.3c-1.8-2.4-4.3-3.7-7.5-3.7h-5.4v27.2L38.7,91.5L38.7,91.5z"/>
			<g>
				<path class="st6" d="M47.8,75.2c5-0.3,9.3-1.7,11.7-3.6c2.9-2.3,4.3-5.6,4.3-10.2c0-5.9-2.4-9.9-7.2-11.8S46.5,46.1,40.7,45
					c-0.3,0-1-0.2-1.2-0.2c-6.1-1.2-11.6-2.9-16.7-5.1c-5.1-2.2-7.6-6.8-7.6-13.7v-0.1c0-4.4,1.5-8.1,4.6-11.3
					c3.1-3.1,6.6-4.7,10.7-4.7l26.4-0.1c0.1,1.5,0.5,2.9,1,4.2c0.6,1.3,1.2,2.5,1.9,3.8c0.1,0.2,0.2,0.4,0.4,0.6
					c0.1,0.2,0.3,0.4,0.4,0.6c0.7,1.2,1.4,2.4,2,3.6c0.6,1.3,1.1,2.6,1.4,4c-0.8-1-1.7-1.9-2.5-2.7c-0.8-0.9-1.7-1.7-2.5-2.4
					c-3.5-3.3-7.2-5.7-11.1-7.2c-3.9-1.6-8.7-2.4-14.3-2.4c-5.3,0-9,1.1-11.2,3.2c-2.2,2.2-3.3,4.6-3.3,7.5c0,4.5,2.1,7.5,6.2,9
					c4.1,1.6,8.9,2.8,14.3,3.8c0.7,0.2,1.4,0.3,2.1,0.4c0.7,0.1,1.4,0.2,2.1,0.4c6.2,1.2,11.9,3.1,17,5.7c5.1,2.6,7.7,7.6,7.7,14.9
					c0,0.6,0,1.2,0,1.8s-0.1,1.2-0.2,1.8c-0.6,5-2.8,9.6-6.8,13.8c-3.9,4.2-10.7,6.3-20.4,6.3"/>
				<path class="st0" d="M41.1,80.7v-0.4c9.6,0,16.4-2.1,20.2-6.2c3.9-4.1,6.1-8.7,6.7-13.7c0.1-0.6,0.2-1.2,0.2-1.8v-1.8
					c0-7.2-2.6-12.1-7.6-14.7s-10.7-4.5-16.9-5.7c-0.7-0.1-1.4-0.3-2.1-0.4c-0.7-0.1-1.3-0.3-2.1-0.4c-5.8-1.1-10.5-2.3-14.3-3.8
					c-4.2-1.5-6.3-4.6-6.3-9.2c0-2.9,1.1-5.4,3.4-7.7c2.3-2.2,6.1-3.3,11.4-3.3c5.6,0,10.5,0.8,14.4,2.4c3.9,1.5,7.7,3.9,11.2,7.2
					c0.8,0.7,1.7,1.5,2.5,2.4c0.6,0.6,1.3,1.3,1.9,2c-0.3-0.9-0.6-1.9-1.2-3c-0.6-1.2-1.3-2.4-2-3.6c-0.1-0.1-0.1-0.2-0.2-0.3
					c-0.1-0.1-0.1-0.2-0.2-0.3c-0.2-0.2-0.3-0.4-0.4-0.6c-0.7-1.3-1.3-2.5-1.9-3.8c-0.6-1.5-0.9-2.8-1-4.1L30.6,10
					c-4,0-7.4,1.5-10.5,4.6s-4.5,6.8-4.5,11.1V26c0,6.8,2.5,11.4,7.5,13.5c5.2,2.2,10.6,3.9,16.7,5.1c0.1,0,1,0.2,1.1,0.2
					c5.5,1,10.9,2.6,16,4.6c4.9,1.9,7.3,6,7.3,12c0,4.6-1.4,8-4.4,10.4c-2.5,2-7.6,3.4-12.4,3.6l0.5-0.4c4.8-0.3,9.1-1.6,11.6-3.6
					c2.8-2.2,4.2-5.5,4.2-10c0-5.8-2.4-9.7-7.1-11.6c-5.1-2-10.4-3.6-15.9-4.6c-0.2,0-0.3,0-0.4-0.1c-0.1,0-0.1,0-0.2,0
					c-0.1,0-0.2,0-0.4-0.1c-0.1,0-0.2,0-0.2,0c-6.1-1.2-11.6-2.9-16.8-5.1C17.6,37.7,15,33,15,26v-0.1c0-4.5,1.5-8.2,4.7-11.5
					c3.2-3.2,6.8-4.8,10.9-4.8l26.6-0.1v0.2c0.1,1.3,0.4,2.6,1,4.1c0.6,1.3,1.2,2.5,1.9,3.8c0.1,0.2,0.2,0.4,0.4,0.5v0.1
					c0,0.1,0.1,0.2,0.2,0.3c0.1,0.1,0.2,0.2,0.2,0.3c0.7,1.2,1.4,2.4,2,3.6c0.7,1.5,1.1,2.8,1.4,4.1l0.2,0.9l-0.6-0.7
					c-0.8-1-1.7-1.9-2.5-2.7c-0.8-0.9-1.7-1.7-2.5-2.4c-3.5-3.3-7.2-5.7-11-7.2C44,12.8,39.3,12,33.7,12c-5.1,0-8.9,1.1-11,3.1
					c-2.2,2.2-3.2,4.5-3.2,7.3c0,4.4,2,7.3,6.1,8.8c3.8,1.5,8.4,2.7,14.3,3.8c0.7,0.2,1.4,0.3,2.1,0.4c0.7,0.1,1.4,0.2,2.1,0.4
					c6.2,1.2,12,3.1,17,5.7c5.2,2.6,7.8,7.7,7.8,15.1v1.8c0,0.6-0.1,1.2-0.2,1.8c-0.6,5.1-2.9,9.8-6.9,13.9
					C57.7,78.6,50.8,80.7,41.1,80.7z"/>
			</g>
			<path class="st4" d="M48.3,76.7"/>
		</g>
	</g>
</g>
</svg>
