<?xml version="1.0" encoding="utf-8"?>
<!-- Generator: Adobe Illustrator 25.2.1, SVG Export Plug-In . SVG Version: 6.00 Build 0)  -->
<!DOCTYPE svg PUBLIC "-//W3C//DTD SVG 1.1//EN" "http://www.w3.org/Graphics/SVG/1.1/DTD/svg11.dtd" [
	<!ENTITY ns_extend "http://ns.adobe.com/Extensibility/1.0/">
	<!ENTITY ns_ai "http://ns.adobe.com/AdobeIllustrator/10.0/">
	<!ENTITY ns_graphs "http://ns.adobe.com/Graphs/1.0/">
	<!ENTITY ns_vars "http://ns.adobe.com/Variables/1.0/">
	<!ENTITY ns_imrep "http://ns.adobe.com/ImageReplacement/1.0/">
	<!ENTITY ns_sfw "http://ns.adobe.com/SaveForWeb/1.0/">
	<!ENTITY ns_custom "http://ns.adobe.com/GenericCustomNamespace/1.0/">
	<!ENTITY ns_adobe_xpath "http://ns.adobe.com/XPath/1.0/">
]>
<svg version="1.1" xmlns:x="&ns_extend;" xmlns:i="&ns_ai;" xmlns:graph="&ns_graphs;"
	 xmlns="http://www.w3.org/2000/svg" xmlns:xlink="http://www.w3.org/1999/xlink" x="0px" y="0px" viewBox="0 0 200 104"
	 style="enable-background:new 0 0 200 104;" xml:space="preserve">
<style type="text/css">
	.st0{fill:url(#background_1_);}
	.st1{fill:#FFFFFF;}
	.st2{enable-background:new    ;}
	.st3{fill:#6F89D6;}
	.st4{font-family:'Futura-MediumItalic';}
	.st5{font-size:8px;}
	.st6{fill:#FFFFFF;stroke:#663399;stroke-width:0.3594;stroke-miterlimit:10;}
</style>
<metadata>
	<sfw  xmlns="&ns_sfw;">
		<slices></slices>
		<sliceSourceBounds  bottomLeftOrigin="true" height="129.5" width="200" x="0" y="0.1"></sliceSourceBounds>
	</sfw>
</metadata>
<g id="Layer_1">
	
		<linearGradient id="background_1_" gradientUnits="userSpaceOnUse" x1="100" y1="3393.332" x2="100" y2="3561.6433" gradientTransform="matrix(1 0 0 1 0 -3430)">
		<stop  offset="2.145177e-02" style="stop-color:#6F89D6"/>
		<stop  offset="0.3466" style="stop-color:#6F89D6"/>
		<stop  offset="0.3864" style="stop-color:#6D7ACC"/>
		<stop  offset="0.4859" style="stop-color:#6A5BB6"/>
		<stop  offset="0.5828" style="stop-color:#6845A6"/>
		<stop  offset="0.6751" style="stop-color:#66389C"/>
		<stop  offset="0.7576" style="stop-color:#663399"/>
		<stop  offset="0.9927" style="stop-color:#663399"/>
	</linearGradient>
	<path id="background" class="st0" d="M200,93.9c0,5.5-4.5,10-10,10H0v-94c0-5.5,4.5-10,10-10L200,0V93.9z"/>
	<path class="st1" d="M89.4,7.7h4V29c0,2.2,0.2,3.6,0.6,4.3s1.2,1.1,2.4,1.1c1.2,0,2-0.3,2.3-0.9c0.4-0.6,0.6-1.9,0.6-3.9V7.7h4
		v21.9c0,3.3-0.5,5.5-1.5,6.7c-1.2,1.3-3,2-5.5,2c-2.7,0-4.6-0.8-5.7-2.5c-0.8-1.2-1.2-3.4-1.2-6.7C89.4,29.1,89.4,7.7,89.4,7.7z"/>
	<path class="st1" d="M107.9,7.7h4.1v30.2h-4.1V7.7z"/>
	<path class="st1" d="M130.4,4.7h3.1l-18,41.5h-3.2L130.4,4.7z"/>
	<path class="st1" d="M134.7,7.7h4V29c0,2.2,0.2,3.6,0.6,4.3c0.4,0.7,1.2,1.1,2.4,1.1s2-0.3,2.3-0.9c0.4-0.6,0.6-1.9,0.6-3.9V7.7h4
		v21.9c0,3.3-0.5,5.5-1.5,6.7c-1.2,1.3-3,2-5.5,2c-2.7,0-4.6-0.8-5.7-2.5c-0.8-1.2-1.2-3.4-1.2-6.7L134.7,7.7L134.7,7.7z"/>
	<path class="st1" d="M151.1,7.7h3.9l2.1,5.8c0.8,2.3,1.3,4,1.5,5.1c0.1-0.7,0.3-1.3,0.5-1.9s0.4-1.2,0.6-1.9l0.3-0.9l1.9-6.2h4.1
		l-5.6,14.8l5.6,15.3h-4.1l-2-5.7c-0.4-1.1-0.7-2.2-1-3.1c-0.2-0.9-0.4-1.7-0.5-2.4c-0.1,0.9-0.3,1.7-0.5,2.5l-0.7,2.1l-0.4,1.1
		l-1.7,5.5h-4.3l5.7-15.3L151.1,7.7z"/>
	<g class="st2">
		<path d="M96.3-24.9h3.4c0.6,0,1.2,0.1,1.7,0.4s1,0.6,1.4,1s0.7,0.9,0.9,1.4c0.2,0.5,0.3,1.1,0.3,1.7c0,0.6-0.1,1.1-0.3,1.7
			c-0.2,0.5-0.5,1-0.9,1.4s-0.9,0.7-1.4,1s-1.1,0.4-1.7,0.4h-3.4V-24.9z M98.6-18h0.5c0.4,0,0.8-0.1,1.1-0.2
			c0.3-0.1,0.6-0.3,0.8-0.5c0.2-0.2,0.4-0.5,0.5-0.8c0.1-0.3,0.2-0.6,0.2-1c0-0.4-0.1-0.7-0.2-1c-0.1-0.3-0.3-0.6-0.5-0.8
			c-0.2-0.2-0.5-0.4-0.8-0.5c-0.3-0.1-0.7-0.2-1.1-0.2h-0.5V-18z"/>
		<path d="M107.3-18.7c0,0.9,0.4,1.4,1.3,1.4c0.5,0,0.8-0.2,1.1-0.6h2.1c-0.4,1.4-1.5,2.1-3.1,2.1c-0.5,0-1-0.1-1.4-0.2
			c-0.4-0.2-0.8-0.4-1.1-0.7c-0.3-0.3-0.5-0.6-0.7-1c-0.2-0.4-0.2-0.8-0.2-1.3c0-0.5,0.1-1,0.2-1.4c0.2-0.4,0.4-0.8,0.7-1
			s0.6-0.5,1.1-0.7c0.4-0.2,0.9-0.2,1.4-0.2c0.5,0,1,0.1,1.4,0.2c0.4,0.2,0.8,0.4,1,0.7c0.3,0.3,0.5,0.6,0.7,1.1
			c0.2,0.4,0.2,0.9,0.2,1.4v0.2H107.3z M109.8-19.9c-0.1-0.3-0.2-0.5-0.4-0.7c-0.2-0.2-0.5-0.3-0.8-0.3c-0.3,0-0.6,0.1-0.8,0.3
			c-0.2,0.2-0.3,0.4-0.4,0.7H109.8z"/>
		<path d="M117.1-20.5c-0.4-0.2-0.8-0.3-1.2-0.3c-0.2,0-0.4,0-0.5,0.1c-0.1,0.1-0.2,0.2-0.2,0.3c0,0.1,0,0.1,0,0.2s0.1,0.1,0.1,0.1
			c0.1,0,0.2,0.1,0.3,0.1c0.1,0,0.3,0.1,0.5,0.1c0.6,0.1,1,0.3,1.3,0.6c0.3,0.3,0.4,0.7,0.4,1.2c0,0.4-0.1,0.7-0.2,1
			c-0.1,0.3-0.3,0.5-0.6,0.7c-0.3,0.2-0.6,0.3-0.9,0.4c-0.4,0.1-0.7,0.2-1.2,0.2c-0.8,0-1.6-0.2-2.4-0.7l0.8-1.5
			c0.6,0.4,1.2,0.6,1.7,0.6c0.2,0,0.4,0,0.5-0.1c0.1-0.1,0.2-0.2,0.2-0.3c0-0.1,0-0.1,0-0.2c0-0.1-0.1-0.1-0.1-0.1
			c-0.1,0-0.2-0.1-0.3-0.1c-0.1,0-0.3-0.1-0.5-0.1c-0.7-0.1-1.1-0.3-1.4-0.6s-0.4-0.6-0.4-1.1c0-0.3,0.1-0.6,0.2-0.9
			c0.1-0.3,0.3-0.5,0.5-0.7c0.2-0.2,0.5-0.3,0.9-0.4s0.7-0.2,1.1-0.2c0.7,0,1.3,0.1,2,0.4L117.1-20.5z"/>
		<path d="M118.9-24.4c0-0.2,0-0.3,0.1-0.5c0.1-0.1,0.2-0.3,0.3-0.4c0.1-0.1,0.2-0.2,0.4-0.3c0.1-0.1,0.3-0.1,0.5-0.1
			c0.2,0,0.3,0,0.5,0.1c0.1,0.1,0.3,0.1,0.4,0.3c0.1,0.1,0.2,0.2,0.3,0.4c0.1,0.1,0.1,0.3,0.1,0.5s0,0.3-0.1,0.5
			c-0.1,0.1-0.2,0.3-0.3,0.4c-0.1,0.1-0.2,0.2-0.4,0.3c-0.1,0.1-0.3,0.1-0.5,0.1c-0.2,0-0.3,0-0.5-0.1c-0.1-0.1-0.3-0.1-0.4-0.3
			c-0.1-0.1-0.2-0.2-0.3-0.4C118.9-24.1,118.9-24.2,118.9-24.4z M121.2-22.1v6.1h-2.1v-6.1H121.2z"/>
		<path d="M129.5-22.1v5.7c0,0.3,0,0.6-0.1,0.9c0,0.3-0.1,0.5-0.2,0.7c-0.1,0.3-0.2,0.5-0.4,0.7s-0.4,0.4-0.7,0.6
			c-0.3,0.2-0.6,0.3-1,0.4s-0.7,0.1-1.2,0.1c-0.5,0-0.9-0.1-1.3-0.2c-0.4-0.1-0.7-0.3-1-0.5c-0.3-0.2-0.5-0.5-0.7-0.7
			s-0.3-0.6-0.4-0.9h2.4c0.2,0.4,0.5,0.6,1,0.6c0.5,0,0.8-0.1,1-0.4c0.2-0.3,0.4-0.6,0.4-1.1v-0.6c-0.2,0.2-0.3,0.3-0.5,0.4
			c-0.1,0.1-0.3,0.2-0.4,0.2c-0.2,0.1-0.3,0.1-0.5,0.1c-0.2,0-0.3,0-0.5,0c-0.4,0-0.8-0.1-1.2-0.2c-0.4-0.1-0.7-0.4-0.9-0.6
			c-0.3-0.3-0.5-0.6-0.6-1c-0.1-0.4-0.2-0.8-0.2-1.2c0-0.5,0.1-0.9,0.2-1.3c0.2-0.4,0.4-0.7,0.6-1c0.3-0.3,0.6-0.5,1-0.7
			c0.4-0.2,0.8-0.3,1.2-0.3c0.7,0,1.3,0.3,1.8,0.8v-0.6H129.5z M124.7-19.1c0,0.2,0,0.4,0.1,0.6c0.1,0.2,0.2,0.3,0.3,0.4
			c0.1,0.1,0.3,0.2,0.4,0.3c0.2,0.1,0.4,0.1,0.5,0.1c0.2,0,0.4,0,0.5-0.1c0.2-0.1,0.3-0.2,0.4-0.3c0.1-0.1,0.2-0.3,0.3-0.4
			c0.1-0.2,0.1-0.3,0.1-0.5c0-0.2,0-0.4-0.1-0.5s-0.2-0.3-0.3-0.4c-0.1-0.1-0.3-0.2-0.4-0.3c-0.2-0.1-0.3-0.1-0.5-0.1
			c-0.2,0-0.4,0-0.5,0.1c-0.2,0.1-0.3,0.2-0.4,0.3s-0.2,0.3-0.3,0.4C124.7-19.4,124.7-19.2,124.7-19.1z"/>
		<path d="M130.9-22.1h2.1v0.8c0.3-0.4,0.6-0.6,0.9-0.7c0.3-0.1,0.7-0.2,1.1-0.2c0.4,0,0.8,0.1,1.1,0.2s0.6,0.3,0.8,0.6
			c0.2,0.2,0.3,0.4,0.4,0.7c0.1,0.3,0.1,0.5,0.1,0.9v3.9h-2.1v-3.1c0-0.3,0-0.5-0.1-0.7c0-0.2-0.1-0.3-0.2-0.4
			c-0.1-0.1-0.2-0.2-0.3-0.2c-0.1,0-0.2-0.1-0.4-0.1c-0.4,0-0.6,0.1-0.8,0.3s-0.3,0.5-0.3,0.9v3.2h-2.1V-22.1z"/>
		<path d="M140.7-18.7c0,0.9,0.4,1.4,1.3,1.4c0.5,0,0.8-0.2,1.1-0.6h2.1c-0.4,1.4-1.5,2.1-3.1,2.1c-0.5,0-1-0.1-1.4-0.2
			c-0.4-0.2-0.8-0.4-1.1-0.7c-0.3-0.3-0.5-0.6-0.7-1c-0.2-0.4-0.2-0.8-0.2-1.3c0-0.5,0.1-1,0.2-1.4c0.2-0.4,0.4-0.8,0.7-1
			s0.6-0.5,1.1-0.7c0.4-0.2,0.9-0.2,1.4-0.2c0.5,0,1,0.1,1.4,0.2c0.4,0.2,0.8,0.4,1,0.7c0.3,0.3,0.5,0.6,0.7,1.1
			c0.2,0.4,0.2,0.9,0.2,1.4v0.2H140.7z M143.2-19.9c-0.1-0.3-0.2-0.5-0.4-0.7c-0.2-0.2-0.5-0.3-0.8-0.3c-0.3,0-0.6,0.1-0.8,0.3
			c-0.2,0.2-0.3,0.4-0.4,0.7H143.2z"/>
		<path d="M146.4-22.1h2.1v1c0.2-0.4,0.5-0.6,0.8-0.8c0.3-0.2,0.7-0.3,1.2-0.3c0.1,0,0.1,0,0.2,0c0.1,0,0.1,0,0.2,0v2
			c-0.3-0.1-0.6-0.2-0.9-0.2c-0.5,0-0.9,0.1-1.1,0.4c-0.2,0.3-0.4,0.7-0.4,1.3v2.6h-2.1V-22.1z"/>
	</g>
	<text transform="matrix(1 0 0 1 139.8134 96.3649)" class="st3 st4 st5">App and Web</text>
</g>
<g id="logo">
	<g>
		<path class="st6" d="M31,66.7v-1.4c0-0.6-0.3-1.2-0.8-1.6c-0.5-0.5-1.1-0.6-1.8-0.6h-0.5v-0.4H43c4.7-0.2,8.5,1.1,11.4,3.8
			c1,0.9,1.8,2,2.5,3.1l0,0c0.7,1.2,1.2,2.5,1.4,3.9c0.2,1.1,0.3,2.3,0.3,3.5c0,4.5-1.4,8-4.3,10.6c-2.8,2.6-6.8,3.9-11.6,3.9h-15
			V91h0.6c0.7,0,1.3-0.3,1.8-0.7c0.5-0.5,0.7-1.1,0.8-1.8V73.6 M37.3,74.8v14.9h4.9c2,0,3.7-0.5,5.1-1.5s2.6-2.6,3.4-4.4
			c0.7-1.8,1.1-4,1.1-6.3c0-0.9,0-1.7-0.1-2.5c-0.1-1.2-0.3-2.3-0.5-3.3c-0.1-0.5-0.3-1-0.5-1.5c-0.4-0.9-0.9-1.7-1.4-2.5
			c-1.6-2.3-4-3.5-7-3.5h-5v4.5"/>
		<path class="st6" d="M31,66.7l-0.1,6.9c-3.5-1-6.7-2.6-9.8-4.8c-4.2-3.1-6.4-8.2-6.4-15.6c0-0.4,0-3.4,0.9-6.4
			c0.5-1.5,1.8-3.3,3.5-4.2c-0.8,0.9-1.3,1.8-1.5,3c-0.4,2-0.4,4.1-0.4,4.1c0,6,3.1,10.9,9.2,14.7C27.9,65.2,29.4,66,31,66.7z"/>
		<path class="st6" d="M71.6,53.1c0,0.5-0.1,2.8-0.2,3.4c-0.5,4.7-2.7,8.9-6.5,12.9c-1.6,1.7-3.9,3.1-6.6,4.1
			c-2,0.7-4.1,1.1-6.5,1.4c-1.8,0.2-3.9,0.3-6.1,0.3c-1.5,0-3.3-0.1-5.1-0.2c-1-0.1-2.2-0.2-3.3-0.3v-6.1c3.8,0.9,8,1.3,12.6,1.3
			c0.3,0,0.5,0,0.8,0c2.3,0,4.3-0.2,6.1-0.6l0,0c2.6-0.5,4.6-1.3,6.2-2.6c2.8-2.2,4.1-5.3,4.1-9.6c0-5.6-2.3-9.2-6.8-11.1
			c-4.5-1.7-27.3-7.2-32-9.3s-7.2-6.5-7.2-12.9c0-4.1,1.4-7.7,4.3-10.7s6.3-4.5,10.1-4.5h25c0.1,1.4,0.5,2.9,1,4.1
			c0.9,2,3.7,6.7,4.3,7.9c0.6,1.1,1,2.5,1.4,3.8c-0.8-0.9-1.5-1.7-2.4-2.6c-0.7-0.8-1.5-1.5-2.4-2.3c-3.3-3-6.8-5.3-10.6-6.8
			s-8.2-2.2-13.6-2.2c-4.9,0-8.5,1-10.6,3c-2.1,2.1-3.1,4.4-3.1,7c0,4.2,2,7,5.9,8.5s28.8,7.2,33.7,9.8
			C69.1,41.5,71.6,46.1,71.6,53.1z"/>
		<path class="st6" d="M88,61.4h-9.8c0.3,2.6,1.5,3.2,3.4,3.2c1.2,0,2.4-0.4,3.7-1.4l2.2,2.9c-1.5,1.3-3.7,2.3-6.4,2.3
			c-5.5,0-8.2-3.5-8.2-8.4c0-4.7,2.6-8.5,7.7-8.5c4.6,0,7.5,3,7.5,8.2C88.1,60,88,60.9,88,61.4z M82.9,58.1c0-2-0.5-3.3-2.3-3.3
			c-1.4,0-2.2,0.8-2.4,3.5h4.6h0.1L82.9,58.1z"/>
		<path class="st6" d="M100.1,67.7h-6.3l-4.9-15.9h5.8l2.4,12l2.6-12h5.4L100.1,67.7z"/>
		<path class="st6" d="M121,61.4h-9.8c0.3,2.6,1.5,3.2,3.4,3.2c1.2,0,2.4-0.4,3.7-1.4l2.2,2.9c-1.5,1.2-3.7,2.3-6.4,2.3
			c-5.5,0-8.2-3.5-8.2-8.4c0-4.7,2.6-8.5,7.7-8.5c4.6,0,7.5,3,7.5,8.2C121.1,60,121,60.9,121,61.4z M115.9,58.1c0-2-0.5-3.3-2.3-3.3
			c-1.4,0-2.2,0.8-2.4,3.5h4.6h0.1L115.9,58.1z"/>
		<path class="st6" d="M134.6,51.7l-0.8,5.1c-0.5-0.1-0.9-0.2-1.4-0.2c-2,0-2.7,1.4-3.1,3.7v7.5H124V51.9h4.6l0.4,3
			c0.6-2.2,2.3-3.5,4-3.5C133.6,51.4,134.1,51.5,134.6,51.7z"/>
		<path class="st6" d="M148.4,53.4l-2,2.9c-1.2-0.7-2.6-1.2-3.8-1.2c-1.1,0-1.6,0.4-1.6,0.9c0,0.7,0.3,1,3.2,1.8
			c3.1,0.9,4.7,2.2,4.7,5c0,3.3-3.1,5.3-7.3,5.3c-2.8,0-5.2-0.9-6.8-2.4l2.6-2.9c1.1,0.9,2.7,1.5,4.1,1.5c1.2,0,2-0.4,2-1.2
			c0-0.9-0.4-1.1-3.2-2c-3.1-0.9-4.6-2.6-4.6-5c0-2.8,2.5-5,6.7-5C144.7,51.1,146.9,52.1,148.4,53.4z"/>
		<path class="st6" d="M166.8,59.8c0,5.1-3,8.4-7.9,8.4s-7.9-3.1-7.9-8.5c0-5.1,3-8.4,7.9-8.4C163.8,51.3,166.8,54.4,166.8,59.8z
			 M156.3,59.8c0,3.3,0.8,4.6,2.5,4.6s2.5-1.4,2.5-4.6c0-3.3-0.8-4.6-2.5-4.6S156.3,56.5,156.3,59.8z"/>
		<path class="st6" d="M184,56.1v11.6h-5.3V57.1c0-1.4-0.5-1.8-1.2-1.8c-0.8,0-1.6,0.6-2.4,1.8v10.7h-5.3V51.9h4.6l0.4,1.7
			c1.4-1.5,2.9-2.4,4.8-2.4C182.4,51.3,184,53.1,184,56.1z"/>
		<path class="st6" d="M71.3,85.1h-7.7c0.2,2.1,1.2,2.5,2.7,2.5c0.9,0,1.8-0.3,3-1.1l1.7,2.4c-1.2,1-3,1.7-5,1.7
			c-4.4,0-6.6-2.8-6.6-6.7c0-3.7,2.1-6.8,6.1-6.8c3.7,0,6,2.4,6,6.5C71.5,84.1,71.4,84.7,71.3,85.1z M67.2,82.7
			c0-1.5-0.4-2.8-1.7-2.8c-1.1,0-1.7,0.6-1.8,2.8H67.2z"/>
		<path class="st6" d="M83.3,78.8l-1.5,2.4c-0.9-0.6-2.1-0.9-3.1-0.9c-0.9,0-1.3,0.3-1.3,0.7c0,0.5,0.2,0.8,2.6,1.4
			c2.5,0.7,3.8,1.7,3.8,4c0,2.6-2.5,4.2-5.8,4.2c-2.2,0-4.1-0.7-5.3-2l2.1-2.3c0.9,0.7,2.1,1.2,3.3,1.2c1,0,1.5-0.3,1.5-1
			S79.3,85.6,77,85c-2.4-0.7-3.7-2.1-3.7-4c0-2.3,2-4,5.3-4C80.5,77,82.2,77.8,83.3,78.8z"/>
		<path class="st6" d="M90.7,73.1c0,1.3-1,2.4-2.4,2.4s-2.4-1-2.4-2.4s1-2.4,2.4-2.4C89.8,70.7,90.7,71.9,90.7,73.1z M90.4,90.2
			h-4.2V77.6h4.2V90.2z"/>
		<path class="st6" d="M105.7,78.5c-0.8,0.3-2.1,0.5-3.6,0.5c1.6,0.6,2.4,1.5,2.4,3.3c0,2.4-2.1,4.2-5.4,4.2c-0.5,0-0.9,0-1.4-0.1
			c-0.2,0.1-0.3,0.3-0.3,0.6c0,0.3,0.1,0.7,1.3,0.7h1.8c3.1,0,4.9,1.5,4.9,3.7c0,2.7-2.4,4.2-6.8,4.2c-4.9,0-6.2-1.6-6.2-4.1h3.7
			c0,1,0.4,1.4,2.6,1.4c2.1,0,2.5-0.6,2.5-1.2s-0.4-1.1-1.5-1.1H98c-2.9,0-4.1-1.1-4.1-2.5c0-0.9,0.6-2,1.5-2.5
			C93.8,84.7,93,83.5,93,82c0-3,2.3-4.7,5.8-4.7c2.7,0.1,4.4-0.8,6-1.7L105.7,78.5z M97.2,81.7c0,1.3,0.7,2,1.6,2
			c1.1,0,1.6-0.6,1.6-2c0-1.2-0.5-1.7-1.6-1.8C97.7,79.9,97.2,80.6,97.2,81.7z"/>
		<path class="st6" d="M118.9,81v9.2h-4.2v-8.5c0-1.1-0.4-1.4-0.9-1.4c-0.7,0-1.3,0.5-1.8,1.4v8.5h-4.2V77.6h3.7l0.3,1.4
			c1.1-1.2,2.3-1.8,3.8-1.8C117.6,77.2,118.9,78.6,118.9,81z"/>
	</g>
</g>
</svg>
